<svg xmlns="http://www.w3.org/2000/svg" xmlns:xlink="http://www.w3.org/1999/xlink" width="2380" zoomAndPan="magnify" viewBox="0 0 1784.88 1784.99993" height="2380" preserveAspectRatio="xMidYMid meet" version="1.0"><defs><g/><clipPath id="277bb33435"><path d="M 240.207031 103.445312 L 1469.375 103.445312 L 1469.375 1332.613281 L 240.207031 1332.613281 Z M 240.207031 103.445312 " clip-rule="nonzero"/></clipPath></defs><g clip-path="url(#277bb33435)"><path fill="#000000" d="M 854.792969 103.445312 C 514.722656 103.445312 240.207031 377.960938 240.207031 718.027344 C 240.207031 1058.097656 514.722656 1332.613281 854.792969 1332.613281 C 1194.863281 1332.613281 1469.375 1058.097656 1469.375 718.027344 C 1469.375 377.960938 1194.863281 103.445312 854.792969 103.445312 Z M 854.792969 1277.984375 C 546.136719 1277.984375 294.839844 1026.6875 294.839844 718.027344 C 294.839844 409.371094 546.136719 158.074219 854.792969 158.074219 C 1163.449219 158.074219 1414.746094 409.371094 1414.746094 718.027344 C 1414.746094 1026.6875 1163.449219 1277.984375 854.792969 1277.984375 Z M 854.792969 1277.984375 " fill-opacity="1" fill-rule="nonzero"/></g><path stroke-linecap="butt" transform="matrix(0.74995, 0, 0, 0.74995, 370.282728, 370.855176)" fill="none" stroke-linejoin="miter" d="M 28.84372 442.118673 C 28.84372 367.186549 49.485734 310.380645 90.764552 271.716585 C 132.152753 232.943144 190.937957 213.556423 267.125374 213.556423 C 343.317999 213.556423 402.155291 233.047318 443.647665 272.029106 C 485.239005 310.906722 506.037279 367.603244 506.037279 442.118673 C 506.037279 491.762638 496.682483 533.614411 477.9781 567.684411 C 459.372681 601.650238 432.308361 627.412388 396.77472 644.97086 L 497.573168 747.180861 L 328.738894 747.180861 L 260.697858 670.680923 C 186.182429 669.42563 128.912952 649.413868 88.884217 610.640426 C 48.860692 571.866984 28.84372 515.691331 28.84372 442.118673 Z M 360.871264 421.580833 C 360.871264 390.33394 352.823847 365.514562 336.729015 347.117491 C 320.743564 328.725629 297.538878 319.527093 267.125374 319.527093 C 236.717079 319.527093 213.564479 328.725629 197.683203 347.117491 C 181.900891 365.514562 174.009735 390.33394 174.009735 421.580833 L 174.009735 462.656513 C 174.009735 493.903407 181.900891 518.722785 197.683203 537.119855 C 213.564479 555.511718 236.717079 564.710253 267.125374 564.710253 C 297.538878 564.710253 320.743564 555.511718 336.729015 537.119855 C 352.823847 518.722785 360.871264 493.903407 360.871264 462.656513 Z M 832.152966 334.262459 L 832.152966 662.998115 L 690.284048 662.998115 L 690.284048 334.262459 L 545.118033 334.262459 L 545.118033 221.234023 L 976.693939 221.234023 L 976.693939 334.262459 Z M 1157.101908 316.235205 C 1202.459126 316.235205 1240.86796 325.12122 1272.323201 342.88804 C 1303.78365 360.65486 1319.513875 388.135875 1319.513875 425.341503 L 1200.682965 425.341503 C 1200.682965 413.012549 1195.146134 404.282795 1184.067264 399.162659 C 1176.332368 394.881121 1166.717138 392.735143 1155.221573 392.735143 C 1124.391374 392.735143 1108.973671 400.001257 1108.973671 414.528275 C 1108.973671 422.679866 1114.307363 428.47713 1124.96433 431.930488 C 1135.626505 435.274463 1153.184978 438.878872 1177.639748 442.743715 C 1207.631349 447.030462 1232.664283 452.098511 1252.728132 457.953072 C 1272.901365 463.69825 1290.459837 473.943731 1305.403551 488.679097 C 1320.347264 503.414463 1327.821726 524.051268 1327.821726 550.599929 C 1327.821726 593.868464 1311.674806 624.698663 1279.380967 643.090526 C 1247.087128 661.482388 1204.813451 670.680923 1152.554727 670.680923 C 1122.563126 670.680923 1094.290391 666.503559 1067.746939 658.138413 C 1041.307661 649.778475 1019.722875 636.871357 1003.003001 619.417058 C 986.283126 601.863794 977.923188 579.549793 977.923188 552.480264 L 1096.74889 552.480264 L 1096.74889 555.14711 C 1097.165585 569.674129 1103.228493 579.862314 1114.932405 585.716874 C 1126.740491 591.462053 1139.283001 594.337246 1152.554727 594.337246 C 1188.088368 594.337246 1205.855188 585.977309 1205.855188 569.252225 C 1205.855188 560.683941 1200.26627 554.464772 1189.083226 550.599929 C 1178.004356 546.729877 1159.820841 542.656686 1134.527473 538.369939 C 1104.223351 533.249803 1079.294591 527.712973 1059.75161 521.754238 C 1040.312802 515.795504 1023.280406 505.659406 1008.644005 491.340734 C 994.122195 476.917889 986.856081 456.854039 986.856081 431.143977 C 986.856081 389.651602 1002.586306 360.128783 1034.041547 342.57031 C 1065.60617 325.011837 1106.624554 316.235205 1157.101908 316.235205 Z M 1157.101908 316.235205 " stroke="#0d0d0e" stroke-width="8.829123" stroke-opacity="1" stroke-miterlimit="4"/><g fill="#000000" fill-opacity="1"><g transform="translate(370.282728, 868.071726)"><g><path d="M 21.671875 -165.65625 C 21.671875 -221.832031 37.160156 -264.445312 68.140625 -293.5 C 99.117188 -322.550781 143.179688 -337.078125 200.328125 -337.078125 C 257.460938 -337.078125 301.597656 -322.46875 332.734375 -293.25 C 363.878906 -264.039062 379.453125 -221.507812 379.453125 -165.65625 C 379.453125 -128.414062 372.46875 -97.035156 358.5 -71.515625 C 344.539062 -45.992188 324.238281 -26.648438 297.59375 -13.484375 L 373.203125 63.078125 L 246.546875 63.078125 L 195.515625 5.78125 C 139.648438 4.8125 96.707031 -10.195312 66.6875 -39.25 C 36.675781 -68.300781 21.671875 -110.4375 21.671875 -165.65625 Z M 270.625 -181.0625 C 270.625 -204.5 264.601562 -223.117188 252.5625 -236.921875 C 240.53125 -250.722656 223.117188 -257.625 200.328125 -257.625 C 177.535156 -257.625 160.195312 -250.722656 148.3125 -236.921875 C 136.4375 -223.117188 130.5 -204.5 130.5 -181.0625 L 130.5 -150.25 C 130.5 -126.8125 136.4375 -108.1875 148.3125 -94.375 C 160.195312 -80.570312 177.535156 -73.671875 200.328125 -73.671875 C 223.117188 -73.671875 240.53125 -80.570312 252.5625 -94.375 C 264.601562 -108.1875 270.625 -126.8125 270.625 -150.25 Z M 270.625 -181.0625 "/></g></g></g><g fill="#000000" fill-opacity="1"><g transform="translate(768.042439, 868.071726)"><g><path d="M 226.328125 -246.546875 L 226.328125 0 L 119.90625 0 L 119.90625 -246.546875 L 11.078125 -246.546875 L 11.078125 -331.296875 L 334.671875 -331.296875 L 334.671875 -246.546875 Z M 226.328125 -246.546875 "/></g></g></g><g fill="#000000" fill-opacity="1"><g transform="translate(1088.272681, 868.071726)"><g><path d="M 149.765625 -260.03125 C 183.796875 -260.03125 212.609375 -253.367188 236.203125 -240.046875 C 259.796875 -226.722656 271.59375 -206.097656 271.59375 -178.171875 L 182.5 -178.171875 C 182.5 -187.484375 178.328125 -194.066406 169.984375 -197.921875 C 164.203125 -201.128906 156.976562 -202.734375 148.3125 -202.734375 C 125.195312 -202.734375 113.640625 -197.273438 113.640625 -186.359375 C 113.640625 -180.253906 117.648438 -175.914062 125.671875 -173.34375 C 133.703125 -170.78125 146.867188 -168.054688 165.171875 -165.171875 C 187.640625 -161.960938 206.414062 -158.191406 221.5 -153.859375 C 236.59375 -149.523438 249.757812 -141.816406 261 -130.734375 C 272.238281 -119.660156 277.859375 -104.171875 277.859375 -84.265625 C 277.859375 -51.847656 265.738281 -28.734375 241.5 -14.921875 C 217.257812 -1.117188 185.554688 5.78125 146.390625 5.78125 C 123.921875 5.78125 102.734375 2.648438 82.828125 -3.609375 C 62.921875 -9.867188 46.707031 -19.578125 34.1875 -32.734375 C 21.664062 -45.898438 15.40625 -62.597656 15.40625 -82.828125 L 104.5 -82.828125 L 104.5 -80.90625 C 104.820312 -69.988281 109.394531 -62.363281 118.21875 -58.03125 C 127.050781 -53.695312 136.441406 -51.53125 146.390625 -51.53125 C 173.035156 -51.53125 186.359375 -57.789062 186.359375 -70.3125 C 186.359375 -76.726562 182.179688 -81.378906 173.828125 -84.265625 C 165.484375 -87.160156 151.84375 -90.210938 132.90625 -93.421875 C 110.113281 -97.273438 91.410156 -101.445312 76.796875 -105.9375 C 62.191406 -110.4375 49.429688 -118.0625 38.515625 -128.8125 C 27.609375 -139.570312 22.15625 -154.582031 22.15625 -173.84375 C 22.15625 -204.976562 33.953125 -227.125 57.546875 -240.28125 C 81.140625 -253.445312 111.878906 -260.03125 149.765625 -260.03125 Z M 149.765625 -260.03125 "/></g></g></g></svg>