<svg xmlns="http://www.w3.org/2000/svg" xmlns:xlink="http://www.w3.org/1999/xlink" width="2380" zoomAndPan="magnify" viewBox="0 0 1784.88 1784.99993" height="2380" preserveAspectRatio="xMidYMid meet" version="1.0"><defs><g/><clipPath id="2a8c31cf26"><path d="M 240.207031 103.445312 L 1469.375 103.445312 L 1469.375 1332.613281 L 240.207031 1332.613281 Z M 240.207031 103.445312 " clip-rule="nonzero"/></clipPath></defs><g clip-path="url(#2a8c31cf26)"><path fill="#98eaed" d="M 854.957031 103.445312 C 514.796875 103.445312 240.207031 378.03125 240.207031 718.191406 C 240.207031 1058.351562 514.796875 1332.941406 854.957031 1332.941406 C 1195.117188 1332.941406 1469.703125 1058.351562 1469.703125 718.191406 C 1469.703125 378.03125 1195.117188 103.445312 854.957031 103.445312 Z M 854.957031 1278.296875 C 546.214844 1278.296875 294.851562 1026.933594 294.851562 718.191406 C 294.851562 409.453125 546.214844 158.089844 854.957031 158.089844 C 1163.695312 158.089844 1415.058594 409.453125 1415.058594 718.191406 C 1415.058594 1026.933594 1163.695312 1278.296875 854.957031 1278.296875 Z M 854.957031 1278.296875 " fill-opacity="1" fill-rule="nonzero"/></g><path stroke-linecap="butt" transform="matrix(0.74995, 0, 0, 0.74995, 370.282728, 370.855176)" fill="none" stroke-linejoin="miter" d="M 28.84372 442.118673 C 28.84372 367.186549 49.485734 310.380645 90.764552 271.716585 C 132.152753 232.943144 190.937957 213.556423 267.125374 213.556423 C 343.317999 213.556423 402.155291 233.047318 443.647665 272.029106 C 485.239005 310.906722 506.037279 367.603244 506.037279 442.118673 C 506.037279 491.762638 496.682483 533.614411 477.9781 567.684411 C 459.372681 601.650238 432.308361 627.412388 396.77472 644.97086 L 497.573168 747.180861 L 328.738894 747.180861 L 260.697858 670.680923 C 186.182429 669.42563 128.912952 649.413868 88.884217 610.640426 C 48.860692 571.866984 28.84372 515.691331 28.84372 442.118673 Z M 360.871264 421.580833 C 360.871264 390.33394 352.823847 365.514562 336.729015 347.117491 C 320.743564 328.725629 297.538878 319.527093 267.125374 319.527093 C 236.717079 319.527093 213.564479 328.725629 197.683203 347.117491 C 181.900891 365.514562 174.009735 390.33394 174.009735 421.580833 L 174.009735 462.656513 C 174.009735 493.903407 181.900891 518.722785 197.683203 537.119855 C 213.564479 555.511718 236.717079 564.710253 267.125374 564.710253 C 297.538878 564.710253 320.743564 555.511718 336.729015 537.119855 C 352.823847 518.722785 360.871264 493.903407 360.871264 462.656513 Z M 360.871264 421.580833 " stroke="#98eaed" stroke-width="36.921783" stroke-opacity="1" stroke-miterlimit="4"/><path stroke-linecap="butt" transform="matrix(0.74995, 0, 0, 0.74995, 370.282728, 370.855176)" fill="none" stroke-linejoin="miter" d="M 832.163383 334.262459 L 832.163383 662.998115 L 690.289256 662.998115 L 690.289256 334.262459 L 545.12845 334.262459 L 545.12845 221.234023 L 976.699148 221.234023 L 976.699148 334.262459 Z M 832.163383 334.262459 " stroke="#98eaed" stroke-width="36.921783" stroke-opacity="1" stroke-miterlimit="4"/><path stroke-linecap="butt" transform="matrix(0.74995, 0, 0, 0.74995, 370.282728, 370.855176)" fill="none" stroke-linejoin="miter" d="M 1157.122743 316.235205 C 1202.479961 316.235205 1240.888794 325.12122 1272.349244 342.88804 C 1303.804485 360.65486 1319.53471 388.135875 1319.53471 425.341503 L 1200.7038 425.341503 C 1200.7038 413.012549 1195.166969 404.282795 1184.088099 399.162659 C 1176.353203 394.881121 1166.737973 392.735143 1155.242408 392.735143 C 1124.412209 392.735143 1108.999714 400.001257 1108.999714 414.528275 C 1108.999714 422.679866 1114.328198 428.47713 1124.990373 431.930488 C 1135.64734 435.274463 1153.205813 438.878872 1177.660583 442.743715 C 1207.657392 447.030462 1232.685118 452.098511 1252.754176 457.953072 C 1272.922199 463.69825 1290.480672 473.943731 1305.424386 488.679097 C 1320.368099 503.414463 1327.84256 524.051268 1327.84256 550.599929 C 1327.84256 593.868464 1311.695641 624.698663 1279.401802 643.090526 C 1247.107963 661.482388 1204.834286 670.680923 1152.580771 670.680923 C 1122.583961 670.680923 1094.316435 666.503559 1067.767774 658.138413 C 1041.328495 649.778475 1019.748919 636.871357 1003.023835 619.417058 C 986.303961 601.863794 977.944023 579.549793 977.944023 552.480264 L 1096.769725 552.480264 L 1096.769725 555.14711 C 1097.186419 569.674129 1103.249327 579.862314 1114.95324 585.716874 C 1126.766534 591.462053 1139.303836 594.337246 1152.580771 594.337246 C 1188.114411 594.337246 1205.881231 585.977309 1205.881231 569.252225 C 1205.881231 560.683941 1200.287105 554.464772 1189.104061 550.599929 C 1178.025191 546.729877 1159.841676 542.656686 1134.548308 538.369939 C 1104.244186 533.249803 1079.315426 527.712973 1059.772444 521.754238 C 1040.333637 515.795504 1023.301241 505.659406 1008.670048 491.340734 C 994.14303 476.917889 986.876916 456.854039 986.876916 431.143977 C 986.876916 389.651602 1002.607141 360.128783 1034.062381 342.57031 C 1065.627005 325.011837 1106.645389 316.235205 1157.122743 316.235205 Z M 1157.122743 316.235205 " stroke="#98eaed" stroke-width="36.921783" stroke-opacity="1" stroke-miterlimit="4"/><g fill="#98eaed" fill-opacity="1"><g transform="translate(370.282728, 868.071726)"><g><path d="M 21.671875 -165.65625 C 21.671875 -221.832031 37.160156 -264.445312 68.140625 -293.5 C 99.117188 -322.550781 143.179688 -337.078125 200.328125 -337.078125 C 257.460938 -337.078125 301.597656 -322.46875 332.734375 -293.25 C 363.878906 -264.039062 379.453125 -221.507812 379.453125 -165.65625 C 379.453125 -128.414062 372.46875 -97.035156 358.5 -71.515625 C 344.539062 -45.992188 324.238281 -26.648438 297.59375 -13.484375 L 373.203125 63.078125 L 246.546875 63.078125 L 195.515625 5.78125 C 139.648438 4.8125 96.707031 -10.195312 66.6875 -39.25 C 36.675781 -68.300781 21.671875 -110.4375 21.671875 -165.65625 Z M 270.625 -181.0625 C 270.625 -204.5 264.601562 -223.117188 252.5625 -236.921875 C 240.53125 -250.722656 223.117188 -257.625 200.328125 -257.625 C 177.535156 -257.625 160.195312 -250.722656 148.3125 -236.921875 C 136.4375 -223.117188 130.5 -204.5 130.5 -181.0625 L 130.5 -150.25 C 130.5 -126.8125 136.4375 -108.1875 148.3125 -94.375 C 160.195312 -80.570312 177.535156 -73.671875 200.328125 -73.671875 C 223.117188 -73.671875 240.53125 -80.570312 252.5625 -94.375 C 264.601562 -108.1875 270.625 -126.8125 270.625 -150.25 Z M 270.625 -181.0625 "/></g></g></g><g fill="#ffffff" fill-opacity="1"><g transform="translate(768.048941, 868.071726)"><g><path d="M 226.328125 -246.546875 L 226.328125 0 L 119.90625 0 L 119.90625 -246.546875 L 11.078125 -246.546875 L 11.078125 -331.296875 L 334.671875 -331.296875 L 334.671875 -246.546875 Z M 226.328125 -246.546875 "/></g></g></g><g fill="#edc8cf" fill-opacity="1"><g transform="translate(1088.289113, 868.071726)"><g><path d="M 149.765625 -260.03125 C 183.796875 -260.03125 212.609375 -253.367188 236.203125 -240.046875 C 259.796875 -226.722656 271.59375 -206.097656 271.59375 -178.171875 L 182.5 -178.171875 C 182.5 -187.484375 178.328125 -194.066406 169.984375 -197.921875 C 164.203125 -201.128906 156.976562 -202.734375 148.3125 -202.734375 C 125.195312 -202.734375 113.640625 -197.273438 113.640625 -186.359375 C 113.640625 -180.253906 117.648438 -175.914062 125.671875 -173.34375 C 133.703125 -170.78125 146.867188 -168.054688 165.171875 -165.171875 C 187.640625 -161.960938 206.414062 -158.191406 221.5 -153.859375 C 236.59375 -149.523438 249.757812 -141.816406 261 -130.734375 C 272.238281 -119.660156 277.859375 -104.171875 277.859375 -84.265625 C 277.859375 -51.847656 265.738281 -28.734375 241.5 -14.921875 C 217.257812 -1.117188 185.554688 5.78125 146.390625 5.78125 C 123.921875 5.78125 102.734375 2.648438 82.828125 -3.609375 C 62.921875 -9.867188 46.707031 -19.578125 34.1875 -32.734375 C 21.664062 -45.898438 15.40625 -62.597656 15.40625 -82.828125 L 104.5 -82.828125 L 104.5 -80.90625 C 104.820312 -69.988281 109.394531 -62.363281 118.21875 -58.03125 C 127.050781 -53.695312 136.441406 -51.53125 146.390625 -51.53125 C 173.035156 -51.53125 186.359375 -57.789062 186.359375 -70.3125 C 186.359375 -76.726562 182.179688 -81.378906 173.828125 -84.265625 C 165.484375 -87.160156 151.84375 -90.210938 132.90625 -93.421875 C 110.113281 -97.273438 91.410156 -101.445312 76.796875 -105.9375 C 62.191406 -110.4375 49.429688 -118.0625 38.515625 -128.8125 C 27.609375 -139.570312 22.15625 -154.582031 22.15625 -173.84375 C 22.15625 -204.976562 33.953125 -227.125 57.546875 -240.28125 C 81.140625 -253.445312 111.878906 -260.03125 149.765625 -260.03125 Z M 149.765625 -260.03125 "/></g></g></g><path stroke-linecap="butt" transform="matrix(1.291579, 0, 0, 1.291579, 402.333695, 1422.078685)" fill="none" stroke-linejoin="miter" d="M 59.924165 25.198863 C 63.828665 25.198863 66.816771 26.75038 68.882436 29.847365 L 69.792781 25.837011 L 78.424417 25.837011 L 78.424417 64.506984 L 67.814823 64.506984 L 67.814823 51.435529 C 65.824768 53.570755 63.196565 54.638368 59.924165 54.638368 C 56.122495 54.638368 53.188827 53.404413 51.123162 50.939528 C 49.057497 48.465569 48.023153 44.812094 48.023153 39.976079 C 48.023153 35.106796 49.057497 31.429126 51.123162 28.937021 C 53.188827 26.444916 56.122495 25.198863 59.924165 25.198863 Z M 63.229834 33.038107 C 60.17519 33.038107 58.647868 34.852746 58.647868 38.479002 L 58.647868 41.306815 C 58.647868 44.969363 60.17519 46.799125 63.229834 46.799125 C 64.793448 46.799125 65.963891 46.239611 66.74721 45.120583 C 67.527505 44.001555 67.917653 42.549843 67.917653 40.771496 L 67.917653 39.01432 C 67.917653 37.235973 67.527505 35.793335 66.74721 34.692453 C 65.963891 33.588547 64.793448 33.038107 63.229834 33.038107 Z M 105.311329 54.00022 L 104.606644 49.729768 C 103.505762 51.25709 102.054051 52.460801 100.257557 53.334852 C 98.470137 54.202855 96.579887 54.638368 94.580759 54.638368 C 91.308359 54.638368 88.858595 53.731048 87.22542 51.916409 C 85.595268 50.101769 84.77868 47.488688 84.77868 44.08019 L 84.77868 25.837011 L 95.388274 25.837011 L 95.388274 42.803893 C 95.388274 44.010628 95.696763 44.978436 96.31374 45.707316 C 96.939791 46.436197 97.819891 46.799125 98.957065 46.799125 C 100.275704 46.799125 101.343317 46.375709 102.159905 45.522828 C 102.976492 44.663899 103.384786 43.614432 103.384786 42.374428 L 103.384786 25.837011 L 113.99438 25.837011 L 113.99438 54.00022 Z M 134.36976 25.198863 C 138.667431 25.198863 142.163637 25.91867 144.864426 27.361309 C 147.571264 28.800923 148.926195 31.141808 148.926195 34.377916 L 148.926195 45.353462 C 148.926195 45.961366 149.071366 46.460392 149.35566 46.85054 C 149.642977 47.243711 150.069418 47.437273 150.631956 47.437273 L 152.558499 47.437273 L 152.558499 53.570755 C 152.446596 53.640316 152.168351 53.758268 151.726789 53.921586 C 151.282202 54.078854 150.650103 54.233099 149.824441 54.390368 C 149.007854 54.55671 148.07029 54.638368 147.01175 54.638368 C 144.946085 54.638368 143.246372 54.32988 141.909588 53.712902 C 140.581876 53.089876 139.665483 52.224898 139.160409 51.124016 C 137.817575 52.191629 136.305375 53.04451 134.629858 53.688707 C 132.963414 54.320806 131.009652 54.638368 128.771596 54.638368 C 122.157234 54.638368 118.851566 52.007141 118.851566 46.74771 C 118.851566 44.013653 119.589519 41.926817 121.062402 40.484178 C 122.538309 39.044564 124.661437 38.05861 127.431787 37.52934 C 130.208186 36.990997 133.837465 36.721825 138.316601 36.721825 L 138.316601 35.330602 C 138.316601 34.226696 137.932502 33.394986 137.170354 32.829423 C 136.405181 32.257812 135.419226 31.970494 134.215515 31.970494 C 133.11161 31.970494 132.155899 32.164055 131.348385 32.557227 C 130.549943 32.947375 130.150722 33.570401 130.150722 34.432355 L 130.150722 34.638014 L 119.695373 34.638014 C 119.662105 34.465623 119.643958 34.217623 119.643958 33.897036 C 119.643958 31.23254 120.917231 29.118485 123.460751 27.55487 C 126.001246 25.985207 129.639599 25.198863 134.36976 25.198863 Z M 138.316601 41.73628 C 135.295226 41.73628 133.063219 42.065939 131.623605 42.725259 C 130.180966 43.375504 129.461159 44.25258 129.461159 45.353462 C 129.461159 47.134833 130.673943 48.024007 133.093463 48.024007 C 134.475614 48.024007 135.688398 47.652005 136.740889 46.904979 C 137.790356 46.157952 138.316601 45.232486 138.316601 44.131604 Z M 156.387388 54.00022 L 156.387388 15.330247 L 167.00908 15.330247 L 167.00908 54.00022 Z M 174.143638 22.531343 L 174.143638 15.330247 L 184.768354 15.330247 L 184.768354 22.531343 Z M 174.143638 54.00022 L 174.143638 25.837011 L 184.768354 25.837011 L 184.768354 54.00022 Z M 210.312432 25.837011 L 210.312432 33.038107 L 204.336219 33.038107 L 204.336219 43.765652 C 204.336219 45.041949 204.550951 45.976488 204.974367 46.566246 C 205.400808 47.146931 206.181103 47.437273 207.318277 47.437273 L 210.312432 47.437273 L 210.312432 53.673585 C 209.453503 53.960903 208.346573 54.190757 206.991642 54.363148 C 205.648808 54.547636 204.475341 54.638368 203.477289 54.638368 C 200.353085 54.638368 197.942638 54.069781 196.251999 52.932607 C 194.567408 51.795433 193.726625 49.859817 193.726625 47.12576 L 193.726625 33.038107 L 189.779784 33.038107 L 189.779784 25.837011 L 194.140968 25.837011 L 196.44556 17.308205 L 204.336219 17.308205 L 204.336219 25.837011 Z M 234.57719 53.141291 C 233.119429 57.091156 231.328985 60.085312 229.211905 62.123757 C 227.094826 64.1743 224.133938 65.196547 220.332268 65.196547 C 218.024651 65.196547 215.980157 64.875961 214.198786 64.234788 L 214.198786 57.892622 L 218.472262 57.892622 C 221.136758 57.892622 222.715495 56.595155 223.211496 54.00022 L 212.012145 25.837011 L 223.432278 25.837011 L 228.80966 44.561069 L 229.18771 44.561069 L 234.147725 25.837011 L 244.603074 25.837011 Z M 284.331587 25.837011 L 284.331587 33.038107 L 278.355373 33.038107 L 278.355373 43.765652 C 278.355373 45.041949 278.570106 45.976488 278.993522 46.566246 C 279.419962 47.146931 280.200257 47.437273 281.337431 47.437273 L 284.331587 47.437273 L 284.331587 53.673585 C 283.472658 53.960903 282.365727 54.190757 281.010796 54.363148 C 279.667963 54.547636 278.494496 54.638368 277.496444 54.638368 C 274.372239 54.638368 271.964817 54.069781 270.271153 52.932607 C 268.586563 51.795433 267.74578 49.859817 267.74578 47.12576 L 267.74578 33.038107 L 263.798938 33.038107 L 263.798938 25.837011 L 268.160123 25.837011 L 270.464715 17.308205 L 278.355373 17.308205 L 278.355373 25.837011 Z M 306.355264 25.147448 C 307.171852 25.147448 307.897708 25.247254 308.529808 25.446864 C 309.174005 25.637401 309.494591 25.752328 309.494591 25.785597 L 309.494591 34.692453 L 306.083069 34.692453 C 303.878281 34.692453 302.284423 35.26104 301.304517 36.398215 C 300.333685 37.535389 299.846757 39.223004 299.846757 41.46106 L 299.846757 54.00022 L 289.234139 54.00022 L 289.234139 25.837011 L 297.920214 25.837011 L 298.621875 30.107464 C 299.256999 28.477312 300.267148 27.243357 301.655348 26.411647 C 303.043547 25.56784 304.61321 25.147448 306.355264 25.147448 Z M 327.737769 25.198863 C 332.035441 25.198863 335.531647 25.91867 338.232436 27.361309 C 340.939273 28.800923 342.294204 31.141808 342.294204 34.377916 L 342.294204 45.353462 C 342.294204 45.961366 342.436351 46.460392 342.723669 46.85054 C 343.010987 47.243711 343.434403 47.437273 343.999966 47.437273 L 345.926508 47.437273 L 345.926508 53.570755 C 345.814605 53.640316 345.536361 53.758268 345.094798 53.921586 C 344.650212 54.078854 344.018112 54.233099 343.192451 54.390368 C 342.375863 54.55671 341.438299 54.638368 340.379759 54.638368 C 338.314095 54.638368 336.614382 54.32988 335.277597 53.712902 C 333.946862 53.089876 333.033493 52.224898 332.528418 51.124016 C 331.18256 52.191629 329.673385 53.04451 327.997868 53.688707 C 326.331424 54.320806 324.377661 54.638368 322.139606 54.638368 C 315.525244 54.638368 312.216551 52.007141 312.216551 46.74771 C 312.216551 44.013653 312.954504 41.926817 314.430411 40.484178 C 315.906318 39.044564 318.029447 38.05861 320.796772 37.52934 C 323.576196 36.990997 327.202451 36.721825 331.681586 36.721825 L 331.681586 35.330602 C 331.681586 34.226696 331.300512 33.394986 330.538363 32.829423 C 329.77319 32.257812 328.787236 31.970494 327.580501 31.970494 C 326.479619 31.970494 325.523909 32.164055 324.716394 32.557227 C 323.917953 32.947375 323.518732 33.570401 323.518732 34.432355 L 323.518732 34.638014 L 313.063383 34.638014 C 313.030114 34.465623 313.011968 34.217623 313.011968 33.897036 C 313.011968 31.23254 314.28524 29.118485 316.825736 27.55487 C 319.369256 25.985207 323.007608 25.198863 327.737769 25.198863 Z M 331.681586 41.73628 C 328.663236 41.73628 326.431229 42.065939 324.991615 42.725259 C 323.548976 43.375504 322.829169 44.25258 322.829169 45.353462 C 322.829169 47.134833 324.038929 48.024007 326.461473 48.024007 C 327.840599 48.024007 329.056408 47.652005 330.108899 46.904979 C 331.158365 46.157952 331.681586 45.232486 331.681586 44.131604 Z M 368.803066 25.198863 C 372.075467 25.198863 374.52523 26.106183 376.158406 27.920823 C 377.791582 29.735462 378.605145 32.348544 378.605145 35.760066 L 378.605145 54.00022 L 367.995552 54.00022 L 367.995552 37.036363 C 367.995552 35.829628 367.681014 34.86182 367.057988 34.132939 C 366.44101 33.401035 365.563934 33.038107 364.42676 33.038107 C 363.108122 33.038107 362.040509 33.467572 361.223921 34.326501 C 360.407333 35.176357 359.999039 36.222799 359.999039 37.465828 L 359.999039 54.00022 L 349.389446 54.00022 L 349.389446 25.837011 L 358.072497 25.837011 L 358.777182 30.107464 C 359.878063 28.616435 361.323726 27.424821 363.111146 26.541697 C 364.90764 25.646474 366.806963 25.198863 368.803066 25.198863 Z M 398.342377 25.198863 C 402.110779 25.198863 405.30152 25.936817 407.914601 27.412724 C 410.524658 28.888631 411.831199 31.172052 411.831199 34.262989 L 401.962583 34.262989 C 401.962583 33.237717 401.502874 32.511861 400.583457 32.088445 C 399.93926 31.731566 399.140818 31.553127 398.188132 31.553127 C 395.626466 31.553127 394.347145 32.158007 394.347145 33.364742 C 394.347145 34.039183 394.788707 34.523087 395.674856 34.807381 C 396.561005 35.085625 398.018766 35.385041 400.048138 35.705627 C 402.540243 36.062506 404.618006 36.482898 406.28445 36.969826 C 407.959967 37.447681 409.420752 38.297538 410.660756 39.522419 C 411.90076 40.744277 412.523786 42.459111 412.523786 44.663899 C 412.523786 48.256885 411.180953 50.818552 408.49831 52.345873 C 405.815668 53.873195 402.307365 54.638368 397.967351 54.638368 C 395.475246 54.638368 393.128312 54.290562 390.923525 53.594951 C 388.724786 52.902363 386.934342 51.828701 385.546142 50.380014 C 384.154918 48.922253 383.462331 47.068296 383.462331 44.821167 L 393.330947 44.821167 L 393.330947 45.041949 C 393.364215 46.248684 393.86929 47.095516 394.840122 47.582444 C 395.823052 48.057275 396.863445 48.296202 397.967351 48.296202 C 400.916141 48.296202 402.392048 47.603615 402.392048 46.215416 C 402.392048 45.501657 401.929315 44.984485 401.000824 44.663899 C 400.078382 44.343312 398.569207 44.00458 396.467249 43.6477 C 393.950949 43.224284 391.882259 42.764576 390.258157 42.268574 C 388.643127 41.775597 387.227708 40.93179 386.014924 39.743201 C 384.808189 38.545538 384.203309 36.879094 384.203309 34.743868 C 384.203309 31.296053 385.509849 28.846289 388.122931 27.388528 C 390.745085 25.927743 394.150559 25.198863 398.342377 25.198863 Z M 417.907217 22.531343 L 417.907217 15.330247 L 428.531933 15.330247 L 428.531933 22.531343 Z M 417.907217 54.00022 L 417.907217 25.837011 L 428.531933 25.837011 L 428.531933 54.00022 Z M 454.076012 25.837011 L 454.076012 33.038107 L 448.099798 33.038107 L 448.099798 43.765652 C 448.099798 45.041949 448.311506 45.976488 448.737946 46.566246 C 449.161362 47.146931 449.944682 47.437273 451.081856 47.437273 L 454.076012 47.437273 L 454.076012 53.673585 C 453.217082 53.960903 452.110152 54.190757 450.755221 54.363148 C 449.409363 54.547636 448.238921 54.638368 447.240869 54.638368 C 444.116664 54.638368 441.706218 54.069781 440.012554 52.932607 C 438.330988 51.795433 437.48718 49.859817 437.48718 47.12576 L 437.48718 33.038107 L 433.543363 33.038107 L 433.543363 25.837011 L 437.904547 25.837011 L 440.20914 17.308205 L 448.099798 17.308205 L 448.099798 25.837011 Z M 490.120805 25.198863 C 493.889207 25.198863 497.076924 25.936817 499.690006 27.412724 C 502.303087 28.888631 503.609627 31.172052 503.609627 34.262989 L 493.741012 34.262989 C 493.741012 33.237717 493.281303 32.511861 492.361886 32.088445 C 491.717688 31.731566 490.919247 31.553127 489.963537 31.553127 C 487.404895 31.553127 486.122549 32.158007 486.122549 33.364742 C 486.122549 34.039183 486.567136 34.523087 487.453285 34.807381 C 488.33641 35.085625 489.79417 35.385041 491.826567 35.705627 C 494.318672 36.062506 496.396435 36.482898 498.062879 36.969826 C 499.738396 37.447681 501.196157 38.297538 502.439185 39.522419 C 503.679189 40.744277 504.299191 42.459111 504.299191 44.663899 C 504.299191 48.256885 502.959382 50.818552 500.276739 52.345873 C 497.594097 53.873195 494.082769 54.638368 489.742756 54.638368 C 487.253675 54.638368 484.903716 54.290562 482.698929 53.594951 C 480.503215 52.902363 478.709746 51.828701 477.321547 50.380014 C 475.933347 48.922253 475.237735 47.068296 475.237735 44.821167 L 485.109375 44.821167 L 485.109375 45.041949 C 485.142644 46.248684 485.647719 47.095516 486.618551 47.582444 C 487.598456 48.057275 488.641874 48.296202 489.742756 48.296202 C 492.69457 48.296202 494.170476 47.603615 494.170476 46.215416 C 494.170476 45.501657 493.704719 44.984485 492.776228 44.663899 C 491.856811 44.343312 490.347635 44.00458 488.245678 43.6477 C 485.729377 43.224284 483.657664 42.764576 482.036585 42.268574 C 480.421556 41.775597 479.006137 40.93179 477.790329 39.743201 C 476.583593 38.545538 475.981738 36.879094 475.981738 34.743868 C 475.981738 31.296053 477.288278 28.846289 479.901359 27.388528 C 482.520489 25.927743 485.928988 25.198863 490.120805 25.198863 Z M 523.876129 25.198863 C 529.03273 25.198863 532.967474 26.411647 535.686409 28.831167 C 538.411393 31.244638 539.772373 34.943478 539.772373 39.924665 L 539.772373 41.73628 L 518.656015 41.73628 C 518.656015 43.756579 519.106651 45.283901 520.007922 46.318245 C 520.912217 47.35259 522.345783 47.866738 524.305594 47.866738 C 526.083941 47.866738 527.390481 47.494737 528.225215 46.74771 C 529.056925 46.000683 529.474292 45.00868 529.474292 43.765652 L 539.772373 43.765652 C 539.772373 47.177175 538.474905 49.841671 535.879971 51.75914 C 533.285036 53.679634 529.495463 54.638368 524.514277 54.638368 C 519.288115 54.638368 515.235419 53.42256 512.353167 50.990942 C 509.470914 48.553276 508.0313 44.863509 508.0313 39.924665 C 508.0313 35.091674 509.437645 31.429126 512.250337 28.937021 C 515.063029 26.444916 518.937284 25.198863 523.876129 25.198863 Z M 524.305594 31.970494 C 520.963632 31.970494 519.097578 33.555279 518.70743 36.721825 L 529.044828 36.721825 C 529.044828 35.264065 528.627461 34.108744 527.795751 33.258888 C 526.961016 32.399958 525.799647 31.970494 524.305594 31.970494 Z M 562.010783 25.147448 C 562.827371 25.147448 563.553227 25.247254 564.185326 25.446864 C 564.826499 25.637401 565.150109 25.752328 565.150109 25.785597 L 565.150109 34.692453 L 561.738587 34.692453 C 559.5338 34.692453 557.939941 35.26104 556.960036 36.398215 C 555.986179 37.535389 555.502275 39.223004 555.502275 41.46106 L 555.502275 54.00022 L 544.889657 54.00022 L 544.889657 25.837011 L 553.572708 25.837011 L 554.277393 30.107464 C 554.909493 28.477312 555.922666 27.243357 557.310866 26.411647 C 558.699065 25.56784 560.265704 25.147448 562.010783 25.147448 Z M 579.119811 54.00022 L 568.458803 25.837011 L 579.875911 25.837011 L 585.04461 43.387602 L 585.42266 43.387602 L 590.591359 25.837011 L 601.046708 25.837011 L 590.264723 54.00022 Z M 604.60945 22.531343 L 604.60945 15.330247 L 615.234166 15.330247 L 615.234166 22.531343 Z M 604.60945 54.00022 L 604.60945 25.837011 L 615.234166 25.837011 L 615.234166 54.00022 Z M 636.559207 25.198863 C 641.177465 25.198863 644.918648 26.187842 647.782754 28.168823 C 650.64686 30.137708 652.077401 33.15001 652.077401 37.202705 L 641.779321 37.202705 C 641.779321 33.999866 640.040291 32.399958 636.559207 32.399958 C 633.078123 32.399958 631.339094 34.40816 631.339094 38.427587 L 631.339094 41.46106 C 631.339094 45.447218 633.147685 47.437273 636.767891 47.437273 C 640.394146 47.437273 642.208786 45.801073 642.208786 42.528673 L 652.077401 42.528673 C 652.077401 46.617661 650.64686 49.660207 647.782754 51.65631 C 644.918648 53.643341 641.177465 54.638368 636.559207 54.638368 C 631.620363 54.638368 627.743083 53.39534 624.930391 50.915333 C 622.120724 48.423227 620.714378 44.760679 620.714378 39.924665 C 620.714378 35.091674 622.120724 31.429126 624.930391 28.937021 C 627.743083 26.444916 631.620363 25.198863 636.559207 25.198863 Z M 672.12917 25.198863 C 677.285772 25.198863 681.220515 26.411647 683.936426 28.831167 C 686.664435 31.244638 688.025414 34.943478 688.025414 39.924665 L 688.025414 41.73628 L 666.906032 41.73628 C 666.906032 43.756579 667.359692 45.283901 668.260963 46.318245 C 669.165259 47.35259 670.5958 47.866738 672.558635 47.866738 C 674.336982 47.866738 675.643523 47.494737 676.478257 46.74771 C 677.309967 46.000683 677.727334 45.00868 677.727334 43.765652 L 688.025414 43.765652 C 688.025414 47.177175 686.727947 49.841671 684.133012 51.75914 C 681.538077 53.679634 677.748505 54.638368 672.767319 54.638368 C 667.541156 54.638368 663.488461 53.42256 660.606208 50.990942 C 657.723955 48.553276 656.284341 44.863509 656.284341 39.924665 C 656.284341 35.091674 657.690687 31.429126 660.500354 28.937021 C 663.313046 26.444916 667.190326 25.198863 672.12917 25.198863 Z M 672.558635 31.970494 C 669.216674 31.970494 667.350619 33.555279 666.960472 36.721825 L 677.297869 36.721825 C 677.297869 35.264065 676.880502 34.108744 676.048792 33.258888 C 675.214058 32.399958 674.049664 31.970494 672.558635 31.970494 Z M 706.525666 25.198863 C 710.294068 25.198863 713.48481 25.936817 716.094867 27.412724 C 718.707948 28.888631 720.014488 31.172052 720.014488 34.262989 L 710.145873 34.262989 C 710.145873 33.237717 709.686164 32.511861 708.766746 32.088445 C 708.122549 31.731566 707.324108 31.553127 706.371422 31.553127 C 703.809756 31.553127 702.530435 32.158007 702.530435 33.364742 C 702.530435 34.039183 702.971997 34.523087 703.858146 34.807381 C 704.741271 35.085625 706.202056 35.385041 708.231428 35.705627 C 710.723533 36.062506 712.801295 36.482898 714.46774 36.969826 C 716.143257 37.447681 717.601018 38.297538 718.844046 39.522419 C 720.08405 40.744277 720.704051 42.459111 720.704051 44.663899 C 720.704051 48.256885 719.364242 50.818552 716.6816 52.345873 C 713.998958 53.873195 710.48763 54.638368 706.147616 54.638368 C 703.658536 54.638368 701.308577 54.290562 699.10379 53.594951 C 696.908076 52.902363 695.117631 51.828701 693.726408 50.380014 C 692.338208 48.922253 691.645621 47.068296 691.645621 44.821167 L 701.514236 44.821167 L 701.514236 45.041949 C 701.547505 46.248684 702.052579 47.095516 703.023412 47.582444 C 704.006342 48.057275 705.046735 48.296202 706.147616 48.296202 C 709.09943 48.296202 710.575337 47.603615 710.575337 46.215416 C 710.575337 45.501657 710.112604 44.984485 709.181089 44.663899 C 708.261672 44.343312 706.752496 44.00458 704.650539 43.6477 C 702.134238 43.224284 700.065549 42.764576 698.441446 42.268574 C 696.826417 41.775597 695.410998 40.93179 694.195189 39.743201 C 692.991478 38.545538 692.386599 36.879094 692.386599 34.743868 C 692.386599 31.296053 693.693139 28.846289 696.30622 27.388528 C 698.928375 25.927743 702.333849 25.198863 706.525666 25.198863 Z M 706.525666 25.198863 " stroke="#98eaed" stroke-width="2.066665" stroke-opacity="1" stroke-miterlimit="4"/><path stroke-linecap="butt" transform="matrix(1.291579, 0, 0, 1.291579, 402.333695, 1422.078685)" fill="none" stroke-linejoin="miter" d="M 28.660947 88.693107 C 29.450315 88.693107 30.43022 88.792912 31.603687 88.992523 C 32.77413 89.18306 33.717743 89.403841 34.428477 89.654866 L 34.428477 95.891178 L 31.966615 95.891178 C 30.829441 95.891178 30.049146 96.108935 29.622706 96.544448 C 29.19929 96.967864 28.984557 97.69372 28.984557 98.718992 L 28.984557 99.83802 L 34.428477 99.83802 L 34.428477 107.039115 L 28.984557 107.039115 L 28.984557 128.001228 L 18.374964 128.001228 L 18.374964 107.039115 L 14.431147 107.039115 L 14.431147 99.83802 L 18.374964 99.83802 L 18.374964 98.664553 C 18.374964 95.038298 19.261113 92.467558 21.030387 90.958383 C 22.808734 89.449207 25.352254 88.693107 28.660947 88.693107 Z M 51.597993 99.199871 C 56.536837 99.199871 60.420166 100.454997 63.251004 102.962224 C 66.078818 105.472476 67.494237 109.125951 67.494237 113.925673 C 67.494237 118.725395 66.078818 122.378869 63.251004 124.889121 C 60.420166 127.387275 56.536837 128.639377 51.597993 128.639377 C 46.659148 128.639377 42.781868 127.396348 39.969177 124.913316 C 37.159509 122.424235 35.753164 118.758663 35.753164 113.925673 C 35.753164 109.089658 37.159509 105.42711 39.969177 102.935005 C 42.781868 100.445924 46.659148 99.199871 51.597993 99.199871 Z M 51.597993 106.400967 C 48.116909 106.400967 46.374855 108.409168 46.374855 112.428595 L 46.374855 115.462068 C 46.374855 119.445202 48.116909 121.438281 51.597993 121.438281 C 55.112345 121.438281 56.869521 119.445202 56.869521 115.462068 L 56.869521 112.428595 C 56.869521 108.409168 55.112345 106.400967 51.597993 106.400967 Z M 89.732647 99.148457 C 90.549235 99.148457 91.272066 99.248262 91.90719 99.447872 C 92.548363 99.638409 92.868949 99.750312 92.868949 99.786605 L 92.868949 108.690437 L 89.457426 108.690437 C 87.252639 108.690437 85.661805 109.259024 84.678875 110.396198 C 83.708043 111.533373 83.221115 113.220988 83.221115 115.462068 L 83.221115 128.001228 L 72.611521 128.001228 L 72.611521 99.83802 L 81.294572 99.83802 L 81.999257 104.108472 C 82.631357 102.475296 83.641506 101.244365 85.03273 100.409631 C 86.420929 99.568848 87.987568 99.148457 89.732647 99.148457 Z M 124.658413 99.199871 C 128.562913 99.199871 131.551019 100.748364 133.616684 103.848373 L 134.527029 99.83802 L 143.158665 99.83802 L 143.158665 138.507992 L 132.549071 138.507992 L 132.549071 125.436537 C 130.559016 127.571763 127.930813 128.639377 124.658413 128.639377 C 120.856743 128.639377 117.923075 127.405421 115.85741 124.940536 C 113.791745 122.466577 112.757401 118.813102 112.757401 113.977087 C 112.757401 109.107804 113.791745 105.42711 115.85741 102.935005 C 117.923075 100.445924 120.856743 99.199871 124.658413 99.199871 Z M 127.964081 107.039115 C 124.909438 107.039115 123.382116 108.85073 123.382116 112.48001 L 123.382116 115.304799 C 123.382116 118.967347 124.909438 120.800133 127.964081 120.800133 C 129.527696 120.800133 130.698139 120.240619 131.481458 119.121591 C 132.261753 117.999539 132.651901 116.550852 132.651901 114.772505 L 132.651901 113.015328 C 132.651901 111.233957 132.261753 109.794343 131.481458 108.690437 C 130.698139 107.589556 129.527696 107.039115 127.964081 107.039115 Z M 170.045577 128.001228 L 169.340892 123.730776 C 168.24001 125.258098 166.788299 126.458784 164.991805 127.33586 C 163.204385 128.203863 161.314135 128.639377 159.315007 128.639377 C 156.042607 128.639377 153.592843 127.732057 151.959668 125.917417 C 150.329516 124.102777 149.512928 121.489696 149.512928 118.078173 L 149.512928 99.83802 L 160.122522 99.83802 L 160.122522 116.801877 C 160.122522 118.008612 160.431011 118.97642 161.047988 119.7053 C 161.674039 120.434181 162.554139 120.800133 163.691313 120.800133 C 165.009952 120.800133 166.077565 120.373693 166.894152 119.523836 C 167.71074 118.664907 168.119034 117.61544 168.119034 116.372412 L 168.119034 99.83802 L 178.728628 99.83802 L 178.728628 128.001228 Z M 199.742156 99.199871 C 204.898757 99.199871 208.833501 100.409631 211.552436 102.832175 C 214.27742 105.245646 215.641424 108.944487 215.641424 113.925673 L 215.641424 115.734264 L 194.522042 115.734264 C 194.522042 117.757587 194.972678 119.284909 195.876973 120.319253 C 196.778244 121.350574 198.21181 121.867746 200.171621 121.867746 C 201.952992 121.867746 203.256508 121.495745 204.091243 120.748718 C 204.925977 120.001691 205.34032 119.006664 205.34032 117.76666 L 215.641424 117.76666 C 215.641424 121.178183 214.340933 123.842679 211.745998 125.760148 C 209.151063 127.677617 205.36149 128.639377 200.380304 128.639377 C 195.154142 128.639377 191.101446 127.423568 188.219194 124.991951 C 185.336941 122.554285 183.897327 118.864517 183.897327 113.925673 C 183.897327 109.089658 185.303673 105.42711 188.116364 102.935005 C 190.929056 100.445924 194.803312 99.199871 199.742156 99.199871 Z M 200.171621 105.971502 C 196.829659 105.971502 194.963605 107.553263 194.573457 110.722834 L 204.910855 110.722834 C 204.910855 109.265073 204.493488 108.109752 203.661778 107.259896 C 202.827044 106.400967 201.665674 105.971502 200.171621 105.971502 Z M 235.312119 99.199871 C 240.46872 99.199871 244.403464 100.409631 247.122399 102.832175 C 249.847383 105.245646 251.208363 108.944487 251.208363 113.925673 L 251.208363 115.734264 L 230.092005 115.734264 C 230.092005 117.757587 230.542641 119.284909 231.443912 120.319253 C 232.348208 121.350574 233.781773 121.867746 235.741584 121.867746 C 237.519931 121.867746 238.826471 121.495745 239.661206 120.748718 C 240.492916 120.001691 240.910283 119.006664 240.910283 117.76666 L 251.208363 117.76666 C 251.208363 121.178183 249.910896 123.842679 247.315961 125.760148 C 244.721026 127.677617 240.931453 128.639377 235.950267 128.639377 C 230.724105 128.639377 226.67141 127.423568 223.789157 124.991951 C 220.906904 122.554285 219.46729 118.864517 219.46729 113.925673 C 219.46729 109.089658 220.873636 105.42711 223.686327 102.935005 C 226.499019 100.445924 230.373275 99.199871 235.312119 99.199871 Z M 235.741584 105.971502 C 232.399622 105.971502 230.533568 107.553263 230.14342 110.722834 L 240.480818 110.722834 C 240.480818 109.265073 240.063451 108.109752 239.231741 107.259896 C 238.397007 106.400967 237.235637 105.971502 235.741584 105.971502 Z M 273.446773 99.148457 C 274.263361 99.148457 274.989217 99.248262 275.621316 99.447872 C 276.262489 99.638409 276.5861 99.750312 276.5861 99.786605 L 276.5861 108.690437 L 273.174577 108.690437 C 270.96979 108.690437 269.375931 109.259024 268.396026 110.396198 C 267.422169 111.533373 266.938265 113.220988 266.938265 115.462068 L 266.938265 128.001228 L 256.325647 128.001228 L 256.325647 99.83802 L 265.008698 99.83802 L 265.713383 104.108472 C 266.345483 102.475296 267.358657 101.244365 268.746856 100.409631 C 270.135055 99.568848 271.701694 99.148457 273.446773 99.148457 Z M 316.795492 90.671065 C 320.424771 90.671065 323.573171 91.118676 326.237667 92.013898 C 328.902163 92.897023 330.946657 94.103758 332.368125 95.63108 C 333.792617 97.158402 334.503351 98.849041 334.503351 100.696949 L 334.503351 102.02466 L 325.0642 102.02466 C 325.0642 100.923779 324.413954 100.007386 323.110438 99.278506 C 321.819019 98.549625 319.943892 98.183673 317.488079 98.183673 C 315.213731 98.183673 313.48075 98.622211 312.292161 99.499287 C 311.103572 100.36729 310.507765 101.422805 310.507765 102.662809 C 310.507765 103.766715 310.873717 104.604473 311.602598 105.176085 C 312.331478 105.738623 313.229725 106.022917 314.297338 106.022917 L 319.844086 106.022917 L 319.844086 112.582839 L 313.111773 112.582839 C 312.010892 112.582839 311.112645 112.915523 310.417033 113.574842 C 309.730494 114.234161 309.388737 115.183823 309.388737 116.423827 C 309.388737 117.884612 309.999666 119.033884 311.224548 119.874667 C 312.44943 120.709401 314.397143 121.126768 317.070712 121.126768 C 322.399704 121.126768 325.0642 119.541983 325.0642 116.372412 L 325.0642 106.022917 L 341.91313 106.022917 L 341.91313 112.582839 L 334.609205 112.582839 L 334.609205 116.163728 C 334.609205 120.140814 333.193786 123.213604 330.362948 125.382098 C 327.544208 127.553617 323.128584 128.639377 317.122127 128.639377 C 310.934205 128.639377 306.288728 127.644349 303.191743 125.657319 C 300.100806 123.661215 298.555338 121.029987 298.555338 117.76666 C 298.555338 115.631434 299.114852 113.789575 300.236904 112.247131 C 301.355932 110.69259 302.931644 109.597757 304.961016 108.965657 L 304.961016 108.744876 C 303.433695 108.179314 302.163447 107.202433 301.147248 105.814233 C 300.13105 104.426034 299.622951 102.880566 299.622951 101.177829 C 299.622951 99.260359 300.270173 97.503183 301.564616 95.9063 C 302.865107 94.300344 304.812821 93.027072 307.41078 92.089508 C 310.005715 91.145895 313.132944 90.671065 316.795492 90.671065 Z M 381.70213 99.83802 L 381.70213 107.039115 L 375.725917 107.039115 L 375.725917 117.76666 C 375.725917 119.042957 375.940649 119.974472 376.364065 120.56423 C 376.790506 121.147939 377.570801 121.438281 378.707975 121.438281 L 381.70213 121.438281 L 381.70213 127.674593 C 380.843201 127.961911 379.736271 128.191765 378.384364 128.364156 C 377.038506 128.54562 375.865039 128.639377 374.866987 128.639377 C 371.742783 128.639377 369.335361 128.070789 367.641697 126.933615 C 365.957106 125.796441 365.116323 123.860825 365.116323 121.126768 L 365.116323 107.039115 L 361.169482 107.039115 L 361.169482 99.83802 L 365.53369 99.83802 L 367.838283 91.309213 L 375.725917 91.309213 L 375.725917 99.83802 Z M 403.728832 99.148457 C 404.542396 99.148457 405.268252 99.248262 405.900351 99.447872 C 406.544548 99.638409 406.865135 99.750312 406.865135 99.786605 L 406.865135 108.690437 L 403.453612 108.690437 C 401.248825 108.690437 399.657991 109.259024 398.675061 110.396198 C 397.704228 111.533373 397.2173 113.220988 397.2173 115.462068 L 397.2173 128.001228 L 386.604682 128.001228 L 386.604682 99.83802 L 395.290758 99.83802 L 395.992418 104.108472 C 396.627542 102.475296 397.637692 101.244365 399.025891 100.409631 C 400.417115 99.568848 401.983754 99.148457 403.728832 99.148457 Z M 425.108313 99.199871 C 429.405985 99.199871 432.90219 99.919678 435.602979 101.362317 C 438.309817 102.801931 439.664748 105.139792 439.664748 108.378924 L 439.664748 119.35447 C 439.664748 119.962374 439.809919 120.4614 440.094213 120.851548 C 440.381531 121.241695 440.807971 121.438281 441.370509 121.438281 L 443.297052 121.438281 L 443.297052 127.571763 C 443.185149 127.6383 442.906904 127.756252 442.465342 127.922594 C 442.020755 128.076838 441.388656 128.234107 440.562994 128.391376 C 439.746407 128.554693 438.808843 128.639377 437.750303 128.639377 C 435.684638 128.639377 433.984925 128.330888 432.648141 127.71391 C 431.320429 127.08786 430.404036 126.225906 429.898962 125.122 C 428.556128 126.189613 427.043928 127.045518 425.368411 127.686691 C 423.701967 128.321815 421.748205 128.639377 419.510149 128.639377 C 412.895787 128.639377 409.590119 126.008149 409.590119 120.748718 C 409.590119 118.014661 410.328072 115.924801 411.800955 114.485187 C 413.276862 113.045572 415.39999 112.059618 418.17034 111.530348 C 420.946739 110.992005 424.576018 110.722834 429.055154 110.722834 L 429.055154 109.328585 C 429.055154 108.227704 428.671055 107.39297 427.908907 106.830431 C 427.143734 106.255795 426.157779 105.971502 424.954068 105.971502 C 423.850163 105.971502 422.894452 106.165063 422.086938 106.555211 C 421.288496 106.945359 420.889275 107.571409 420.889275 108.430339 L 420.889275 108.639022 L 410.433926 108.639022 C 410.400658 108.466632 410.382511 108.218631 410.382511 107.898044 C 410.382511 105.233548 411.655784 103.119493 414.199304 101.555879 C 416.739799 99.986215 420.378152 99.199871 425.108313 99.199871 Z M 429.055154 115.734264 C 426.033779 115.734264 423.801772 116.063923 422.362158 116.723242 C 420.919519 117.376513 420.199712 118.253588 420.199712 119.35447 C 420.199712 121.132817 421.412497 122.025015 423.832016 122.025015 C 425.214167 122.025015 426.426951 121.649989 427.479442 120.902962 C 428.528909 120.15896 429.055154 119.233494 429.055154 118.129588 Z M 466.17361 99.199871 C 469.44601 99.199871 471.898798 100.107191 473.52895 101.921831 C 475.162125 103.736471 475.975689 106.346527 475.975689 109.75805 L 475.975689 128.001228 L 465.366095 128.001228 L 465.366095 111.034347 C 465.366095 109.827611 465.054582 108.859803 464.428531 108.130923 C 463.811554 107.402043 462.934478 107.039115 461.797304 107.039115 C 460.478666 107.039115 459.411052 107.46858 458.594465 108.327509 C 457.780901 109.177365 457.372607 110.223808 457.372607 111.463811 L 457.372607 128.001228 L 446.759989 128.001228 L 446.759989 99.83802 L 455.44304 99.83802 L 456.147725 104.108472 C 457.248607 102.614418 458.69427 101.425829 460.484714 100.53968 C 462.281208 99.647482 464.177506 99.199871 466.17361 99.199871 Z M 495.715945 99.199871 C 499.481322 99.199871 502.672064 99.937825 505.285145 101.413732 C 507.898226 102.889639 509.204767 105.17306 509.204767 108.260972 L 499.333127 108.260972 C 499.333127 107.238725 498.873418 106.512869 497.954 106.086429 C 497.312828 105.732574 496.514386 105.554135 495.558676 105.554135 C 492.997009 105.554135 491.717688 106.15599 491.717688 107.362726 C 491.717688 108.040191 492.159251 108.521071 493.0454 108.808389 C 493.931549 109.086633 495.389309 109.386049 497.421706 109.706635 C 499.910787 110.063514 501.991574 110.483906 503.658018 110.970834 C 505.333535 111.448689 506.791296 112.298546 508.0313 113.520403 C 509.271303 114.745285 509.89433 116.46012 509.89433 118.664907 C 509.89433 122.257893 508.551496 124.81956 505.868854 126.346882 C 503.189236 127.874203 499.677908 128.639377 495.337895 128.639377 C 492.845789 128.639377 490.498855 128.291571 488.294068 127.595959 C 486.098354 126.903371 484.304885 125.829709 482.916686 124.381022 C 481.528486 122.923261 480.832874 121.069304 480.832874 118.822176 L 490.70149 118.822176 L 490.70149 119.042957 C 490.737783 120.249692 491.239833 121.096524 492.21369 121.580428 C 493.193595 122.058283 494.233989 122.297211 495.337895 122.297211 C 498.289709 122.297211 499.762591 121.601599 499.762591 120.213399 C 499.762591 119.502665 499.299858 118.985493 498.371367 118.664907 C 497.45195 118.34432 495.93975 118.005588 493.840817 117.648709 C 491.321492 117.222268 489.252803 116.762559 487.6287 116.269582 C 486.013671 115.773581 484.601276 114.932798 483.385468 113.744209 C 482.178732 112.546547 481.573852 110.880102 481.573852 108.744876 C 481.573852 105.297061 482.880393 102.844273 485.493474 101.386512 C 488.115629 99.928752 491.521102 99.199871 495.715945 99.199871 Z M 546.057075 99.199871 C 549.822453 99.199871 553.013194 99.937825 555.626275 101.413732 C 558.239357 102.889639 559.545897 105.17306 559.545897 108.260972 L 549.677281 108.260972 C 549.677281 107.238725 549.214548 106.512869 548.295131 106.086429 C 547.653958 105.732574 546.855517 105.554135 545.899806 105.554135 C 543.33814 105.554135 542.058819 106.15599 542.058819 107.362726 C 542.058819 108.040191 542.500381 108.521071 543.38653 108.808389 C 544.272679 109.086633 545.73044 109.386049 547.762836 109.706635 C 550.251917 110.063514 552.332704 110.483906 553.999148 110.970834 C 555.674666 111.448689 557.132426 112.298546 558.37243 113.520403 C 559.615458 114.745285 560.23546 116.46012 560.23546 118.664907 C 560.23546 122.257893 558.892627 124.81956 556.213009 126.346882 C 553.530366 127.874203 550.019039 128.639377 545.679025 128.639377 C 543.18692 128.639377 540.839986 128.291571 538.635199 127.595959 C 536.439485 126.903371 534.646016 125.829709 533.257816 124.381022 C 531.869617 122.923261 531.174005 121.069304 531.174005 118.822176 L 541.042621 118.822176 L 541.042621 119.042957 C 541.078913 120.249692 541.580964 121.096524 542.55482 121.580428 C 543.534726 122.058283 544.575119 122.297211 545.679025 122.297211 C 548.630839 122.297211 550.106746 121.601599 550.106746 120.213399 C 550.106746 119.502665 549.640989 118.985493 548.712498 118.664907 C 547.79308 118.34432 546.280881 118.005588 544.181947 117.648709 C 541.665647 117.222268 539.593933 116.762559 537.969831 116.269582 C 536.357826 115.773581 534.942407 114.932798 533.726598 113.744209 C 532.519863 112.546547 531.918007 110.880102 531.918007 108.744876 C 531.918007 105.297061 533.221523 102.844273 535.834605 101.386512 C 538.456759 99.928752 541.865257 99.199871 546.057075 99.199871 Z M 565.618891 96.529327 L 565.618891 89.331256 L 576.243607 89.331256 L 576.243607 96.529327 Z M 565.618891 128.001228 L 565.618891 99.83802 L 576.243607 99.83802 L 576.243607 128.001228 Z M 593.676246 102.454125 C 595.699569 100.285631 598.327773 99.199871 601.566904 99.199871 C 605.368575 99.199871 608.302242 100.436851 610.367907 102.91081 C 612.433572 105.384768 613.467917 109.038243 613.467917 113.874258 C 613.467917 118.743541 612.433572 122.424235 610.367907 124.913316 C 608.302242 127.396348 605.368575 128.639377 601.566904 128.639377 C 597.65938 128.639377 594.674298 127.093908 592.608633 124.002972 L 591.698289 128.001228 L 583.066652 128.001228 L 583.066652 89.331256 L 593.676246 89.331256 Z M 598.261236 107.039115 C 596.697621 107.039115 595.524154 107.598629 594.743859 108.717657 C 593.963564 109.836685 593.573416 111.285372 593.573416 113.066743 L 593.573416 114.823919 C 593.573416 116.602266 593.963564 118.044905 594.743859 119.145786 C 595.524154 120.249692 596.697621 120.800133 598.261236 120.800133 C 601.315879 120.800133 602.843201 118.985493 602.843201 115.356214 L 602.843201 112.531425 C 602.843201 108.868877 601.315879 107.039115 598.261236 107.039115 Z M 618.948129 128.001228 L 618.948129 89.331256 L 629.572844 89.331256 L 629.572844 128.001228 Z M 636.707403 96.529327 L 636.707403 89.331256 L 647.329094 89.331256 L 647.329094 96.529327 Z M 636.707403 128.001228 L 636.707403 99.83802 L 647.329094 99.83802 L 647.329094 128.001228 Z M 673.511321 99.199871 C 676.783721 99.199871 679.236509 100.107191 680.869685 101.921831 C 682.499836 103.736471 683.316424 106.346527 683.316424 109.75805 L 683.316424 128.001228 L 672.703806 128.001228 L 672.703806 111.034347 C 672.703806 109.827611 672.392293 108.859803 671.769267 108.130923 C 671.152289 107.402043 670.275213 107.039115 669.138039 107.039115 C 667.819401 107.039115 666.751788 107.46858 665.9352 108.327509 C 665.118612 109.177365 664.710318 110.223808 664.710318 111.463811 L 664.710318 128.001228 L 654.100725 128.001228 L 654.100725 99.83802 L 662.783776 99.83802 L 663.488461 104.108472 C 664.589342 102.614418 666.035005 101.425829 667.822425 100.53968 C 669.618919 99.647482 671.515217 99.199871 673.511321 99.199871 Z M 721.348249 94.563467 C 721.348249 96.734986 720.803857 98.404454 719.721122 99.577921 C 718.635362 100.748364 717.008235 101.622415 714.836716 102.194027 C 715.871061 102.974322 716.678576 103.890715 717.25926 104.940182 C 717.849018 105.983599 718.145409 107.09053 718.145409 108.260972 C 718.145409 111.255128 717.017308 113.517379 714.758082 115.044701 C 712.50188 116.572022 709.686164 117.337195 706.30791 117.337195 L 702.246141 117.337195 C 700.008085 117.337195 698.889058 117.854368 698.889058 118.885688 C 698.889058 119.381689 699.134034 119.78091 699.630035 120.08335 C 700.132086 120.388815 701.006137 120.540035 702.246141 120.540035 L 711.854658 120.540035 C 714.981888 120.540035 717.340919 121.356622 718.937802 122.986774 C 720.543758 124.61995 721.348249 126.80659 721.348249 129.549721 C 721.348249 131.573044 720.81293 133.312074 719.745317 134.769834 C 718.677704 136.227595 717.23809 137.331501 715.42345 138.078528 C 713.60881 138.82253 711.633877 139.197555 709.498651 139.197555 L 693.823188 139.197555 C 692.546892 139.197555 691.367376 138.892091 690.281616 138.287211 C 689.195857 137.68838 688.333903 136.862719 687.689706 135.813252 C 687.048533 134.760761 686.727947 133.599392 686.727947 132.323095 C 686.727947 130.934896 687.151363 129.67977 688.004244 128.560742 C 688.863173 127.43869 689.93381 126.594882 691.21918 126.020247 C 690.360251 125.421415 689.682785 124.698584 689.186784 123.845703 C 688.693807 122.986774 688.445806 122.064332 688.445806 121.072329 C 688.445806 119.684129 688.956929 118.429004 689.982201 117.309976 C 691.013521 116.190948 692.295867 115.434848 693.823188 115.044701 C 692.444062 114.152503 691.340156 113.127231 690.514495 111.971911 C 689.700932 110.81659 689.292638 109.603806 689.292638 108.327509 C 689.292638 105.055109 690.6143 102.714224 693.263674 101.307878 C 695.910024 99.901532 699.421352 99.199871 703.797658 99.199871 C 705.715127 99.199871 707.26362 99.30875 708.443136 99.526506 C 710.179141 98.422601 711.304218 97.421524 711.815341 96.517229 C 712.338562 95.606885 712.598661 94.956639 712.598661 94.563467 Z M 703.691804 104.74662 C 702.521361 104.74662 701.559602 105.04906 700.8156 105.656964 C 700.068573 106.255795 699.693548 107.123798 699.693548 108.260972 C 699.693548 109.443513 700.041354 110.326637 700.736966 110.916395 C 701.429553 111.500104 702.415507 111.790447 703.691804 111.790447 C 704.968101 111.790447 705.969177 111.500104 706.701082 110.916395 C 707.429962 110.326637 707.79289 109.443513 707.79289 108.260972 C 707.79289 107.09053 707.429962 106.213454 706.701082 105.632769 C 705.969177 105.039987 704.968101 104.74662 703.691804 104.74662 Z M 699.590718 128.001228 C 698.765057 128.001228 698.096665 128.222009 697.585541 128.663572 C 697.074418 129.108158 696.817344 129.740258 696.817344 130.565919 C 696.817344 131.379483 697.083491 132.035777 697.612761 132.531779 C 698.151104 133.033829 698.810423 133.284854 699.590718 133.284854 L 707.910841 133.284854 C 708.691136 133.284854 709.356504 133.042902 709.903921 132.555974 C 710.457386 132.078119 710.735631 131.433922 710.735631 130.617334 C 710.735631 129.791673 710.466459 129.1505 709.928116 128.690791 C 709.398846 128.231083 708.727429 128.001228 707.910841 128.001228 Z M 738.623619 99.199871 C 742.392021 99.199871 745.579738 99.937825 748.192819 101.413732 C 750.8059 102.889639 752.112441 105.17306 752.112441 108.260972 L 742.243825 108.260972 C 742.243825 107.238725 741.784116 106.512869 740.864699 106.086429 C 740.220502 105.732574 739.42206 105.554135 738.46635 105.554135 C 735.907708 105.554135 734.625363 106.15599 734.625363 107.362726 C 734.625363 108.040191 735.069949 108.521071 735.956098 108.808389 C 736.839223 109.086633 738.296984 109.386049 740.32938 109.706635 C 742.821485 110.063514 744.899248 110.483906 746.565692 110.970834 C 748.241209 111.448689 749.69897 112.298546 750.941998 113.520403 C 752.182002 114.745285 752.802004 116.46012 752.802004 118.664907 C 752.802004 122.257893 751.462195 124.81956 748.779553 126.346882 C 746.09691 127.874203 742.585582 128.639377 738.245569 128.639377 C 735.756488 128.639377 733.40653 128.291571 731.201742 127.595959 C 729.006028 126.903371 727.212559 125.829709 725.82436 124.381022 C 724.436161 122.923261 723.740549 121.069304 723.740549 118.822176 L 733.612189 118.822176 L 733.612189 119.042957 C 733.645457 120.249692 734.150532 121.096524 735.121364 121.580428 C 736.10127 122.058283 737.144687 122.297211 738.245569 122.297211 C 741.197383 122.297211 742.67329 121.601599 742.67329 120.213399 C 742.67329 119.502665 742.207532 118.985493 741.279042 118.664907 C 740.359624 118.34432 738.850449 118.005588 736.748491 117.648709 C 734.232191 117.222268 732.160477 116.762559 730.539399 116.269582 C 728.924369 115.773581 727.50895 114.932798 726.293142 113.744209 C 725.086406 112.546547 724.484551 110.880102 724.484551 108.744876 C 724.484551 105.297061 725.791092 102.844273 728.404173 101.386512 C 731.023303 99.928752 734.431801 99.199871 738.623619 99.199871 Z M 738.623619 99.199871 " stroke="#98eaed" stroke-width="2.066665" stroke-opacity="1" stroke-miterlimit="4"/><g fill="#98eaed" fill-opacity="1"><g transform="translate(461.887581, 1491.823935)"><g><path d="M 17.84375 -37.1875 C 22.894531 -37.1875 26.75 -35.191406 29.40625 -31.203125 L 30.578125 -36.359375 L 41.734375 -36.359375 L 41.734375 13.5625 L 28.03125 13.5625 L 28.03125 -3.3125 C 25.457031 -0.550781 22.0625 0.828125 17.84375 0.828125 C 12.925781 0.828125 9.132812 -0.765625 6.46875 -3.953125 C 3.8125 -7.148438 2.484375 -11.867188 2.484375 -18.109375 C 2.484375 -24.398438 3.8125 -29.148438 6.46875 -32.359375 C 9.132812 -35.578125 12.925781 -37.1875 17.84375 -37.1875 Z M 22.109375 -27.0625 C 18.160156 -27.0625 16.1875 -24.722656 16.1875 -20.046875 L 16.1875 -16.390625 C 16.1875 -11.660156 18.160156 -9.296875 22.109375 -9.296875 C 24.128906 -9.296875 25.644531 -10.019531 26.65625 -11.46875 C 27.664062 -12.914062 28.171875 -14.785156 28.171875 -17.078125 L 28.171875 -19.359375 C 28.171875 -21.648438 27.664062 -23.503906 26.65625 -24.921875 C 25.644531 -26.347656 24.128906 -27.0625 22.109375 -27.0625 Z M 22.109375 -27.0625 "/></g></g></g><g fill="#98eaed" fill-opacity="1"><g transform="translate(507.828768, 1491.823935)"><g><path d="M 30.515625 0 L 29.609375 -5.515625 C 28.191406 -3.535156 26.320312 -1.984375 24 -0.859375 C 21.6875 0.265625 19.242188 0.828125 16.671875 0.828125 C 12.441406 0.828125 9.269531 -0.34375 7.15625 -2.6875 C 5.050781 -5.03125 4 -8.40625 4 -12.8125 L 4 -36.359375 L 17.703125 -36.359375 L 17.703125 -14.46875 C 17.703125 -12.90625 18.101562 -11.648438 18.90625 -10.703125 C 19.707031 -9.765625 20.84375 -9.296875 22.3125 -9.296875 C 24.007812 -9.296875 25.382812 -9.847656 26.4375 -10.953125 C 27.5 -12.054688 28.03125 -13.410156 28.03125 -15.015625 L 28.03125 -36.359375 L 41.734375 -36.359375 L 41.734375 0 Z M 30.515625 0 "/></g></g></g><g fill="#98eaed" fill-opacity="1"><g transform="translate(553.769956, 1491.823935)"><g><path d="M 22.109375 -37.1875 C 27.660156 -37.1875 32.179688 -36.253906 35.671875 -34.390625 C 39.160156 -32.535156 40.90625 -29.519531 40.90625 -25.34375 L 40.90625 -11.15625 C 40.90625 -10.375 41.085938 -9.726562 41.453125 -9.21875 C 41.828125 -8.71875 42.378906 -8.46875 43.109375 -8.46875 L 45.59375 -8.46875 L 45.59375 -0.546875 C 45.457031 -0.453125 45.101562 -0.300781 44.53125 -0.09375 C 43.957031 0.101562 43.140625 0.304688 42.078125 0.515625 C 41.023438 0.722656 39.8125 0.828125 38.4375 0.828125 C 35.769531 0.828125 33.570312 0.425781 31.84375 -0.375 C 30.125 -1.175781 28.945312 -2.289062 28.3125 -3.71875 C 26.5625 -2.34375 24.609375 -1.238281 22.453125 -0.40625 C 20.296875 0.414062 17.769531 0.828125 14.875 0.828125 C 6.332031 0.828125 2.0625 -2.566406 2.0625 -9.359375 C 2.0625 -12.898438 3.015625 -15.597656 4.921875 -17.453125 C 6.828125 -19.316406 9.570312 -20.59375 13.15625 -21.28125 C 16.738281 -21.96875 21.421875 -22.3125 27.203125 -22.3125 L 27.203125 -24.109375 C 27.203125 -25.523438 26.707031 -26.601562 25.71875 -27.34375 C 24.738281 -28.082031 23.46875 -28.453125 21.90625 -28.453125 C 20.476562 -28.453125 19.25 -28.195312 18.21875 -27.6875 C 17.1875 -27.1875 16.671875 -26.382812 16.671875 -25.28125 L 16.671875 -25 L 3.171875 -25 C 3.117188 -25.226562 3.09375 -25.550781 3.09375 -25.96875 C 3.09375 -29.40625 4.734375 -32.132812 8.015625 -34.15625 C 11.304688 -36.175781 16.003906 -37.1875 22.109375 -37.1875 Z M 27.203125 -15.84375 C 23.296875 -15.84375 20.410156 -15.414062 18.546875 -14.5625 C 16.691406 -13.71875 15.765625 -12.582031 15.765625 -11.15625 C 15.765625 -8.863281 17.328125 -7.71875 20.453125 -7.71875 C 22.242188 -7.71875 23.816406 -8.195312 25.171875 -9.15625 C 26.523438 -10.125 27.203125 -11.316406 27.203125 -12.734375 Z M 27.203125 -15.84375 "/></g></g></g><g fill="#98eaed" fill-opacity="1"><g transform="translate(599.711144, 1491.823935)"><g><path d="M 4.609375 0 L 4.609375 -49.9375 L 18.328125 -49.9375 L 18.328125 0 Z M 4.609375 0 "/></g></g></g><g fill="#98eaed" fill-opacity="1"><g transform="translate(622.647308, 1491.823935)"><g><path d="M 4.609375 -40.640625 L 4.609375 -49.9375 L 18.328125 -49.9375 L 18.328125 -40.640625 Z M 4.609375 0 L 4.609375 -36.359375 L 18.328125 -36.359375 L 18.328125 0 Z M 4.609375 0 "/></g></g></g><g fill="#98eaed" fill-opacity="1"><g transform="translate(645.583473, 1491.823935)"><g><path d="M 28.375 -36.359375 L 28.375 -27.0625 L 20.65625 -27.0625 L 20.65625 -13.21875 C 20.65625 -11.570312 20.929688 -10.367188 21.484375 -9.609375 C 22.035156 -8.847656 23.046875 -8.46875 24.515625 -8.46875 L 28.375 -8.46875 L 28.375 -0.40625 C 27.269531 -0.0390625 25.84375 0.253906 24.09375 0.484375 C 22.351562 0.710938 20.84375 0.828125 19.5625 0.828125 C 15.519531 0.828125 12.40625 0.09375 10.21875 -1.375 C 8.039062 -2.84375 6.953125 -5.347656 6.953125 -8.890625 L 6.953125 -27.0625 L 1.859375 -27.0625 L 1.859375 -36.359375 L 7.5 -36.359375 L 10.46875 -47.390625 L 20.65625 -47.390625 L 20.65625 -36.359375 Z M 28.375 -36.359375 "/></g></g></g><g fill="#98eaed" fill-opacity="1"><g transform="translate(676.165012, 1491.823935)"><g><path d="M 29.140625 -1.109375 C 27.253906 3.992188 24.941406 7.863281 22.203125 10.5 C 19.472656 13.144531 15.65625 14.46875 10.75 14.46875 C 7.757812 14.46875 5.117188 14.050781 2.828125 13.21875 L 2.828125 5.03125 L 8.328125 5.03125 C 11.773438 5.03125 13.820312 3.351562 14.46875 0 L 0 -36.359375 L 14.734375 -36.359375 L 21.703125 -12.1875 L 22.171875 -12.1875 L 28.578125 -36.359375 L 42.078125 -36.359375 Z M 29.140625 -1.109375 "/></g></g></g><g fill="#98eaed" fill-opacity="1"><g transform="translate(718.249082, 1491.823935)"><g/></g></g><g fill="#98eaed" fill-opacity="1"><g transform="translate(741.185246, 1491.823935)"><g><path d="M 28.375 -36.359375 L 28.375 -27.0625 L 20.65625 -27.0625 L 20.65625 -13.21875 C 20.65625 -11.570312 20.929688 -10.367188 21.484375 -9.609375 C 22.035156 -8.847656 23.046875 -8.46875 24.515625 -8.46875 L 28.375 -8.46875 L 28.375 -0.40625 C 27.269531 -0.0390625 25.84375 0.253906 24.09375 0.484375 C 22.351562 0.710938 20.84375 0.828125 19.5625 0.828125 C 15.519531 0.828125 12.40625 0.09375 10.21875 -1.375 C 8.039062 -2.84375 6.953125 -5.347656 6.953125 -8.890625 L 6.953125 -27.0625 L 1.859375 -27.0625 L 1.859375 -36.359375 L 7.5 -36.359375 L 10.46875 -47.390625 L 20.65625 -47.390625 L 20.65625 -36.359375 Z M 28.375 -36.359375 "/></g></g></g><g fill="#98eaed" fill-opacity="1"><g transform="translate(771.766785, 1491.823935)"><g><path d="M 26.234375 -37.265625 C 27.296875 -37.265625 28.238281 -37.132812 29.0625 -36.875 C 29.894531 -36.625 30.3125 -36.476562 30.3125 -36.4375 L 30.3125 -24.9375 L 25.890625 -24.9375 C 23.046875 -24.9375 20.992188 -24.203125 19.734375 -22.734375 C 18.472656 -21.265625 17.84375 -19.082031 17.84375 -16.1875 L 17.84375 0 L 4.125 0 L 4.125 -36.359375 L 15.359375 -36.359375 L 16.25 -30.859375 C 17.082031 -32.972656 18.390625 -34.566406 20.171875 -35.640625 C 21.960938 -36.722656 23.984375 -37.265625 26.234375 -37.265625 Z M 26.234375 -37.265625 "/></g></g></g><g fill="#98eaed" fill-opacity="1"><g transform="translate(803.51929, 1491.823935)"><g><path d="M 22.109375 -37.1875 C 27.660156 -37.1875 32.179688 -36.253906 35.671875 -34.390625 C 39.160156 -32.535156 40.90625 -29.519531 40.90625 -25.34375 L 40.90625 -11.15625 C 40.90625 -10.375 41.085938 -9.726562 41.453125 -9.21875 C 41.828125 -8.71875 42.378906 -8.46875 43.109375 -8.46875 L 45.59375 -8.46875 L 45.59375 -0.546875 C 45.457031 -0.453125 45.101562 -0.300781 44.53125 -0.09375 C 43.957031 0.101562 43.140625 0.304688 42.078125 0.515625 C 41.023438 0.722656 39.8125 0.828125 38.4375 0.828125 C 35.769531 0.828125 33.570312 0.425781 31.84375 -0.375 C 30.125 -1.175781 28.945312 -2.289062 28.3125 -3.71875 C 26.5625 -2.34375 24.609375 -1.238281 22.453125 -0.40625 C 20.296875 0.414062 17.769531 0.828125 14.875 0.828125 C 6.332031 0.828125 2.0625 -2.566406 2.0625 -9.359375 C 2.0625 -12.898438 3.015625 -15.597656 4.921875 -17.453125 C 6.828125 -19.316406 9.570312 -20.59375 13.15625 -21.28125 C 16.738281 -21.96875 21.421875 -22.3125 27.203125 -22.3125 L 27.203125 -24.109375 C 27.203125 -25.523438 26.707031 -26.601562 25.71875 -27.34375 C 24.738281 -28.082031 23.46875 -28.453125 21.90625 -28.453125 C 20.476562 -28.453125 19.25 -28.195312 18.21875 -27.6875 C 17.1875 -27.1875 16.671875 -26.382812 16.671875 -25.28125 L 16.671875 -25 L 3.171875 -25 C 3.117188 -25.226562 3.09375 -25.550781 3.09375 -25.96875 C 3.09375 -29.40625 4.734375 -32.132812 8.015625 -34.15625 C 11.304688 -36.175781 16.003906 -37.1875 22.109375 -37.1875 Z M 27.203125 -15.84375 C 23.296875 -15.84375 20.410156 -15.414062 18.546875 -14.5625 C 16.691406 -13.71875 15.765625 -12.582031 15.765625 -11.15625 C 15.765625 -8.863281 17.328125 -7.71875 20.453125 -7.71875 C 22.242188 -7.71875 23.816406 -8.195312 25.171875 -9.15625 C 26.523438 -10.125 27.203125 -11.316406 27.203125 -12.734375 Z M 27.203125 -15.84375 "/></g></g></g><g fill="#98eaed" fill-opacity="1"><g transform="translate(849.460478, 1491.823935)"><g><path d="M 29.203125 -37.1875 C 33.429688 -37.1875 36.597656 -36.015625 38.703125 -33.671875 C 40.816406 -31.335938 41.875 -27.96875 41.875 -23.5625 L 41.875 0 L 28.171875 0 L 28.171875 -21.90625 C 28.171875 -23.46875 27.769531 -24.71875 26.96875 -25.65625 C 26.164062 -26.59375 25.03125 -27.0625 23.5625 -27.0625 C 21.851562 -27.0625 20.472656 -26.507812 19.421875 -25.40625 C 18.367188 -24.3125 17.84375 -22.957031 17.84375 -21.34375 L 17.84375 0 L 4.125 0 L 4.125 -36.359375 L 15.359375 -36.359375 L 16.25 -30.859375 C 17.675781 -32.785156 19.546875 -34.320312 21.859375 -35.46875 C 24.179688 -36.613281 26.628906 -37.1875 29.203125 -37.1875 Z M 29.203125 -37.1875 "/></g></g></g><g fill="#98eaed" fill-opacity="1"><g transform="translate(895.401666, 1491.823935)"><g><path d="M 21.421875 -37.1875 C 26.285156 -37.1875 30.40625 -36.234375 33.78125 -34.328125 C 37.15625 -32.421875 38.84375 -29.472656 38.84375 -25.484375 L 26.109375 -25.484375 C 26.109375 -26.816406 25.507812 -27.757812 24.3125 -28.3125 C 23.488281 -28.769531 22.457031 -29 21.21875 -29 C 17.90625 -29 16.25 -28.21875 16.25 -26.65625 C 16.25 -25.78125 16.820312 -25.160156 17.96875 -24.796875 C 19.125 -24.429688 21.007812 -24.039062 23.625 -23.625 C 26.84375 -23.164062 29.53125 -22.625 31.6875 -22 C 33.84375 -21.382812 35.722656 -20.285156 37.328125 -18.703125 C 38.929688 -17.117188 39.734375 -14.898438 39.734375 -12.046875 C 39.734375 -7.410156 38 -4.101562 34.53125 -2.125 C 31.070312 -0.15625 26.539062 0.828125 20.9375 0.828125 C 17.71875 0.828125 14.6875 0.378906 11.84375 -0.515625 C 9 -1.410156 6.679688 -2.796875 4.890625 -4.671875 C 3.097656 -6.554688 2.203125 -8.945312 2.203125 -11.84375 L 14.953125 -11.84375 L 14.953125 -11.578125 C 14.992188 -10.015625 15.644531 -8.921875 16.90625 -8.296875 C 18.164062 -7.679688 19.507812 -7.375 20.9375 -7.375 C 24.75 -7.375 26.65625 -8.269531 26.65625 -10.0625 C 26.65625 -10.976562 26.054688 -11.640625 24.859375 -12.046875 C 23.671875 -12.460938 21.722656 -12.898438 19.015625 -13.359375 C 15.753906 -13.910156 13.078125 -14.503906 10.984375 -15.140625 C 8.898438 -15.785156 7.078125 -16.878906 5.515625 -18.421875 C 3.953125 -19.960938 3.171875 -22.109375 3.171875 -24.859375 C 3.171875 -29.316406 4.859375 -32.484375 8.234375 -34.359375 C 11.609375 -36.242188 16.003906 -37.1875 21.421875 -37.1875 Z M 21.421875 -37.1875 "/></g></g></g><g fill="#98eaed" fill-opacity="1"><g transform="translate(937.485736, 1491.823935)"><g><path d="M 4.609375 -40.640625 L 4.609375 -49.9375 L 18.328125 -49.9375 L 18.328125 -40.640625 Z M 4.609375 0 L 4.609375 -36.359375 L 18.328125 -36.359375 L 18.328125 0 Z M 4.609375 0 "/></g></g></g><g fill="#98eaed" fill-opacity="1"><g transform="translate(960.421901, 1491.823935)"><g><path d="M 28.375 -36.359375 L 28.375 -27.0625 L 20.65625 -27.0625 L 20.65625 -13.21875 C 20.65625 -11.570312 20.929688 -10.367188 21.484375 -9.609375 C 22.035156 -8.847656 23.046875 -8.46875 24.515625 -8.46875 L 28.375 -8.46875 L 28.375 -0.40625 C 27.269531 -0.0390625 25.84375 0.253906 24.09375 0.484375 C 22.351562 0.710938 20.84375 0.828125 19.5625 0.828125 C 15.519531 0.828125 12.40625 0.09375 10.21875 -1.375 C 8.039062 -2.84375 6.953125 -5.347656 6.953125 -8.890625 L 6.953125 -27.0625 L 1.859375 -27.0625 L 1.859375 -36.359375 L 7.5 -36.359375 L 10.46875 -47.390625 L 20.65625 -47.390625 L 20.65625 -36.359375 Z M 28.375 -36.359375 "/></g></g></g><g fill="#98eaed" fill-opacity="1"><g transform="translate(991.00344, 1491.823935)"><g/></g></g><g fill="#98eaed" fill-opacity="1"><g transform="translate(1013.939604, 1491.823935)"><g><path d="M 21.421875 -37.1875 C 26.285156 -37.1875 30.40625 -36.234375 33.78125 -34.328125 C 37.15625 -32.421875 38.84375 -29.472656 38.84375 -25.484375 L 26.109375 -25.484375 C 26.109375 -26.816406 25.507812 -27.757812 24.3125 -28.3125 C 23.488281 -28.769531 22.457031 -29 21.21875 -29 C 17.90625 -29 16.25 -28.21875 16.25 -26.65625 C 16.25 -25.78125 16.820312 -25.160156 17.96875 -24.796875 C 19.125 -24.429688 21.007812 -24.039062 23.625 -23.625 C 26.84375 -23.164062 29.53125 -22.625 31.6875 -22 C 33.84375 -21.382812 35.722656 -20.285156 37.328125 -18.703125 C 38.929688 -17.117188 39.734375 -14.898438 39.734375 -12.046875 C 39.734375 -7.410156 38 -4.101562 34.53125 -2.125 C 31.070312 -0.15625 26.539062 0.828125 20.9375 0.828125 C 17.71875 0.828125 14.6875 0.378906 11.84375 -0.515625 C 9 -1.410156 6.679688 -2.796875 4.890625 -4.671875 C 3.097656 -6.554688 2.203125 -8.945312 2.203125 -11.84375 L 14.953125 -11.84375 L 14.953125 -11.578125 C 14.992188 -10.015625 15.644531 -8.921875 16.90625 -8.296875 C 18.164062 -7.679688 19.507812 -7.375 20.9375 -7.375 C 24.75 -7.375 26.65625 -8.269531 26.65625 -10.0625 C 26.65625 -10.976562 26.054688 -11.640625 24.859375 -12.046875 C 23.671875 -12.460938 21.722656 -12.898438 19.015625 -13.359375 C 15.753906 -13.910156 13.078125 -14.503906 10.984375 -15.140625 C 8.898438 -15.785156 7.078125 -16.878906 5.515625 -18.421875 C 3.953125 -19.960938 3.171875 -22.109375 3.171875 -24.859375 C 3.171875 -29.316406 4.859375 -32.484375 8.234375 -34.359375 C 11.609375 -36.242188 16.003906 -37.1875 21.421875 -37.1875 Z M 21.421875 -37.1875 "/></g></g></g><g fill="#98eaed" fill-opacity="1"><g transform="translate(1056.023674, 1491.823935)"><g><path d="M 22.9375 -37.1875 C 29.59375 -37.1875 34.675781 -35.625 38.1875 -32.5 C 41.695312 -29.382812 43.453125 -24.613281 43.453125 -18.1875 L 43.453125 -15.84375 L 16.1875 -15.84375 C 16.1875 -13.226562 16.769531 -11.253906 17.9375 -9.921875 C 19.113281 -8.585938 20.960938 -7.921875 23.484375 -7.921875 C 25.785156 -7.921875 27.472656 -8.398438 28.546875 -9.359375 C 29.628906 -10.328125 30.171875 -11.613281 30.171875 -13.21875 L 43.453125 -13.21875 C 43.453125 -8.8125 41.773438 -5.367188 38.421875 -2.890625 C 35.078125 -0.410156 30.191406 0.828125 23.765625 0.828125 C 17.015625 0.828125 11.78125 -0.742188 8.0625 -3.890625 C 4.34375 -7.035156 2.484375 -11.800781 2.484375 -18.1875 C 2.484375 -24.425781 4.296875 -29.148438 7.921875 -32.359375 C 11.546875 -35.578125 16.550781 -37.1875 22.9375 -37.1875 Z M 23.484375 -28.453125 C 19.171875 -28.453125 16.757812 -26.40625 16.25 -22.3125 L 29.609375 -22.3125 C 29.609375 -24.195312 29.066406 -25.691406 27.984375 -26.796875 C 26.910156 -27.898438 25.410156 -28.453125 23.484375 -28.453125 Z M 23.484375 -28.453125 "/></g></g></g><g fill="#98eaed" fill-opacity="1"><g transform="translate(1101.964862, 1491.823935)"><g><path d="M 26.234375 -37.265625 C 27.296875 -37.265625 28.238281 -37.132812 29.0625 -36.875 C 29.894531 -36.625 30.3125 -36.476562 30.3125 -36.4375 L 30.3125 -24.9375 L 25.890625 -24.9375 C 23.046875 -24.9375 20.992188 -24.203125 19.734375 -22.734375 C 18.472656 -21.265625 17.84375 -19.082031 17.84375 -16.1875 L 17.84375 0 L 4.125 0 L 4.125 -36.359375 L 15.359375 -36.359375 L 16.25 -30.859375 C 17.082031 -32.972656 18.390625 -34.566406 20.171875 -35.640625 C 21.960938 -36.722656 23.984375 -37.265625 26.234375 -37.265625 Z M 26.234375 -37.265625 "/></g></g></g><g fill="#98eaed" fill-opacity="1"><g transform="translate(1136.541474, 1491.823935)"><g><path d="M 13.78125 0 L 0 -36.359375 L 14.734375 -36.359375 L 21.421875 -13.703125 L 21.90625 -13.703125 L 28.578125 -36.359375 L 42.078125 -36.359375 L 28.171875 0 Z M 13.78125 0 "/></g></g></g><g fill="#98eaed" fill-opacity="1"><g transform="translate(1178.625544, 1491.823935)"><g><path d="M 4.609375 -40.640625 L 4.609375 -49.9375 L 18.328125 -49.9375 L 18.328125 -40.640625 Z M 4.609375 0 L 4.609375 -36.359375 L 18.328125 -36.359375 L 18.328125 0 Z M 4.609375 0 "/></g></g></g><g fill="#98eaed" fill-opacity="1"><g transform="translate(1201.561708, 1491.823935)"><g><path d="M 22.9375 -37.1875 C 28.90625 -37.1875 33.738281 -35.910156 37.4375 -33.359375 C 41.132812 -30.816406 42.984375 -26.929688 42.984375 -21.703125 L 29.6875 -21.703125 C 29.6875 -25.828125 27.4375 -27.890625 22.9375 -27.890625 C 18.4375 -27.890625 16.1875 -25.296875 16.1875 -20.109375 L 16.1875 -16.1875 C 16.1875 -11.039062 18.523438 -8.46875 23.203125 -8.46875 C 27.890625 -8.46875 30.234375 -10.582031 30.234375 -14.8125 L 42.984375 -14.8125 C 42.984375 -9.53125 41.132812 -5.601562 37.4375 -3.03125 C 33.738281 -0.457031 28.90625 0.828125 22.9375 0.828125 C 16.550781 0.828125 11.546875 -0.773438 7.921875 -3.984375 C 4.296875 -7.203125 2.484375 -11.9375 2.484375 -18.1875 C 2.484375 -24.425781 4.296875 -29.148438 7.921875 -32.359375 C 11.546875 -35.578125 16.550781 -37.1875 22.9375 -37.1875 Z M 22.9375 -37.1875 "/></g></g></g><g fill="#98eaed" fill-opacity="1"><g transform="translate(1247.502935, 1491.823935)"><g><path d="M 22.9375 -37.1875 C 29.59375 -37.1875 34.675781 -35.625 38.1875 -32.5 C 41.695312 -29.382812 43.453125 -24.613281 43.453125 -18.1875 L 43.453125 -15.84375 L 16.1875 -15.84375 C 16.1875 -13.226562 16.769531 -11.253906 17.9375 -9.921875 C 19.113281 -8.585938 20.960938 -7.921875 23.484375 -7.921875 C 25.785156 -7.921875 27.472656 -8.398438 28.546875 -9.359375 C 29.628906 -10.328125 30.171875 -11.613281 30.171875 -13.21875 L 43.453125 -13.21875 C 43.453125 -8.8125 41.773438 -5.367188 38.421875 -2.890625 C 35.078125 -0.410156 30.191406 0.828125 23.765625 0.828125 C 17.015625 0.828125 11.78125 -0.742188 8.0625 -3.890625 C 4.34375 -7.035156 2.484375 -11.800781 2.484375 -18.1875 C 2.484375 -24.425781 4.296875 -29.148438 7.921875 -32.359375 C 11.546875 -35.578125 16.550781 -37.1875 22.9375 -37.1875 Z M 23.484375 -28.453125 C 19.171875 -28.453125 16.757812 -26.40625 16.25 -22.3125 L 29.609375 -22.3125 C 29.609375 -24.195312 29.066406 -25.691406 27.984375 -26.796875 C 26.910156 -27.898438 25.410156 -28.453125 23.484375 -28.453125 Z M 23.484375 -28.453125 "/></g></g></g><g fill="#98eaed" fill-opacity="1"><g transform="translate(1293.444161, 1491.823935)"><g><path d="M 21.421875 -37.1875 C 26.285156 -37.1875 30.40625 -36.234375 33.78125 -34.328125 C 37.15625 -32.421875 38.84375 -29.472656 38.84375 -25.484375 L 26.109375 -25.484375 C 26.109375 -26.816406 25.507812 -27.757812 24.3125 -28.3125 C 23.488281 -28.769531 22.457031 -29 21.21875 -29 C 17.90625 -29 16.25 -28.21875 16.25 -26.65625 C 16.25 -25.78125 16.820312 -25.160156 17.96875 -24.796875 C 19.125 -24.429688 21.007812 -24.039062 23.625 -23.625 C 26.84375 -23.164062 29.53125 -22.625 31.6875 -22 C 33.84375 -21.382812 35.722656 -20.285156 37.328125 -18.703125 C 38.929688 -17.117188 39.734375 -14.898438 39.734375 -12.046875 C 39.734375 -7.410156 38 -4.101562 34.53125 -2.125 C 31.070312 -0.15625 26.539062 0.828125 20.9375 0.828125 C 17.71875 0.828125 14.6875 0.378906 11.84375 -0.515625 C 9 -1.410156 6.679688 -2.796875 4.890625 -4.671875 C 3.097656 -6.554688 2.203125 -8.945312 2.203125 -11.84375 L 14.953125 -11.84375 L 14.953125 -11.578125 C 14.992188 -10.015625 15.644531 -8.921875 16.90625 -8.296875 C 18.164062 -7.679688 19.507812 -7.375 20.9375 -7.375 C 24.75 -7.375 26.65625 -8.269531 26.65625 -10.0625 C 26.65625 -10.976562 26.054688 -11.640625 24.859375 -12.046875 C 23.671875 -12.460938 21.722656 -12.898438 19.015625 -13.359375 C 15.753906 -13.910156 13.078125 -14.503906 10.984375 -15.140625 C 8.898438 -15.785156 7.078125 -16.878906 5.515625 -18.421875 C 3.953125 -19.960938 3.171875 -22.109375 3.171875 -24.859375 C 3.171875 -29.316406 4.859375 -32.484375 8.234375 -34.359375 C 11.609375 -36.242188 16.003906 -37.1875 21.421875 -37.1875 Z M 21.421875 -37.1875 "/></g></g></g><g fill="#98eaed" fill-opacity="1"><g transform="translate(420.415796, 1587.400757)"><g><path d="M 18.9375 -50.765625 C 19.945312 -50.765625 21.207031 -50.632812 22.71875 -50.375 C 24.238281 -50.125 25.457031 -49.835938 26.375 -49.515625 L 26.375 -41.46875 L 23.203125 -41.46875 C 21.734375 -41.46875 20.722656 -41.191406 20.171875 -40.640625 C 19.628906 -40.085938 19.359375 -39.144531 19.359375 -37.8125 L 19.359375 -36.359375 L 26.375 -36.359375 L 26.375 -27.0625 L 19.359375 -27.0625 L 19.359375 0 L 5.640625 0 L 5.640625 -27.0625 L 0.546875 -27.0625 L 0.546875 -36.359375 L 5.640625 -36.359375 L 5.640625 -37.875 C 5.640625 -42.5625 6.785156 -45.878906 9.078125 -47.828125 C 11.378906 -49.785156 14.664062 -50.765625 18.9375 -50.765625 Z M 18.9375 -50.765625 "/></g></g></g><g fill="#98eaed" fill-opacity="1"><g transform="translate(446.03813, 1587.400757)"><g><path d="M 22.9375 -37.1875 C 29.320312 -37.1875 34.335938 -35.566406 37.984375 -32.328125 C 41.628906 -29.097656 43.453125 -24.382812 43.453125 -18.1875 C 43.453125 -11.988281 41.628906 -7.269531 37.984375 -4.03125 C 34.335938 -0.789062 29.320312 0.828125 22.9375 0.828125 C 16.550781 0.828125 11.546875 -0.773438 7.921875 -3.984375 C 4.296875 -7.203125 2.484375 -11.9375 2.484375 -18.1875 C 2.484375 -24.425781 4.296875 -29.148438 7.921875 -32.359375 C 11.546875 -35.578125 16.550781 -37.1875 22.9375 -37.1875 Z M 22.9375 -27.890625 C 18.4375 -27.890625 16.1875 -25.296875 16.1875 -20.109375 L 16.1875 -16.1875 C 16.1875 -11.039062 18.4375 -8.46875 22.9375 -8.46875 C 27.476562 -8.46875 29.75 -11.039062 29.75 -16.1875 L 29.75 -20.109375 C 29.75 -25.296875 27.476562 -27.890625 22.9375 -27.890625 Z M 22.9375 -27.890625 "/></g></g></g><g fill="#98eaed" fill-opacity="1"><g transform="translate(491.979318, 1587.400757)"><g><path d="M 26.234375 -37.265625 C 27.296875 -37.265625 28.238281 -37.132812 29.0625 -36.875 C 29.894531 -36.625 30.3125 -36.476562 30.3125 -36.4375 L 30.3125 -24.9375 L 25.890625 -24.9375 C 23.046875 -24.9375 20.992188 -24.203125 19.734375 -22.734375 C 18.472656 -21.265625 17.84375 -19.082031 17.84375 -16.1875 L 17.84375 0 L 4.125 0 L 4.125 -36.359375 L 15.359375 -36.359375 L 16.25 -30.859375 C 17.082031 -32.972656 18.390625 -34.566406 20.171875 -35.640625 C 21.960938 -36.722656 23.984375 -37.265625 26.234375 -37.265625 Z M 26.234375 -37.265625 "/></g></g></g><g fill="#98eaed" fill-opacity="1"><g transform="translate(522.560857, 1587.400757)"><g/></g></g><g fill="#98eaed" fill-opacity="1"><g transform="translate(545.497022, 1587.400757)"><g><path d="M 17.84375 -37.1875 C 22.894531 -37.1875 26.75 -35.191406 29.40625 -31.203125 L 30.578125 -36.359375 L 41.734375 -36.359375 L 41.734375 13.5625 L 28.03125 13.5625 L 28.03125 -3.3125 C 25.457031 -0.550781 22.0625 0.828125 17.84375 0.828125 C 12.925781 0.828125 9.132812 -0.765625 6.46875 -3.953125 C 3.8125 -7.148438 2.484375 -11.867188 2.484375 -18.109375 C 2.484375 -24.398438 3.8125 -29.148438 6.46875 -32.359375 C 9.132812 -35.578125 12.925781 -37.1875 17.84375 -37.1875 Z M 22.109375 -27.0625 C 18.160156 -27.0625 16.1875 -24.722656 16.1875 -20.046875 L 16.1875 -16.390625 C 16.1875 -11.660156 18.160156 -9.296875 22.109375 -9.296875 C 24.128906 -9.296875 25.644531 -10.019531 26.65625 -11.46875 C 27.664062 -12.914062 28.171875 -14.785156 28.171875 -17.078125 L 28.171875 -19.359375 C 28.171875 -21.648438 27.664062 -23.503906 26.65625 -24.921875 C 25.644531 -26.347656 24.128906 -27.0625 22.109375 -27.0625 Z M 22.109375 -27.0625 "/></g></g></g><g fill="#98eaed" fill-opacity="1"><g transform="translate(591.438209, 1587.400757)"><g><path d="M 30.515625 0 L 29.609375 -5.515625 C 28.191406 -3.535156 26.320312 -1.984375 24 -0.859375 C 21.6875 0.265625 19.242188 0.828125 16.671875 0.828125 C 12.441406 0.828125 9.269531 -0.34375 7.15625 -2.6875 C 5.050781 -5.03125 4 -8.40625 4 -12.8125 L 4 -36.359375 L 17.703125 -36.359375 L 17.703125 -14.46875 C 17.703125 -12.90625 18.101562 -11.648438 18.90625 -10.703125 C 19.707031 -9.765625 20.84375 -9.296875 22.3125 -9.296875 C 24.007812 -9.296875 25.382812 -9.847656 26.4375 -10.953125 C 27.5 -12.054688 28.03125 -13.410156 28.03125 -15.015625 L 28.03125 -36.359375 L 41.734375 -36.359375 L 41.734375 0 Z M 30.515625 0 "/></g></g></g><g fill="#98eaed" fill-opacity="1"><g transform="translate(637.379397, 1587.400757)"><g><path d="M 22.9375 -37.1875 C 29.59375 -37.1875 34.675781 -35.625 38.1875 -32.5 C 41.695312 -29.382812 43.453125 -24.613281 43.453125 -18.1875 L 43.453125 -15.84375 L 16.1875 -15.84375 C 16.1875 -13.226562 16.769531 -11.253906 17.9375 -9.921875 C 19.113281 -8.585938 20.960938 -7.921875 23.484375 -7.921875 C 25.785156 -7.921875 27.472656 -8.398438 28.546875 -9.359375 C 29.628906 -10.328125 30.171875 -11.613281 30.171875 -13.21875 L 43.453125 -13.21875 C 43.453125 -8.8125 41.773438 -5.367188 38.421875 -2.890625 C 35.078125 -0.410156 30.191406 0.828125 23.765625 0.828125 C 17.015625 0.828125 11.78125 -0.742188 8.0625 -3.890625 C 4.34375 -7.035156 2.484375 -11.800781 2.484375 -18.1875 C 2.484375 -24.425781 4.296875 -29.148438 7.921875 -32.359375 C 11.546875 -35.578125 16.550781 -37.1875 22.9375 -37.1875 Z M 23.484375 -28.453125 C 19.171875 -28.453125 16.757812 -26.40625 16.25 -22.3125 L 29.609375 -22.3125 C 29.609375 -24.195312 29.066406 -25.691406 27.984375 -26.796875 C 26.910156 -27.898438 25.410156 -28.453125 23.484375 -28.453125 Z M 23.484375 -28.453125 "/></g></g></g><g fill="#98eaed" fill-opacity="1"><g transform="translate(683.320585, 1587.400757)"><g><path d="M 22.9375 -37.1875 C 29.59375 -37.1875 34.675781 -35.625 38.1875 -32.5 C 41.695312 -29.382812 43.453125 -24.613281 43.453125 -18.1875 L 43.453125 -15.84375 L 16.1875 -15.84375 C 16.1875 -13.226562 16.769531 -11.253906 17.9375 -9.921875 C 19.113281 -8.585938 20.960938 -7.921875 23.484375 -7.921875 C 25.785156 -7.921875 27.472656 -8.398438 28.546875 -9.359375 C 29.628906 -10.328125 30.171875 -11.613281 30.171875 -13.21875 L 43.453125 -13.21875 C 43.453125 -8.8125 41.773438 -5.367188 38.421875 -2.890625 C 35.078125 -0.410156 30.191406 0.828125 23.765625 0.828125 C 17.015625 0.828125 11.78125 -0.742188 8.0625 -3.890625 C 4.34375 -7.035156 2.484375 -11.800781 2.484375 -18.1875 C 2.484375 -24.425781 4.296875 -29.148438 7.921875 -32.359375 C 11.546875 -35.578125 16.550781 -37.1875 22.9375 -37.1875 Z M 23.484375 -28.453125 C 19.171875 -28.453125 16.757812 -26.40625 16.25 -22.3125 L 29.609375 -22.3125 C 29.609375 -24.195312 29.066406 -25.691406 27.984375 -26.796875 C 26.910156 -27.898438 25.410156 -28.453125 23.484375 -28.453125 Z M 23.484375 -28.453125 "/></g></g></g><g fill="#98eaed" fill-opacity="1"><g transform="translate(729.261773, 1587.400757)"><g><path d="M 26.234375 -37.265625 C 27.296875 -37.265625 28.238281 -37.132812 29.0625 -36.875 C 29.894531 -36.625 30.3125 -36.476562 30.3125 -36.4375 L 30.3125 -24.9375 L 25.890625 -24.9375 C 23.046875 -24.9375 20.992188 -24.203125 19.734375 -22.734375 C 18.472656 -21.265625 17.84375 -19.082031 17.84375 -16.1875 L 17.84375 0 L 4.125 0 L 4.125 -36.359375 L 15.359375 -36.359375 L 16.25 -30.859375 C 17.082031 -32.972656 18.390625 -34.566406 20.171875 -35.640625 C 21.960938 -36.722656 23.984375 -37.265625 26.234375 -37.265625 Z M 26.234375 -37.265625 "/></g></g></g><g fill="#98eaed" fill-opacity="1"><g transform="translate(759.843293, 1587.400757)"><g/></g></g><g fill="#98eaed" fill-opacity="1"><g transform="translate(782.779457, 1587.400757)"><g><path d="M 28.71875 -48.21875 C 33.40625 -48.21875 37.46875 -47.640625 40.90625 -46.484375 C 44.351562 -45.335938 46.992188 -43.773438 48.828125 -41.796875 C 50.671875 -39.828125 51.59375 -37.648438 51.59375 -35.265625 L 51.59375 -33.546875 L 39.390625 -33.546875 C 39.390625 -34.960938 38.550781 -36.140625 36.875 -37.078125 C 35.207031 -38.023438 32.785156 -38.5 29.609375 -38.5 C 26.671875 -38.5 24.429688 -37.9375 22.890625 -36.8125 C 21.359375 -35.6875 20.59375 -34.320312 20.59375 -32.71875 C 20.59375 -31.289062 21.0625 -30.207031 22 -29.46875 C 22.945312 -28.738281 24.109375 -28.375 25.484375 -28.375 L 32.640625 -28.375 L 32.640625 -19.90625 L 23.96875 -19.90625 C 22.539062 -19.90625 21.378906 -19.476562 20.484375 -18.625 C 19.585938 -17.78125 19.140625 -16.554688 19.140625 -14.953125 C 19.140625 -13.066406 19.929688 -11.582031 21.515625 -10.5 C 23.109375 -9.425781 25.625 -8.890625 29.0625 -8.890625 C 35.945312 -8.890625 39.390625 -10.929688 39.390625 -15.015625 L 39.390625 -28.375 L 61.15625 -28.375 L 61.15625 -19.90625 L 51.71875 -19.90625 L 51.71875 -15.296875 C 51.71875 -10.148438 49.894531 -6.175781 46.25 -3.375 C 42.601562 -0.570312 36.898438 0.828125 29.140625 0.828125 C 21.148438 0.828125 15.15625 -0.457031 11.15625 -3.03125 C 7.164062 -5.601562 5.171875 -9 5.171875 -13.21875 C 5.171875 -15.976562 5.890625 -18.351562 7.328125 -20.34375 C 8.773438 -22.34375 10.8125 -23.757812 13.4375 -24.59375 L 13.4375 -24.859375 C 11.457031 -25.597656 9.8125 -26.863281 8.5 -28.65625 C 7.195312 -30.445312 6.546875 -32.441406 6.546875 -34.640625 C 6.546875 -37.117188 7.382812 -39.390625 9.0625 -41.453125 C 10.738281 -43.523438 13.25 -45.171875 16.59375 -46.390625 C 19.945312 -47.609375 23.988281 -48.21875 28.71875 -48.21875 Z M 28.71875 -48.21875 "/></g></g></g><g fill="#98eaed" fill-opacity="1"><g transform="translate(844.011433, 1587.400757)"><g/></g></g><g fill="#98eaed" fill-opacity="1"><g transform="translate(866.947597, 1587.400757)"><g><path d="M 28.375 -36.359375 L 28.375 -27.0625 L 20.65625 -27.0625 L 20.65625 -13.21875 C 20.65625 -11.570312 20.929688 -10.367188 21.484375 -9.609375 C 22.035156 -8.847656 23.046875 -8.46875 24.515625 -8.46875 L 28.375 -8.46875 L 28.375 -0.40625 C 27.269531 -0.0390625 25.84375 0.253906 24.09375 0.484375 C 22.351562 0.710938 20.84375 0.828125 19.5625 0.828125 C 15.519531 0.828125 12.40625 0.09375 10.21875 -1.375 C 8.039062 -2.84375 6.953125 -5.347656 6.953125 -8.890625 L 6.953125 -27.0625 L 1.859375 -27.0625 L 1.859375 -36.359375 L 7.5 -36.359375 L 10.46875 -47.390625 L 20.65625 -47.390625 L 20.65625 -36.359375 Z M 28.375 -36.359375 "/></g></g></g><g fill="#98eaed" fill-opacity="1"><g transform="translate(897.529136, 1587.400757)"><g><path d="M 26.234375 -37.265625 C 27.296875 -37.265625 28.238281 -37.132812 29.0625 -36.875 C 29.894531 -36.625 30.3125 -36.476562 30.3125 -36.4375 L 30.3125 -24.9375 L 25.890625 -24.9375 C 23.046875 -24.9375 20.992188 -24.203125 19.734375 -22.734375 C 18.472656 -21.265625 17.84375 -19.082031 17.84375 -16.1875 L 17.84375 0 L 4.125 0 L 4.125 -36.359375 L 15.359375 -36.359375 L 16.25 -30.859375 C 17.082031 -32.972656 18.390625 -34.566406 20.171875 -35.640625 C 21.960938 -36.722656 23.984375 -37.265625 26.234375 -37.265625 Z M 26.234375 -37.265625 "/></g></g></g><g fill="#98eaed" fill-opacity="1"><g transform="translate(929.281641, 1587.400757)"><g><path d="M 22.109375 -37.1875 C 27.660156 -37.1875 32.179688 -36.253906 35.671875 -34.390625 C 39.160156 -32.535156 40.90625 -29.519531 40.90625 -25.34375 L 40.90625 -11.15625 C 40.90625 -10.375 41.085938 -9.726562 41.453125 -9.21875 C 41.828125 -8.71875 42.378906 -8.46875 43.109375 -8.46875 L 45.59375 -8.46875 L 45.59375 -0.546875 C 45.457031 -0.453125 45.101562 -0.300781 44.53125 -0.09375 C 43.957031 0.101562 43.140625 0.304688 42.078125 0.515625 C 41.023438 0.722656 39.8125 0.828125 38.4375 0.828125 C 35.769531 0.828125 33.570312 0.425781 31.84375 -0.375 C 30.125 -1.175781 28.945312 -2.289062 28.3125 -3.71875 C 26.5625 -2.34375 24.609375 -1.238281 22.453125 -0.40625 C 20.296875 0.414062 17.769531 0.828125 14.875 0.828125 C 6.332031 0.828125 2.0625 -2.566406 2.0625 -9.359375 C 2.0625 -12.898438 3.015625 -15.597656 4.921875 -17.453125 C 6.828125 -19.316406 9.570312 -20.59375 13.15625 -21.28125 C 16.738281 -21.96875 21.421875 -22.3125 27.203125 -22.3125 L 27.203125 -24.109375 C 27.203125 -25.523438 26.707031 -26.601562 25.71875 -27.34375 C 24.738281 -28.082031 23.46875 -28.453125 21.90625 -28.453125 C 20.476562 -28.453125 19.25 -28.195312 18.21875 -27.6875 C 17.1875 -27.1875 16.671875 -26.382812 16.671875 -25.28125 L 16.671875 -25 L 3.171875 -25 C 3.117188 -25.226562 3.09375 -25.550781 3.09375 -25.96875 C 3.09375 -29.40625 4.734375 -32.132812 8.015625 -34.15625 C 11.304688 -36.175781 16.003906 -37.1875 22.109375 -37.1875 Z M 27.203125 -15.84375 C 23.296875 -15.84375 20.410156 -15.414062 18.546875 -14.5625 C 16.691406 -13.71875 15.765625 -12.582031 15.765625 -11.15625 C 15.765625 -8.863281 17.328125 -7.71875 20.453125 -7.71875 C 22.242188 -7.71875 23.816406 -8.195312 25.171875 -9.15625 C 26.523438 -10.125 27.203125 -11.316406 27.203125 -12.734375 Z M 27.203125 -15.84375 "/></g></g></g><g fill="#98eaed" fill-opacity="1"><g transform="translate(975.222829, 1587.400757)"><g><path d="M 29.203125 -37.1875 C 33.429688 -37.1875 36.597656 -36.015625 38.703125 -33.671875 C 40.816406 -31.335938 41.875 -27.96875 41.875 -23.5625 L 41.875 0 L 28.171875 0 L 28.171875 -21.90625 C 28.171875 -23.46875 27.769531 -24.71875 26.96875 -25.65625 C 26.164062 -26.59375 25.03125 -27.0625 23.5625 -27.0625 C 21.851562 -27.0625 20.472656 -26.507812 19.421875 -25.40625 C 18.367188 -24.3125 17.84375 -22.957031 17.84375 -21.34375 L 17.84375 0 L 4.125 0 L 4.125 -36.359375 L 15.359375 -36.359375 L 16.25 -30.859375 C 17.675781 -32.785156 19.546875 -34.320312 21.859375 -35.46875 C 24.179688 -36.613281 26.628906 -37.1875 29.203125 -37.1875 Z M 29.203125 -37.1875 "/></g></g></g><g fill="#98eaed" fill-opacity="1"><g transform="translate(1021.164017, 1587.400757)"><g><path d="M 21.421875 -37.1875 C 26.285156 -37.1875 30.40625 -36.234375 33.78125 -34.328125 C 37.15625 -32.421875 38.84375 -29.472656 38.84375 -25.484375 L 26.109375 -25.484375 C 26.109375 -26.816406 25.507812 -27.757812 24.3125 -28.3125 C 23.488281 -28.769531 22.457031 -29 21.21875 -29 C 17.90625 -29 16.25 -28.21875 16.25 -26.65625 C 16.25 -25.78125 16.820312 -25.160156 17.96875 -24.796875 C 19.125 -24.429688 21.007812 -24.039062 23.625 -23.625 C 26.84375 -23.164062 29.53125 -22.625 31.6875 -22 C 33.84375 -21.382812 35.722656 -20.285156 37.328125 -18.703125 C 38.929688 -17.117188 39.734375 -14.898438 39.734375 -12.046875 C 39.734375 -7.410156 38 -4.101562 34.53125 -2.125 C 31.070312 -0.15625 26.539062 0.828125 20.9375 0.828125 C 17.71875 0.828125 14.6875 0.378906 11.84375 -0.515625 C 9 -1.410156 6.679688 -2.796875 4.890625 -4.671875 C 3.097656 -6.554688 2.203125 -8.945312 2.203125 -11.84375 L 14.953125 -11.84375 L 14.953125 -11.578125 C 14.992188 -10.015625 15.644531 -8.921875 16.90625 -8.296875 C 18.164062 -7.679688 19.507812 -7.375 20.9375 -7.375 C 24.75 -7.375 26.65625 -8.269531 26.65625 -10.0625 C 26.65625 -10.976562 26.054688 -11.640625 24.859375 -12.046875 C 23.671875 -12.460938 21.722656 -12.898438 19.015625 -13.359375 C 15.753906 -13.910156 13.078125 -14.503906 10.984375 -15.140625 C 8.898438 -15.785156 7.078125 -16.878906 5.515625 -18.421875 C 3.953125 -19.960938 3.171875 -22.109375 3.171875 -24.859375 C 3.171875 -29.316406 4.859375 -32.484375 8.234375 -34.359375 C 11.609375 -36.242188 16.003906 -37.1875 21.421875 -37.1875 Z M 21.421875 -37.1875 "/></g></g></g><g fill="#98eaed" fill-opacity="1"><g transform="translate(1063.248087, 1587.400757)"><g/></g></g><g fill="#98eaed" fill-opacity="1"><g transform="translate(1086.184252, 1587.400757)"><g><path d="M 21.421875 -37.1875 C 26.285156 -37.1875 30.40625 -36.234375 33.78125 -34.328125 C 37.15625 -32.421875 38.84375 -29.472656 38.84375 -25.484375 L 26.109375 -25.484375 C 26.109375 -26.816406 25.507812 -27.757812 24.3125 -28.3125 C 23.488281 -28.769531 22.457031 -29 21.21875 -29 C 17.90625 -29 16.25 -28.21875 16.25 -26.65625 C 16.25 -25.78125 16.820312 -25.160156 17.96875 -24.796875 C 19.125 -24.429688 21.007812 -24.039062 23.625 -23.625 C 26.84375 -23.164062 29.53125 -22.625 31.6875 -22 C 33.84375 -21.382812 35.722656 -20.285156 37.328125 -18.703125 C 38.929688 -17.117188 39.734375 -14.898438 39.734375 -12.046875 C 39.734375 -7.410156 38 -4.101562 34.53125 -2.125 C 31.070312 -0.15625 26.539062 0.828125 20.9375 0.828125 C 17.71875 0.828125 14.6875 0.378906 11.84375 -0.515625 C 9 -1.410156 6.679688 -2.796875 4.890625 -4.671875 C 3.097656 -6.554688 2.203125 -8.945312 2.203125 -11.84375 L 14.953125 -11.84375 L 14.953125 -11.578125 C 14.992188 -10.015625 15.644531 -8.921875 16.90625 -8.296875 C 18.164062 -7.679688 19.507812 -7.375 20.9375 -7.375 C 24.75 -7.375 26.65625 -8.269531 26.65625 -10.0625 C 26.65625 -10.976562 26.054688 -11.640625 24.859375 -12.046875 C 23.671875 -12.460938 21.722656 -12.898438 19.015625 -13.359375 C 15.753906 -13.910156 13.078125 -14.503906 10.984375 -15.140625 C 8.898438 -15.785156 7.078125 -16.878906 5.515625 -18.421875 C 3.953125 -19.960938 3.171875 -22.109375 3.171875 -24.859375 C 3.171875 -29.316406 4.859375 -32.484375 8.234375 -34.359375 C 11.609375 -36.242188 16.003906 -37.1875 21.421875 -37.1875 Z M 21.421875 -37.1875 "/></g></g></g><g fill="#98eaed" fill-opacity="1"><g transform="translate(1128.268322, 1587.400757)"><g><path d="M 4.609375 -40.640625 L 4.609375 -49.9375 L 18.328125 -49.9375 L 18.328125 -40.640625 Z M 4.609375 0 L 4.609375 -36.359375 L 18.328125 -36.359375 L 18.328125 0 Z M 4.609375 0 "/></g></g></g><g fill="#98eaed" fill-opacity="1"><g transform="translate(1151.204486, 1587.400757)"><g><path d="M 17.90625 -32.984375 C 20.519531 -35.785156 23.914062 -37.1875 28.09375 -37.1875 C 33.007812 -37.1875 36.796875 -35.59375 39.453125 -32.40625 C 42.117188 -29.21875 43.453125 -24.5 43.453125 -18.25 C 43.453125 -11.957031 42.117188 -7.203125 39.453125 -3.984375 C 36.796875 -0.773438 33.007812 0.828125 28.09375 0.828125 C 23.050781 0.828125 19.195312 -1.171875 16.53125 -5.171875 L 15.359375 0 L 4.203125 0 L 4.203125 -49.9375 L 17.90625 -49.9375 Z M 23.828125 -27.0625 C 21.804688 -27.0625 20.289062 -26.335938 19.28125 -24.890625 C 18.269531 -23.453125 17.765625 -21.582031 17.765625 -19.28125 L 17.765625 -17.015625 C 17.765625 -14.710938 18.269531 -12.847656 19.28125 -11.421875 C 20.289062 -10.003906 21.804688 -9.296875 23.828125 -9.296875 C 27.773438 -9.296875 29.75 -11.640625 29.75 -16.328125 L 29.75 -19.96875 C 29.75 -24.695312 27.773438 -27.0625 23.828125 -27.0625 Z M 23.828125 -27.0625 "/></g></g></g><g fill="#98eaed" fill-opacity="1"><g transform="translate(1197.145713, 1587.400757)"><g><path d="M 4.609375 0 L 4.609375 -49.9375 L 18.328125 -49.9375 L 18.328125 0 Z M 4.609375 0 "/></g></g></g><g fill="#98eaed" fill-opacity="1"><g transform="translate(1220.081877, 1587.400757)"><g><path d="M 4.609375 -40.640625 L 4.609375 -49.9375 L 18.328125 -49.9375 L 18.328125 -40.640625 Z M 4.609375 0 L 4.609375 -36.359375 L 18.328125 -36.359375 L 18.328125 0 Z M 4.609375 0 "/></g></g></g><g fill="#98eaed" fill-opacity="1"><g transform="translate(1243.018041, 1587.400757)"><g><path d="M 29.203125 -37.1875 C 33.429688 -37.1875 36.597656 -36.015625 38.703125 -33.671875 C 40.816406 -31.335938 41.875 -27.96875 41.875 -23.5625 L 41.875 0 L 28.171875 0 L 28.171875 -21.90625 C 28.171875 -23.46875 27.769531 -24.71875 26.96875 -25.65625 C 26.164062 -26.59375 25.03125 -27.0625 23.5625 -27.0625 C 21.851562 -27.0625 20.472656 -26.507812 19.421875 -25.40625 C 18.367188 -24.3125 17.84375 -22.957031 17.84375 -21.34375 L 17.84375 0 L 4.125 0 L 4.125 -36.359375 L 15.359375 -36.359375 L 16.25 -30.859375 C 17.675781 -32.785156 19.546875 -34.320312 21.859375 -35.46875 C 24.179688 -36.613281 26.628906 -37.1875 29.203125 -37.1875 Z M 29.203125 -37.1875 "/></g></g></g><g fill="#98eaed" fill-opacity="1"><g transform="translate(1288.959268, 1587.400757)"><g><path d="M 45.046875 -43.1875 C 45.046875 -40.382812 44.34375 -38.222656 42.9375 -36.703125 C 41.539062 -35.191406 39.441406 -34.066406 36.640625 -33.328125 C 37.972656 -32.316406 39.015625 -31.132812 39.765625 -29.78125 C 40.523438 -28.425781 40.90625 -26.992188 40.90625 -25.484375 C 40.90625 -21.628906 39.445312 -18.710938 36.53125 -16.734375 C 33.625 -14.765625 29.988281 -13.78125 25.625 -13.78125 L 20.390625 -13.78125 C 17.492188 -13.78125 16.046875 -13.113281 16.046875 -11.78125 C 16.046875 -11.132812 16.363281 -10.613281 17 -10.21875 C 17.644531 -9.832031 18.773438 -9.640625 20.390625 -9.640625 L 32.78125 -9.640625 C 36.820312 -9.640625 39.875 -8.582031 41.9375 -6.46875 C 44.007812 -4.363281 45.046875 -1.539062 45.046875 2 C 45.046875 4.613281 44.351562 6.863281 42.96875 8.75 C 41.59375 10.632812 39.734375 12.054688 37.390625 13.015625 C 35.054688 13.984375 32.507812 14.46875 29.75 14.46875 L 9.5 14.46875 C 7.851562 14.46875 6.328125 14.078125 4.921875 13.296875 C 3.523438 12.515625 2.410156 11.445312 1.578125 10.09375 C 0.753906 8.738281 0.34375 7.234375 0.34375 5.578125 C 0.34375 3.785156 0.894531 2.164062 2 0.71875 C 3.101562 -0.726562 4.476562 -1.816406 6.125 -2.546875 C 5.03125 -3.328125 4.160156 -4.269531 3.515625 -5.375 C 2.867188 -6.476562 2.546875 -7.671875 2.546875 -8.953125 C 2.546875 -10.742188 3.210938 -12.363281 4.546875 -13.8125 C 5.878906 -15.257812 7.53125 -16.234375 9.5 -16.734375 C 7.707031 -17.878906 6.285156 -19.195312 5.234375 -20.6875 C 4.179688 -22.1875 3.65625 -23.765625 3.65625 -25.421875 C 3.65625 -29.640625 5.363281 -32.65625 8.78125 -34.46875 C 12.195312 -36.28125 16.734375 -37.1875 22.390625 -37.1875 C 24.867188 -37.1875 26.863281 -37.050781 28.375 -36.78125 C 30.625 -38.207031 32.082031 -39.503906 32.75 -40.671875 C 33.414062 -41.835938 33.75 -42.675781 33.75 -43.1875 Z M 22.25 -30.03125 C 20.726562 -30.03125 19.484375 -29.640625 18.515625 -28.859375 C 17.554688 -28.078125 17.078125 -26.953125 17.078125 -25.484375 C 17.078125 -23.960938 17.523438 -22.820312 18.421875 -22.0625 C 19.316406 -21.3125 20.59375 -20.9375 22.25 -20.9375 C 23.894531 -20.9375 25.1875 -21.3125 26.125 -22.0625 C 27.070312 -22.820312 27.546875 -23.960938 27.546875 -25.484375 C 27.546875 -26.992188 27.070312 -28.128906 26.125 -28.890625 C 25.1875 -29.648438 23.894531 -30.03125 22.25 -30.03125 Z M 16.9375 0 C 15.882812 0 15.023438 0.285156 14.359375 0.859375 C 13.691406 1.429688 13.359375 2.25 13.359375 3.3125 C 13.359375 4.363281 13.703125 5.207031 14.390625 5.84375 C 15.078125 6.488281 15.925781 6.8125 16.9375 6.8125 L 27.6875 6.8125 C 28.695312 6.8125 29.554688 6.5 30.265625 5.875 C 30.984375 5.257812 31.34375 4.425781 31.34375 3.375 C 31.34375 2.320312 30.992188 1.492188 30.296875 0.890625 C 29.609375 0.296875 28.738281 0 27.6875 0 Z M 16.9375 0 "/></g></g></g><g fill="#98eaed" fill-opacity="1"><g transform="translate(1334.900495, 1587.400757)"><g><path d="M 21.421875 -37.1875 C 26.285156 -37.1875 30.40625 -36.234375 33.78125 -34.328125 C 37.15625 -32.421875 38.84375 -29.472656 38.84375 -25.484375 L 26.109375 -25.484375 C 26.109375 -26.816406 25.507812 -27.757812 24.3125 -28.3125 C 23.488281 -28.769531 22.457031 -29 21.21875 -29 C 17.90625 -29 16.25 -28.21875 16.25 -26.65625 C 16.25 -25.78125 16.820312 -25.160156 17.96875 -24.796875 C 19.125 -24.429688 21.007812 -24.039062 23.625 -23.625 C 26.84375 -23.164062 29.53125 -22.625 31.6875 -22 C 33.84375 -21.382812 35.722656 -20.285156 37.328125 -18.703125 C 38.929688 -17.117188 39.734375 -14.898438 39.734375 -12.046875 C 39.734375 -7.410156 38 -4.101562 34.53125 -2.125 C 31.070312 -0.15625 26.539062 0.828125 20.9375 0.828125 C 17.71875 0.828125 14.6875 0.378906 11.84375 -0.515625 C 9 -1.410156 6.679688 -2.796875 4.890625 -4.671875 C 3.097656 -6.554688 2.203125 -8.945312 2.203125 -11.84375 L 14.953125 -11.84375 L 14.953125 -11.578125 C 14.992188 -10.015625 15.644531 -8.921875 16.90625 -8.296875 C 18.164062 -7.679688 19.507812 -7.375 20.9375 -7.375 C 24.75 -7.375 26.65625 -8.269531 26.65625 -10.0625 C 26.65625 -10.976562 26.054688 -11.640625 24.859375 -12.046875 C 23.671875 -12.460938 21.722656 -12.898438 19.015625 -13.359375 C 15.753906 -13.910156 13.078125 -14.503906 10.984375 -15.140625 C 8.898438 -15.785156 7.078125 -16.878906 5.515625 -18.421875 C 3.953125 -19.960938 3.171875 -22.109375 3.171875 -24.859375 C 3.171875 -29.316406 4.859375 -32.484375 8.234375 -34.359375 C 11.609375 -36.242188 16.003906 -37.1875 21.421875 -37.1875 Z M 21.421875 -37.1875 "/></g></g></g></svg>