<svg xmlns="http://www.w3.org/2000/svg" xmlns:xlink="http://www.w3.org/1999/xlink" width="2380" zoomAndPan="magnify" viewBox="0 0 1784.88 1784.99993" height="2380" preserveAspectRatio="xMidYMid meet" version="1.0"><defs><g/><clipPath id="1085e797d0"><path d="M 293.824219 140.832031 L 1573.238281 140.832031 L 1573.238281 1420.246094 L 293.824219 1420.246094 Z M 293.824219 140.832031 " clip-rule="nonzero"/></clipPath><clipPath id="2a555ae82d"><path d="M 662 640.074219 L 825 640.074219 L 825 942 L 662 942 Z M 662 640.074219 " clip-rule="nonzero"/></clipPath><clipPath id="4430458dcc"><path d="M 662.207031 657.617188 C 663.03125 652.140625 663.554688 650.792969 664.15625 649.589844 C 664.832031 648.316406 665.65625 647.191406 666.554688 646.140625 C 667.457031 645.089844 668.578125 644.117188 669.703125 643.367188 C 670.828125 642.542969 672.105469 641.941406 673.378906 641.417969 C 674.65625 640.96875 676.078125 640.59375 677.429688 640.441406 C 678.78125 640.292969 680.203125 640.292969 681.628906 640.441406 C 682.980469 640.59375 684.328125 640.96875 685.679688 641.417969 C 686.953125 641.941406 688.230469 642.617188 689.355469 643.367188 C 690.480469 644.117188 691.527344 645.089844 692.429688 646.140625 C 693.402344 647.191406 694.226562 648.316406 694.828125 649.589844 C 695.503906 650.792969 695.953125 652.140625 696.328125 653.492188 C 696.628906 654.839844 696.703125 655.816406 696.777344 657.617188 C 697.003906 660.992188 696.253906 671.714844 696.703125 672.015625 C 696.703125 672.089844 696.851562 672.015625 696.851562 672.015625 C 696.851562 672.015625 698.429688 672.015625 699.253906 672.015625 C 700.003906 672.015625 701.578125 672.015625 701.578125 672.015625 C 701.652344 672.015625 703.152344 672.390625 703.902344 672.539062 C 704.726562 672.765625 706.226562 673.066406 706.226562 673.140625 C 706.300781 673.140625 707.652344 673.816406 708.402344 674.191406 C 709.078125 674.566406 710.503906 675.316406 710.503906 675.316406 C 710.503906 675.316406 711.703125 676.363281 712.300781 676.890625 C 712.902344 677.414062 714.027344 678.464844 714.101562 678.464844 C 714.101562 678.464844 714.328125 678.765625 714.328125 678.765625 C 714.476562 678.988281 721.828125 686.9375 726.027344 692.339844 C 731.875 699.914062 739.523438 711.164062 745.375 720.238281 C 750.773438 728.636719 755.875 736.660156 760.074219 744.835938 C 764.046875 752.484375 767.273438 760.132812 770.273438 767.632812 C 773.121094 774.53125 775.371094 781.207031 777.621094 788.105469 C 779.949219 794.929688 784.070312 801.832031 783.921875 808.804688 C 783.773438 816.003906 778.523438 828.378906 776.421875 830.628906 C 775.824219 831.230469 774.773438 830.855469 774.699219 831.230469 C 774.546875 831.902344 776.421875 833.253906 777.847656 834.753906 C 780.699219 837.679688 786.546875 843.226562 790.820312 847.429688 C 794.945312 851.550781 799.222656 855.226562 802.972656 859.652344 C 806.945312 864.375 810.996094 869.402344 813.921875 875.101562 C 817.070312 881.027344 819.246094 887.773438 820.96875 894.75 C 822.84375 902.324219 825.769531 911.546875 824.644531 918.824219 C 823.59375 925.421875 820.667969 932.996094 815.570312 936.746094 C 809.945312 940.945312 798.394531 942.296875 791.195312 940.945312 C 784.746094 939.746094 779.347656 934.347656 774.171875 930.746094 C 769.296875 927.371094 765.699219 924.222656 760.824219 920.097656 C 754.449219 914.625 745.375 906.523438 739.375 900.597656 C 734.875 896.101562 732.027344 893.101562 727.824219 888 C 722.125 881.027344 714.027344 871.125 708.703125 862.128906 C 703.675781 853.578125 699.328125 843.902344 696.476562 835.578125 C 694.226562 828.605469 693.703125 822.230469 692.203125 815.78125 C 690.855469 809.707031 689.429688 803.855469 687.855469 798.007812 C 686.429688 792.382812 684.929688 786.980469 683.355469 781.507812 C 681.777344 776.03125 680.355469 771.007812 678.480469 765.160156 C 676.230469 758.257812 673.003906 749.859375 670.605469 742.808594 C 668.429688 736.585938 666.105469 731.1875 664.679688 724.960938 C 663.253906 718.285156 662.65625 711.460938 662.28125 704.039062 C 661.832031 695.789062 662.429688 685.8125 662.429688 677.5625 C 662.355469 670.441406 662.207031 657.617188 662.207031 657.617188 " clip-rule="nonzero"/></clipPath><clipPath id="715ca87426"><path d="M 556.984375 419 L 779 419 L 779 972 L 556.984375 972 Z M 556.984375 419 " clip-rule="nonzero"/></clipPath><clipPath id="1916ffb1a5"><path d="M 556.988281 764.859375 C 557.511719 723.3125 558.488281 713.261719 558.789062 703.664062 C 559.011719 694.664062 558.710938 686.414062 558.789062 677.5625 C 558.789062 668.265625 558.414062 658.214844 559.164062 649.140625 C 559.761719 640.59375 561.261719 633.015625 562.539062 624.617188 C 563.886719 615.542969 565.238281 605.792969 566.960938 596.496094 C 568.6875 587.269531 571.238281 578.195312 572.8125 569.046875 C 574.386719 559.972656 573.636719 550.148438 576.5625 541.671875 C 579.410156 533.347656 584.660156 526.222656 590.058594 518.574219 C 595.984375 509.949219 602.507812 498.625 611.132812 492.851562 C 619.308594 487.378906 633.40625 489.925781 639.855469 484.003906 C 645.855469 478.601562 645.40625 467.503906 649.679688 460.152344 C 653.957031 452.730469 659.128906 445.078125 665.730469 439.679688 C 672.328125 434.207031 681.328125 430.90625 689.355469 427.53125 C 697.226562 424.230469 705.476562 419.355469 713.351562 419.582031 C 721.226562 419.882812 736.675781 429.03125 736.75 429.03125 C 736.824219 428.957031 739 428.28125 740.125 427.90625 C 741.25 427.53125 743.425781 426.78125 743.5 426.78125 C 743.574219 426.707031 745.824219 426.554688 747.023438 426.480469 C 748.226562 426.40625 750.550781 426.179688 750.550781 426.179688 C 750.625 426.179688 752.949219 426.554688 754.074219 426.78125 C 755.273438 426.929688 757.523438 427.304688 757.597656 427.304688 C 757.675781 427.304688 759.773438 428.28125 760.898438 428.730469 C 761.949219 429.179688 764.125 430.082031 764.125 430.082031 C 764.199219 430.15625 766.074219 431.507812 766.972656 432.257812 C 767.949219 432.929688 769.824219 434.355469 769.824219 434.355469 C 769.898438 434.429688 771.324219 436.230469 772.074219 437.128906 C 772.824219 438.03125 774.324219 439.832031 774.324219 439.90625 C 774.324219 439.90625 775.371094 442.003906 775.824219 443.128906 C 776.347656 444.179688 777.324219 446.28125 777.398438 446.28125 C 777.398438 446.355469 777.398438 446.355469 777.398438 446.355469 C 777.398438 446.355469 777.847656 448.605469 778.074219 449.804688 C 778.296875 450.929688 778.824219 453.253906 778.824219 453.253906 C 778.824219 453.328125 778.671875 455.65625 778.671875 456.855469 C 778.597656 458.054688 778.523438 460.378906 778.523438 460.378906 C 778.523438 460.453125 777.847656 462.703125 777.546875 463.828125 C 777.171875 464.953125 776.574219 467.203125 776.496094 467.203125 C 776.496094 467.277344 775.371094 469.304688 774.773438 470.277344 C 774.171875 471.328125 772.972656 473.351562 772.972656 473.351562 C 772.972656 473.429688 771.324219 475.078125 770.5 475.976562 C 769.671875 476.804688 768.097656 478.453125 768.023438 478.527344 C 768.023438 478.527344 766 479.800781 765.023438 480.402344 C 764.046875 481.078125 763.296875 481.300781 762.023438 482.277344 C 759.472656 484.300781 755.800781 488.953125 751.523438 492.550781 C 745.675781 497.425781 736.75 502.976562 729.550781 508.375 C 722.351562 513.777344 712.675781 520.148438 708.402344 524.800781 C 705.925781 527.5 703.078125 530.199219 703.601562 532 C 704.277344 534.175781 711.253906 533.125 714.25 536.050781 C 718.976562 540.699219 723.328125 552.472656 724.527344 561.472656 C 725.800781 571.070312 723.175781 582.246094 720.925781 592.070312 C 718.75 601.820312 713.351562 610.367188 711.328125 620.417969 C 709.226562 631.21875 709.601562 643.589844 709.152344 654.839844 C 708.703125 665.640625 708.777344 675.914062 708.628906 686.5625 C 708.476562 697.214844 708.550781 708.164062 708.402344 718.8125 C 708.328125 729.3125 708.777344 740.109375 707.878906 750.007812 C 707.128906 759.007812 704.652344 767.707031 703.902344 775.808594 C 703.152344 783.007812 700.828125 790.582031 703.078125 796.355469 C 705.175781 801.90625 710.726562 805.957031 716.578125 810.003906 C 724.078125 815.179688 738.101562 816.90625 745.675781 822.980469 C 752.425781 828.453125 758.050781 835.730469 760.898438 843.527344 C 763.898438 851.703125 762.171875 861.753906 762.625 871.351562 C 763.074219 881.550781 761.199219 894.75 763.75 903 C 765.625 909.074219 770.796875 913.722656 772.824219 917.398438 C 774.097656 919.648438 774.847656 920.996094 775.523438 922.871094 C 776.121094 924.746094 776.574219 926.847656 776.796875 928.796875 C 776.949219 930.824219 776.871094 932.921875 776.574219 934.871094 C 776.273438 936.898438 775.671875 938.921875 774.921875 940.722656 C 774.171875 942.597656 773.121094 944.394531 771.921875 946.046875 C 770.722656 947.621094 769.296875 949.121094 767.722656 950.472656 C 766.222656 951.746094 764.421875 952.871094 762.625 953.695312 C 760.824219 954.597656 758.425781 955.34375 756.847656 955.71875 C 755.949219 955.871094 755.050781 955.496094 754.523438 955.871094 C 753.847656 956.394531 753.699219 957.820312 753.25 958.496094 C 752.949219 959.019531 752.5 959.320312 752.125 959.695312 C 751.824219 960.144531 751.75 960.59375 751.300781 961.121094 C 750.773438 961.796875 749.648438 962.46875 748.824219 963.21875 C 748.074219 963.96875 747.324219 965.019531 746.574219 965.546875 C 746.125 965.921875 745.601562 965.996094 745.148438 966.296875 C 744.699219 966.59375 744.476562 967.042969 743.949219 967.34375 C 743.199219 967.871094 741.925781 968.09375 740.949219 968.542969 C 739.976562 969.070312 738.925781 969.820312 738.023438 970.121094 C 737.425781 970.269531 736.976562 970.195312 736.449219 970.34375 C 735.925781 970.496094 735.550781 970.792969 734.949219 970.945312 C 734.050781 971.167969 732.777344 971.019531 731.726562 971.167969 C 730.601562 971.246094 730 971.542969 728.5 971.695312 C 724.601562 971.996094 714.777344 971.996094 707.503906 971.621094 C 699.554688 971.167969 690.855469 971.019531 682.605469 969.144531 C 674.054688 967.195312 664.832031 963.96875 656.957031 959.921875 C 649.304688 956.019531 641.957031 951.445312 635.957031 945.597656 C 630.03125 939.820312 624.859375 932.847656 621.257812 925.273438 C 617.433594 917.398438 616.457031 903.898438 613.910156 899.097656 C 612.785156 896.925781 611.808594 896.925781 610.382812 894.898438 C 607.160156 890.398438 600.859375 879.976562 596.660156 872.175781 C 592.460938 864.300781 588.859375 856.203125 585.1875 847.804688 C 581.285156 838.953125 577.609375 829.128906 573.9375 820.203125 C 570.410156 811.804688 566.210938 804.53125 563.4375 795.757812 C 560.4375 786.15625 556.988281 764.859375 556.988281 764.859375 M 670.828125 874.949219 C 688.527344 894.074219 673.230469 873.453125 672.554688 872.550781 C 672.554688 872.476562 672.554688 872.476562 672.480469 872.476562 C 672.328125 872.476562 670.828125 874.949219 670.828125 874.949219 " clip-rule="nonzero"/></clipPath><clipPath id="eb2ddaf3a0"><path d="M 746.164062 638.457031 L 888.855469 638.457031 L 888.855469 892.640625 L 746.164062 892.640625 Z M 746.164062 638.457031 " clip-rule="nonzero"/></clipPath><clipPath id="689fbc3ebe"><path d="M 808.894531 654.242188 C 814.820312 669.015625 816.769531 679.738281 819.84375 687.839844 C 822.917969 695.9375 826.96875 703.8125 831.09375 711.460938 C 835.292969 719.1875 840.992188 726.085938 844.742188 734.035156 C 848.492188 742.058594 851.492188 750.683594 853.59375 759.382812 C 855.765625 768.082031 855.992188 777.457031 857.566406 786.382812 C 859.140625 795.304688 860.867188 804.378906 863.191406 812.929688 C 865.367188 821.179688 872.867188 834.980469 870.992188 836.855469 C 870.015625 837.902344 864.390625 834.980469 864.390625 834.980469 C 864.390625 834.980469 868.890625 836.105469 870.992188 837.003906 C 873.089844 837.980469 875.191406 839.179688 876.992188 840.601562 C 878.789062 842.027344 880.515625 843.679688 881.941406 845.476562 C 883.367188 847.277344 884.566406 849.304688 885.539062 851.402344 C 886.441406 853.503906 887.191406 855.753906 887.640625 858.003906 C 888.015625 860.253906 888.164062 862.652344 888.015625 864.976562 C 887.941406 867.226562 887.492188 869.625 886.816406 871.800781 C 886.140625 873.976562 885.164062 876.152344 883.964844 878.101562 C 882.839844 880.125 881.339844 882 879.765625 883.574219 C 878.117188 885.226562 876.242188 886.726562 874.292969 887.925781 C 872.339844 889.125 870.167969 890.101562 867.992188 890.773438 C 865.816406 891.449219 863.417969 891.898438 861.167969 892.050781 C 858.84375 892.199219 856.816406 893.023438 854.191406 891.675781 C 848.042969 888.375 836.644531 871.050781 830.644531 860.777344 C 825.621094 852.003906 823.519531 842.929688 819.621094 834.378906 C 815.871094 826.128906 811.144531 818.40625 807.695312 810.230469 C 804.320312 802.28125 802.070312 795.679688 799.144531 786.082031 C 794.945312 772.207031 789.097656 748.882812 786.097656 734.710938 C 784.070312 724.8125 778.296875 713.5625 781.898438 709.363281 C 785.496094 705.085938 803.945312 704.9375 808.070312 709.4375 C 812.421875 714.3125 804.996094 729.6875 805.371094 739.210938 C 805.746094 748.132812 807.097656 756.308594 809.945312 765.007812 C 813.171875 774.832031 821.042969 784.808594 824.792969 794.707031 C 828.320312 804.007812 832.367188 812.707031 832.367188 822.679688 C 832.367188 834.230469 829.59375 852.527344 822.394531 860.101562 C 816.320312 866.625 802.445312 868.425781 795.695312 869.027344 C 791.796875 869.328125 789.246094 868.578125 786.246094 867.601562 C 783.171875 866.625 780.171875 865.050781 777.699219 863.175781 C 775.148438 861.300781 772.746094 858.902344 770.949219 856.277344 C 769.148438 853.726562 767.648438 850.652344 766.824219 847.652344 C 765.921875 844.652344 765.472656 841.277344 765.625 838.128906 C 765.773438 834.980469 766.449219 831.679688 767.574219 828.679688 C 768.699219 825.753906 770.347656 822.828125 772.371094 820.429688 C 774.398438 817.953125 776.949219 815.707031 779.648438 814.054688 C 782.347656 812.40625 785.421875 811.128906 788.496094 810.378906 C 791.570312 809.628906 794.945312 809.40625 798.097656 809.707031 C 801.246094 810.003906 804.472656 810.90625 807.394531 812.179688 C 810.246094 813.457031 813.09375 815.332031 815.421875 817.429688 C 817.746094 819.605469 819.84375 822.230469 821.34375 825.003906 C 822.84375 827.777344 823.96875 830.929688 824.570312 834.078125 C 825.09375 837.152344 825.167969 840.527344 824.644531 843.679688 C 824.195312 846.828125 823.144531 850.054688 821.71875 852.828125 C 820.292969 855.675781 818.269531 858.378906 816.019531 860.550781 C 813.769531 862.800781 810.996094 864.675781 808.144531 866.101562 C 805.296875 867.453125 802.070312 868.425781 798.921875 868.800781 C 795.769531 869.175781 792.398438 869.027344 789.320312 868.425781 C 786.246094 867.75 783.097656 866.550781 780.324219 864.976562 C 777.621094 863.402344 774.996094 861.226562 772.898438 858.828125 C 770.875 856.425781 769.074219 853.578125 767.875 850.652344 C 766.671875 847.726562 765.847656 844.503906 765.699219 841.351562 C 765.472656 838.203125 765.773438 834.828125 766.597656 831.753906 C 767.347656 828.679688 768.773438 825.605469 770.5 822.980469 C 772.222656 820.355469 774.472656 817.878906 777.023438 815.929688 C 779.496094 813.980469 782.421875 812.332031 785.421875 811.28125 C 788.421875 810.230469 794.871094 809.554688 794.871094 809.628906 C 794.871094 809.707031 776.273438 817.578125 769.824219 814.65625 C 763.148438 811.65625 759.550781 799.355469 755.949219 790.730469 C 752.199219 781.582031 749.722656 770.859375 748.074219 760.957031 C 746.5 751.359375 746.199219 741.835938 746.273438 732.085938 C 746.351562 721.960938 745.976562 711.3125 748.675781 701.261719 C 751.675781 690.464844 755.800781 676.289062 764.125 669.539062 C 772.523438 662.714844 788.722656 658.964844 798.996094 660.765625 C 808.445312 662.414062 816.621094 670.816406 823.96875 677.5625 C 831.394531 684.464844 839.269531 692.5625 843.09375 701.863281 C 847.066406 711.535156 845.042969 724.585938 846.769531 734.710938 C 848.269531 743.558594 850.21875 751.132812 852.394531 759.308594 C 854.71875 767.785156 857.042969 776.257812 860.265625 784.65625 C 863.640625 793.429688 868.964844 802.054688 872.417969 810.980469 C 875.792969 819.605469 878.265625 828.378906 880.890625 837.152344 C 883.515625 846.003906 889.890625 862.875 888.089844 863.851562 C 885.914062 864.976562 863.191406 836.777344 864.390625 834.980469 C 864.917969 834.230469 868.890625 836.105469 870.992188 837.003906 C 873.089844 837.980469 875.191406 839.179688 876.992188 840.601562 C 878.789062 842.027344 880.515625 843.679688 881.941406 845.476562 C 883.289062 847.277344 884.566406 849.304688 885.539062 851.402344 C 886.441406 853.503906 887.191406 855.753906 887.640625 858.003906 C 888.015625 860.253906 888.164062 862.652344 888.015625 864.976562 C 887.941406 867.226562 887.492188 869.625 886.816406 871.800781 C 886.140625 873.976562 885.164062 876.152344 883.964844 878.101562 C 882.839844 880.125 881.339844 882 879.765625 883.574219 C 878.117188 885.226562 876.242188 886.726562 874.292969 887.925781 C 872.339844 889.125 870.167969 890.101562 867.992188 890.773438 C 865.816406 891.449219 863.417969 891.898438 861.167969 892.050781 C 858.84375 892.199219 856.890625 892.425781 854.191406 891.675781 C 850.066406 890.550781 844.066406 887.925781 839.042969 883.875 C 831.992188 878.25 822.917969 867.375 818.046875 858.601562 C 813.769531 850.878906 812.34375 842.929688 810.171875 834.828125 C 807.996094 826.578125 806.421875 818.253906 804.921875 809.707031 C 803.496094 800.855469 803.121094 791.632812 801.472656 782.480469 C 799.746094 772.957031 798.097656 762.382812 794.570312 753.535156 C 791.347656 745.285156 785.648438 738.683594 781.746094 731.035156 C 777.921875 723.460938 774.171875 715.886719 771.472656 707.789062 C 768.773438 699.613281 767.648438 689.488281 765.546875 682.214844 C 763.972656 676.589844 761.199219 671.488281 760.523438 667.589844 C 760.074219 665.191406 760.148438 663.539062 760.300781 661.515625 C 760.523438 659.492188 760.972656 657.464844 761.648438 655.515625 C 762.324219 653.640625 763.222656 651.765625 764.273438 650.042969 C 765.398438 648.390625 766.75 646.742188 768.25 645.390625 C 769.671875 644.042969 771.398438 642.765625 773.121094 641.792969 C 774.921875 640.816406 776.796875 639.992188 778.746094 639.46875 C 780.699219 638.941406 782.796875 638.640625 784.820312 638.566406 C 786.773438 638.492188 788.871094 638.71875 790.820312 639.167969 C 792.847656 639.542969 794.796875 640.21875 796.597656 641.117188 C 798.394531 642.015625 800.195312 643.140625 801.695312 644.492188 C 803.269531 645.765625 804.695312 647.265625 805.894531 648.917969 C 807.097656 650.566406 808.894531 654.242188 808.894531 654.242188 " clip-rule="nonzero"/></clipPath><clipPath id="365d1a01d5"><path d="M 711 902 L 1300 902 L 1300 1220 L 711 1220 Z M 711 902 " clip-rule="nonzero"/></clipPath><clipPath id="cd6b5bbab2"><path d="M 712.226562 965.921875 C 733.824219 932.996094 741.550781 927.671875 750.023438 922.347656 C 759.398438 916.5 771.625 910.273438 781.824219 906.972656 C 790.371094 904.199219 798.394531 901.574219 806.496094 902.550781 C 814.96875 903.523438 825.394531 907.574219 831.394531 913.574219 C 837.320312 919.574219 839.117188 930.074219 842.269531 938.695312 C 845.417969 947.246094 846.242188 962.019531 850.292969 965.019531 C 852.394531 966.519531 854.34375 964.421875 857.640625 964.871094 C 864.917969 965.769531 882.464844 969.144531 892.140625 974.09375 C 900.6875 978.445312 907.664062 984.367188 913.664062 991.566406 C 920.113281 999.21875 927.3125 1013.617188 928.960938 1019.464844 C 929.710938 1021.867188 928.4375 1022.765625 929.335938 1024.941406 C 931.136719 1029.367188 944.5625 1042.566406 944.636719 1042.640625 C 944.636719 1042.640625 946.0625 1044.441406 946.8125 1045.414062 C 947.5625 1046.316406 948.984375 1048.113281 948.984375 1048.113281 C 948.984375 1048.191406 949.4375 1050.4375 950.335938 1051.1875 C 951.761719 1052.238281 954.535156 1051.714844 957.6875 1052.464844 C 963.609375 1053.738281 979.808594 1058.089844 982.882812 1059.515625 C 983.707031 1059.886719 983.484375 1060.1875 984.308594 1060.414062 C 987.382812 1061.164062 1001.632812 1056.140625 1008.757812 1058.914062 C 1016.257812 1061.839844 1023.832031 1076.460938 1027.804688 1078.710938 C 1029.15625 1079.460938 1029.378906 1079.085938 1031.03125 1079.386719 C 1035.753906 1080.210938 1050.078125 1081.261719 1059.230469 1083.136719 C 1068.003906 1085.011719 1076.101562 1089.210938 1084.878906 1090.488281 C 1093.726562 1091.761719 1103.25 1090.710938 1112.175781 1090.785156 C 1120.722656 1090.785156 1130.699219 1093.5625 1137.222656 1090.785156 C 1143 1088.3125 1147.648438 1080.210938 1150.421875 1076.835938 C 1151.921875 1075.113281 1152.148438 1074.664062 1153.648438 1072.710938 C 1157.023438 1067.988281 1163.546875 1055.765625 1170.445312 1049.015625 C 1177.421875 1042.113281 1189.421875 1038.738281 1195.34375 1031.839844 C 1200.445312 1025.839844 1204.792969 1015.941406 1205.320312 1011.21875 C 1205.542969 1008.816406 1203.894531 1005.742188 1203.894531 1005.667969 C 1203.894531 1005.667969 1204.71875 1003.417969 1205.167969 1002.21875 C 1205.542969 1001.09375 1206.292969 998.84375 1206.367188 998.769531 C 1206.367188 998.769531 1207.644531 996.742188 1208.320312 995.769531 C 1208.992188 994.71875 1210.34375 992.691406 1210.34375 992.691406 C 1210.34375 992.617188 1212.144531 991.042969 1213.042969 990.21875 C 1213.941406 989.394531 1215.667969 987.742188 1215.667969 987.742188 C 1215.742188 987.667969 1217.84375 986.542969 1218.894531 985.945312 C 1219.941406 985.34375 1222.042969 984.21875 1222.042969 984.21875 C 1222.117188 984.144531 1224.441406 983.542969 1225.566406 983.242188 C 1226.765625 982.945312 1229.09375 982.269531 1229.09375 982.269531 C 1229.167969 982.269531 1231.566406 982.195312 1232.765625 982.195312 C 1233.96875 982.195312 1236.367188 982.117188 1236.441406 982.117188 C 1236.441406 982.117188 1238.765625 982.644531 1239.964844 982.867188 C 1241.167969 983.167969 1243.492188 983.695312 1243.566406 983.695312 C 1243.566406 983.695312 1245.742188 984.742188 1246.792969 985.269531 C 1247.917969 985.867188 1250.015625 986.917969 1250.089844 986.917969 C 1250.089844 986.917969 1251.214844 988.492188 1251.816406 988.417969 C 1252.789062 988.269531 1253.617188 985.195312 1254.816406 983.695312 C 1256.015625 982.195312 1257.589844 980.695312 1259.164062 979.417969 C 1260.816406 978.21875 1262.613281 977.167969 1264.488281 976.34375 C 1266.289062 975.59375 1268.316406 974.996094 1270.339844 974.695312 C 1272.289062 974.320312 1274.390625 974.246094 1276.414062 974.394531 C 1278.4375 974.542969 1280.464844 974.917969 1282.414062 975.59375 C 1284.289062 976.195312 1286.164062 977.09375 1287.886719 978.144531 C 1289.613281 979.269531 1291.261719 980.542969 1292.613281 982.042969 C 1294.039062 983.46875 1295.3125 985.117188 1296.363281 986.84375 C 1297.335938 988.644531 1298.164062 990.519531 1298.761719 992.46875 C 1299.289062 994.417969 1299.664062 996.519531 1299.738281 998.46875 C 1299.8125 1000.492188 1299.289062 1004.542969 1299.289062 1004.617188 C 1299.289062 1004.617188 1299.289062 1004.542969 1299.289062 1004.542969 C 1299.289062 1004.542969 1298.386719 1012.566406 1296.886719 1017.441406 C 1294.789062 1024.265625 1290.664062 1033.789062 1286.6875 1041.363281 C 1282.789062 1048.789062 1277.613281 1055.164062 1273.265625 1062.511719 C 1268.691406 1070.164062 1264.339844 1078.636719 1259.914062 1086.4375 C 1255.714844 1093.785156 1251.742188 1100.609375 1247.316406 1108.035156 C 1242.441406 1115.984375 1236.515625 1124.535156 1231.867188 1132.785156 C 1227.515625 1140.660156 1225.867188 1149.359375 1220.242188 1156.332031 C 1214.167969 1163.980469 1203.96875 1169.832031 1195.871094 1175.980469 C 1188.21875 1181.832031 1180.644531 1187.230469 1172.921875 1192.480469 C 1165.421875 1197.65625 1158.523438 1203.054688 1150.199219 1207.402344 C 1141.347656 1212.054688 1131 1217.378906 1121.097656 1219.027344 C 1111.726562 1220.679688 1101.527344 1220.003906 1092.453125 1217.902344 C 1083.527344 1215.878906 1076.027344 1210.179688 1067.101562 1206.730469 C 1057.652344 1203.054688 1046.78125 1199.378906 1037.332031 1196.605469 C 1028.855469 1194.128906 1021.507812 1192.703125 1013.03125 1190.753906 C 1003.582031 1188.578125 993.082031 1186.707031 983.109375 1184.230469 C 972.984375 1181.679688 962.484375 1178.832031 952.734375 1175.53125 C 943.511719 1172.457031 934.738281 1168.554688 926.113281 1165.257812 C 918.011719 1162.183594 910.515625 1159.558594 902.339844 1156.332031 C 893.566406 1152.730469 883.664062 1148.984375 875.265625 1144.707031 C 867.617188 1140.734375 861.015625 1136.535156 853.890625 1131.660156 C 846.242188 1126.257812 838.21875 1119.960938 831.09375 1113.585938 C 824.121094 1107.285156 817.445312 1100.835938 811.59375 1093.636719 C 805.894531 1086.511719 800.871094 1078.636719 796.371094 1070.839844 C 792.023438 1063.261719 790.371094 1053.964844 784.898438 1047.515625 C 779.421875 1040.988281 770.722656 1037.316406 763.523438 1032.066406 C 756.097656 1026.742188 748.75 1021.714844 741.023438 1015.714844 C 732.25 1009.042969 718.375 1002.667969 713.800781 993.742188 C 709.675781 985.71875 712.226562 965.921875 712.226562 965.921875 M 784.746094 970.496094 C 794.421875 977.769531 791.722656 967.792969 789.773438 967.121094 C 788.421875 966.671875 784.746094 970.496094 784.746094 970.496094 M 871.515625 1070.238281 C 876.542969 1075.039062 885.539062 1082.238281 886.367188 1081.5625 C 887.039062 1080.960938 883.964844 1073.988281 881.414062 1072.113281 C 878.941406 1070.238281 871.515625 1070.238281 871.515625 1070.238281 M 1123.125 1150.707031 C 1124.398438 1156.707031 1129.949219 1153.183594 1131.222656 1152.507812 C 1131.675781 1152.28125 1131.972656 1152.207031 1132.050781 1151.984375 C 1132.125 1151.683594 1131.75 1151.007812 1131.222656 1150.707031 C 1130.023438 1150.03125 1123.125 1150.707031 1123.125 1150.707031 " clip-rule="nonzero"/></clipPath><clipPath id="716f6d3c3d"><path d="M 816.714844 495.65625 L 865.3125 495.65625 L 865.3125 545.328125 L 816.714844 545.328125 Z M 816.714844 495.65625 " clip-rule="nonzero"/></clipPath><clipPath id="2124566dc7"><path d="M 865.21875 513.101562 C 865.292969 528.699219 863.492188 532.675781 861.09375 535.675781 C 858.691406 538.75 855.242188 541.449219 851.792969 543.023438 C 848.269531 544.597656 843.917969 545.347656 840.09375 545.125 C 836.269531 544.898438 832.070312 543.625 828.84375 541.597656 C 825.542969 539.648438 822.394531 536.5 820.445312 533.273438 C 818.421875 529.972656 817.144531 525.773438 816.921875 521.949219 C 816.695312 518.125 817.445312 513.777344 819.019531 510.25 C 820.59375 506.800781 823.371094 503.351562 826.371094 500.953125 C 829.371094 498.625 833.417969 496.75 837.167969 496.078125 C 840.917969 495.402344 845.34375 495.703125 848.941406 496.828125 C 852.617188 497.953125 859.140625 502.976562 859.140625 502.976562 " clip-rule="nonzero"/></clipPath><clipPath id="39ce8d9246"><path d="M 802.464844 521.53125 L 851 521.53125 L 851 571.199219 L 802.464844 571.199219 Z M 802.464844 521.53125 " clip-rule="nonzero"/></clipPath><clipPath id="b1c71eb6fd"><path d="M 850.96875 538.898438 C 851.042969 554.496094 849.242188 558.546875 846.84375 561.546875 C 844.441406 564.546875 840.992188 567.246094 837.542969 568.820312 C 834.019531 570.398438 829.667969 571.222656 825.84375 570.996094 C 822.019531 570.773438 817.820312 569.421875 814.519531 567.472656 C 811.296875 565.445312 808.144531 562.371094 806.195312 559.074219 C 804.171875 555.773438 802.894531 551.574219 802.671875 547.75 C 802.445312 543.921875 803.195312 539.574219 804.769531 536.125 C 806.347656 532.597656 809.121094 529.148438 812.121094 526.75 C 815.121094 524.425781 819.171875 522.625 822.917969 521.949219 C 826.667969 521.199219 831.09375 521.5 834.695312 522.625 C 838.367188 523.75 844.894531 528.773438 844.894531 528.773438 " clip-rule="nonzero"/></clipPath><clipPath id="7b31bb6022"><path d="M 790.015625 536.679688 L 838.613281 536.679688 L 838.613281 586.351562 L 790.015625 586.351562 Z M 790.015625 536.679688 " clip-rule="nonzero"/></clipPath><clipPath id="cf78dfc7da"><path d="M 838.519531 554.046875 C 838.519531 569.648438 836.71875 573.621094 834.394531 576.695312 C 831.992188 579.695312 828.542969 582.394531 825.019531 583.96875 C 821.570312 585.546875 817.21875 586.371094 813.394531 586.144531 C 809.570312 585.921875 805.371094 584.570312 802.070312 582.621094 C 798.769531 580.597656 795.695312 577.519531 793.746094 574.222656 C 791.722656 570.921875 790.445312 566.722656 790.222656 562.898438 C 789.921875 559.074219 790.746094 554.722656 792.320312 551.273438 C 793.898438 547.75 796.597656 544.296875 799.597656 541.898438 C 802.671875 539.574219 806.644531 537.773438 810.46875 537.097656 C 814.21875 536.347656 818.570312 536.648438 822.246094 537.773438 C 825.917969 538.898438 832.367188 543.921875 832.367188 543.921875 " clip-rule="nonzero"/></clipPath><clipPath id="fbea5ec492"><path d="M 821.140625 558.054688 L 869.734375 558.054688 L 869.734375 607.722656 L 821.140625 607.722656 Z M 821.140625 558.054688 " clip-rule="nonzero"/></clipPath><clipPath id="7055e16f04"><path d="M 869.714844 575.421875 C 869.714844 591.019531 867.917969 595.070312 865.515625 598.070312 C 863.191406 601.070312 859.742188 603.769531 856.21875 605.34375 C 852.691406 606.917969 848.417969 607.742188 844.59375 607.519531 C 840.769531 607.292969 836.570312 605.945312 833.269531 603.996094 C 829.96875 601.96875 826.894531 598.894531 824.871094 595.59375 C 822.917969 592.296875 821.570312 588.09375 821.34375 584.269531 C 821.121094 580.445312 821.945312 576.097656 823.519531 572.644531 C 825.09375 569.121094 827.792969 565.671875 830.792969 563.273438 C 833.792969 560.945312 837.84375 559.148438 841.59375 558.472656 C 845.34375 557.722656 849.769531 558.023438 853.441406 559.148438 C 857.117188 560.273438 863.566406 565.296875 863.566406 565.296875 " clip-rule="nonzero"/></clipPath><clipPath id="8862745ef9"><path d="M 829.164062 559.777344 L 877.761719 559.777344 L 877.761719 609.449219 L 829.164062 609.449219 Z M 829.164062 559.777344 " clip-rule="nonzero"/></clipPath><clipPath id="3fd39908e5"><path d="M 877.742188 577.222656 C 877.742188 592.820312 875.941406 596.792969 873.542969 599.871094 C 871.214844 602.871094 867.765625 605.570312 864.242188 607.144531 C 860.71875 608.71875 856.441406 609.46875 852.617188 609.242188 C 848.792969 609.019531 844.59375 607.742188 841.292969 605.71875 C 837.992188 603.769531 834.917969 600.621094 832.894531 597.394531 C 830.945312 594.09375 829.59375 589.894531 829.371094 586.070312 C 829.144531 582.246094 829.96875 577.894531 831.542969 574.445312 C 833.117188 570.921875 835.820312 567.472656 838.820312 565.070312 C 841.820312 562.746094 845.867188 560.945312 849.617188 560.199219 C 853.367188 559.523438 857.792969 559.824219 861.46875 560.945312 C 865.140625 562.070312 871.589844 567.097656 871.589844 567.097656 " clip-rule="nonzero"/></clipPath><clipPath id="eb76e75205"><path d="M 1107 1123.441406 L 1155.542969 1123.441406 L 1155.542969 1173 L 1107 1173 Z M 1107 1123.441406 " clip-rule="nonzero"/></clipPath><clipPath id="d5255a3f3f"><path d="M 1155.449219 1140.808594 C 1155.449219 1156.40625 1153.648438 1160.382812 1151.324219 1163.457031 C 1148.921875 1166.457031 1145.472656 1169.15625 1142.023438 1170.730469 C 1138.5 1172.304688 1134.148438 1173.132812 1130.324219 1172.90625 C 1126.5 1172.605469 1122.300781 1171.332031 1119 1169.382812 C 1115.773438 1167.355469 1112.625 1164.28125 1110.675781 1160.980469 C 1108.652344 1157.683594 1107.375 1153.480469 1107.152344 1149.65625 C 1106.925781 1145.832031 1107.675781 1141.484375 1109.25 1138.035156 C 1110.824219 1134.507812 1113.523438 1131.058594 1116.601562 1128.660156 C 1119.601562 1126.335938 1123.574219 1124.535156 1127.398438 1123.859375 C 1131.148438 1123.109375 1135.574219 1123.410156 1139.171875 1124.535156 C 1142.847656 1125.660156 1149.371094 1130.683594 1149.371094 1130.683594 " clip-rule="nonzero"/></clipPath><clipPath id="d834116777"><path d="M 662.226562 492 L 710.820312 492 L 710.820312 541.652344 L 662.226562 541.652344 Z M 662.226562 492 " clip-rule="nonzero"/></clipPath><clipPath id="2b97f072f1"><path d="M 710.726562 509.425781 C 710.800781 525.023438 709.003906 529 706.601562 532 C 704.277344 535.074219 700.753906 537.773438 697.304688 539.347656 C 693.777344 540.921875 689.429688 541.671875 685.605469 541.449219 C 681.777344 541.222656 677.578125 539.949219 674.355469 537.921875 C 671.054688 535.972656 667.90625 532.824219 665.957031 529.597656 C 663.929688 526.300781 662.65625 522.101562 662.429688 518.273438 C 662.207031 514.449219 662.957031 510.101562 664.53125 506.574219 C 666.105469 503.125 668.878906 499.675781 671.878906 497.277344 C 674.878906 494.953125 678.929688 493.078125 682.679688 492.402344 C 686.429688 491.726562 690.855469 492.027344 694.527344 493.152344 C 698.128906 494.277344 704.652344 499.300781 704.652344 499.300781 " clip-rule="nonzero"/></clipPath><clipPath id="c85b708901"><path d="M 849.875 382.457031 L 978.292969 382.457031 L 978.292969 424.386719 L 849.875 424.386719 Z M 849.875 382.457031 " clip-rule="nonzero"/></clipPath><clipPath id="f11f8bbd26"><path d="M 964.136719 424.382812 C 936.238281 424.304688 931.8125 423.554688 927.164062 422.054688 C 922.4375 420.558594 918.3125 417.03125 913.4375 415.757812 C 908.488281 414.40625 903.914062 414.40625 897.765625 414.183594 C 888.988281 413.808594 872.714844 415.382812 865.816406 414.558594 C 862.441406 414.183594 860.34375 413.582031 858.390625 412.757812 C 857.117188 412.15625 856.292969 411.632812 855.242188 410.582031 C 853.816406 409.15625 851.792969 406.234375 850.96875 404.359375 C 850.367188 403.007812 850.144531 402.109375 850.066406 400.609375 C 849.917969 398.582031 850.367188 395.058594 850.96875 393.109375 C 851.417969 391.683594 851.867188 390.859375 852.769531 389.734375 C 854.042969 388.082031 856.21875 385.835938 858.390625 384.632812 C 860.566406 383.507812 862.441406 383.058594 865.816406 382.835938 C 872.492188 382.382812 888.089844 384.785156 896.414062 386.359375 C 902.339844 387.558594 905.488281 389.957031 911.414062 390.558594 C 919.589844 391.382812 935.410156 388.160156 941.261719 388.382812 C 943.738281 388.535156 944.863281 388.683594 946.511719 389.285156 C 948.160156 389.808594 949.8125 390.707031 951.234375 391.757812 C 952.585938 392.808594 953.859375 394.160156 954.835938 395.582031 C 955.8125 397.007812 956.636719 398.734375 957.085938 400.457031 C 957.535156 402.109375 957.761719 403.984375 957.6875 405.707031 C 957.535156 407.433594 957.160156 409.308594 956.484375 410.882812 C 955.886719 412.53125 954.910156 414.105469 953.785156 415.457031 C 952.660156 416.808594 951.234375 418.007812 949.734375 418.90625 C 948.234375 419.808594 946.511719 420.480469 944.785156 420.855469 C 943.0625 421.230469 941.1875 421.304688 939.460938 421.15625 C 937.738281 420.933594 935.9375 420.480469 934.363281 419.730469 C 932.789062 418.980469 931.210938 417.933594 929.9375 416.730469 C 928.664062 415.53125 927.539062 414.03125 926.710938 412.53125 C 925.886719 410.957031 925.289062 409.234375 925.0625 407.507812 C 924.761719 405.78125 924.761719 403.90625 925.0625 402.183594 C 925.289062 400.457031 925.886719 398.65625 926.710938 397.160156 C 927.539062 395.582031 928.664062 394.082031 929.9375 392.882812 C 931.210938 391.683594 932.789062 390.632812 934.363281 389.882812 C 935.9375 389.207031 937.738281 388.683594 939.460938 388.457031 C 941.1875 388.308594 943.0625 388.382812 944.785156 388.757812 C 946.511719 389.132812 948.234375 389.808594 949.734375 390.707031 C 951.234375 391.609375 952.660156 392.882812 953.785156 394.160156 C 954.910156 395.507812 955.886719 397.082031 956.484375 398.734375 C 957.160156 400.382812 957.535156 402.183594 957.6875 403.90625 C 957.761719 405.707031 957.535156 407.507812 957.085938 409.234375 C 956.636719 410.882812 955.8125 412.605469 954.835938 414.03125 C 953.859375 415.457031 952.585938 416.808594 951.234375 417.933594 C 949.8125 418.980469 948.160156 419.808594 946.511719 420.40625 C 944.863281 420.933594 941.863281 421.980469 941.261719 421.230469 C 940.660156 420.558594 943.738281 416.957031 942.988281 416.207031 C 941.636719 414.855469 930.386719 421.832031 924.460938 422.65625 C 919.136719 423.40625 914.113281 422.429688 909.164062 421.757812 C 904.363281 421.007812 900.839844 419.582031 895.140625 418.53125 C 886.441406 416.957031 867.390625 415.457031 861.992188 414.105469 C 860.191406 413.65625 859.667969 413.507812 858.390625 412.757812 C 856.667969 411.707031 854.042969 409.382812 852.769531 407.734375 C 851.867188 406.53125 851.417969 405.707031 850.96875 404.359375 C 850.367188 402.332031 849.769531 399.257812 850.066406 396.785156 C 850.367188 394.382812 851.34375 391.683594 852.769531 389.734375 C 854.117188 387.707031 856.21875 385.835938 858.390625 384.632812 C 860.566406 383.507812 862.441406 383.210938 865.816406 382.835938 C 873.015625 382.007812 890.941406 382.835938 899.941406 383.285156 C 905.9375 383.585938 909.3125 383.285156 914.863281 384.632812 C 922.589844 386.507812 932.636719 393.707031 941.636719 395.582031 C 950.1875 397.382812 962.035156 394.910156 967.585938 396.410156 C 970.359375 397.082031 971.933594 398.058594 973.585938 399.558594 C 975.234375 400.984375 976.660156 403.457031 977.410156 405.109375 C 978.007812 406.308594 978.160156 407.132812 978.234375 408.484375 C 978.382812 410.28125 978.007812 413.433594 977.410156 415.230469 C 977.035156 416.433594 976.660156 417.183594 975.835938 418.230469 C 974.710938 419.65625 972.683594 421.679688 970.734375 422.730469 C 968.785156 423.78125 964.136719 424.382812 964.136719 424.382812 " clip-rule="nonzero"/></clipPath><clipPath id="fd51542af9"><path d="M 947.140625 310 L 974.378906 310 L 974.378906 337.75 L 947.140625 337.75 Z M 947.140625 310 " clip-rule="nonzero"/></clipPath><clipPath id="742ab0e850"><path d="M 974.335938 319.761719 C 974.335938 328.460938 973.359375 330.710938 972.007812 332.4375 C 970.734375 334.085938 968.785156 335.664062 966.835938 336.488281 C 964.808594 337.386719 962.410156 337.835938 960.308594 337.6875 C 958.136719 337.613281 955.8125 336.863281 953.9375 335.738281 C 952.0625 334.613281 950.335938 332.886719 949.210938 331.011719 C 948.160156 329.210938 947.410156 326.8125 947.261719 324.714844 C 947.109375 322.539062 947.5625 320.136719 948.460938 318.1875 C 949.359375 316.238281 950.859375 314.289062 952.585938 312.9375 C 954.234375 311.589844 956.484375 310.613281 958.585938 310.238281 C 960.761719 309.863281 963.160156 310.015625 965.261719 310.613281 C 967.285156 311.289062 970.960938 314.0625 970.960938 314.0625 " clip-rule="nonzero"/></clipPath><clipPath id="49ef70fba4"><path d="M 941.066406 316.0625 L 968.304688 316.0625 L 968.304688 343.957031 L 941.066406 343.957031 Z M 941.066406 316.0625 " clip-rule="nonzero"/></clipPath><clipPath id="fb0b9de692"><path d="M 968.261719 325.839844 C 968.261719 334.613281 967.285156 336.863281 965.933594 338.511719 C 964.585938 340.238281 962.636719 341.738281 960.683594 342.636719 C 958.734375 343.535156 956.335938 343.988281 954.160156 343.835938 C 951.984375 343.6875 949.660156 342.9375 947.859375 341.886719 C 945.988281 340.761719 944.261719 338.960938 943.136719 337.164062 C 942.011719 335.289062 941.261719 332.960938 941.1875 330.789062 C 941.035156 328.6875 941.488281 326.214844 942.386719 324.261719 C 943.210938 322.3125 944.785156 320.363281 946.4375 319.089844 C 948.160156 317.738281 950.410156 316.6875 952.511719 316.3125 C 954.609375 315.9375 957.085938 316.089844 959.109375 316.765625 C 961.210938 317.363281 964.808594 320.136719 964.808594 320.136719 " clip-rule="nonzero"/></clipPath><clipPath id="4f211695db"><path d="M 974.335938 942.488281 L 1079.1875 942.488281 L 1079.1875 989.316406 L 974.335938 989.316406 Z M 974.335938 942.488281 " clip-rule="nonzero"/></clipPath><clipPath id="30c5d39396"><path d="M 974.484375 963.59375 C 981.757812 946.046875 990.910156 944.019531 996.90625 943.046875 C 1002.15625 942.148438 1007.03125 942.898438 1012.132812 943.421875 C 1017.53125 944.019531 1023.15625 946.046875 1028.40625 946.644531 C 1033.128906 947.171875 1037.554688 946.871094 1042.28125 946.945312 C 1047.15625 947.019531 1053.003906 947.097656 1057.054688 947.019531 C 1059.828125 946.945312 1062.152344 946.644531 1064.101562 946.644531 C 1065.453125 946.644531 1066.351562 946.644531 1067.476562 946.871094 C 1068.601562 947.019531 1069.726562 947.394531 1070.777344 947.847656 C 1071.828125 948.296875 1072.804688 948.894531 1073.703125 949.644531 C 1074.601562 950.320312 1075.425781 951.144531 1076.101562 952.046875 C 1076.777344 952.945312 1077.378906 953.921875 1077.902344 954.972656 C 1078.351562 955.945312 1078.726562 957.070312 1078.878906 958.195312 C 1079.101562 959.320312 1079.175781 960.519531 1079.101562 961.644531 C 1079.027344 962.769531 1078.878906 963.894531 1078.503906 964.945312 C 1078.203125 966.070312 1077.675781 967.121094 1077.078125 968.09375 C 1076.550781 969.070312 1075.800781 969.96875 1074.976562 970.792969 C 1074.226562 971.621094 1073.328125 972.292969 1072.351562 972.894531 C 1071.378906 973.496094 1070.328125 973.945312 1069.203125 974.320312 C 1068.152344 974.621094 1065.828125 974.917969 1065.828125 974.917969 C 1065.828125 974.917969 1061.179688 975.292969 1058.855469 975.445312 C 1056.453125 975.59375 1052.480469 974.996094 1051.652344 975.820312 C 1051.277344 976.121094 1051.652344 976.945312 1051.503906 977.320312 C 1051.429688 977.621094 1051.203125 977.84375 1051.128906 978.144531 C 1051.054688 978.371094 1051.054688 978.667969 1050.980469 978.96875 C 1050.753906 979.417969 1050.304688 979.945312 1050.003906 980.46875 C 1049.78125 980.992188 1049.554688 981.667969 1049.328125 982.042969 C 1049.105469 982.34375 1048.878906 982.492188 1048.730469 982.71875 C 1048.503906 982.945312 1048.503906 983.167969 1048.28125 983.46875 C 1047.90625 983.84375 1047.304688 984.21875 1046.929688 984.59375 C 1046.480469 984.96875 1046.105469 985.570312 1045.730469 985.867188 C 1045.429688 986.09375 1045.203125 986.09375 1044.90625 986.242188 C 1044.679688 986.46875 1044.53125 986.695312 1044.304688 986.84375 C 1043.855469 987.070312 1043.179688 987.21875 1042.65625 987.519531 C 1042.128906 987.742188 1041.53125 988.117188 1041.078125 988.269531 C 1040.78125 988.417969 1040.480469 988.34375 1040.253906 988.417969 C 1039.953125 988.492188 1039.730469 988.71875 1039.429688 988.792969 C 1038.980469 988.867188 1038.230469 988.792969 1037.707031 988.867188 C 1037.105469 988.945312 1036.65625 989.09375 1035.980469 989.167969 C 1034.628906 989.242188 1032.679688 989.320312 1030.355469 989.09375 C 1026.757812 988.792969 1020.980469 987.21875 1016.257812 986.695312 C 1011.308594 986.019531 1006.433594 986.394531 1001.332031 985.492188 C 995.707031 984.59375 988.207031 984.367188 983.785156 980.917969 C 979.210938 977.246094 974.484375 963.59375 974.484375 963.59375 " clip-rule="nonzero"/></clipPath><clipPath id="ea5ba845c3"><path d="M 698.535156 515.699219 L 725.769531 515.699219 L 725.769531 543.460938 L 698.535156 543.460938 Z M 698.535156 515.699219 " clip-rule="nonzero"/></clipPath><clipPath id="6983acb383"><path d="M 725.726562 525.476562 C 725.726562 534.175781 724.75 536.425781 723.402344 538.148438 C 722.125 539.796875 720.175781 541.375 718.152344 542.199219 C 716.203125 543.097656 713.800781 543.546875 711.628906 543.398438 C 709.527344 543.324219 707.128906 542.574219 705.328125 541.449219 C 703.453125 540.324219 701.726562 538.597656 700.601562 536.722656 C 699.476562 534.925781 698.804688 532.523438 698.652344 530.425781 C 698.503906 528.25 698.953125 525.847656 699.851562 523.898438 C 700.753906 521.949219 702.253906 520 703.976562 518.648438 C 705.628906 517.300781 707.878906 516.324219 709.976562 515.949219 C 712.078125 515.574219 714.550781 515.726562 716.652344 516.324219 C 718.675781 517 722.277344 519.773438 722.277344 519.773438 " clip-rule="nonzero"/></clipPath><clipPath id="7ca8f456a3"><path d="M 834.875 528.222656 L 862.113281 528.222656 L 862.113281 556.117188 L 834.875 556.117188 Z M 834.875 528.222656 " clip-rule="nonzero"/></clipPath><clipPath id="7e4e3f1adc"><path d="M 862.066406 538 C 862.066406 546.773438 861.09375 549.023438 859.742188 550.671875 C 858.390625 552.398438 856.515625 553.898438 854.492188 554.796875 C 852.542969 555.699219 850.144531 556.148438 847.96875 555.996094 C 845.867188 555.847656 843.46875 555.097656 841.667969 554.046875 C 839.792969 552.921875 838.070312 551.121094 836.945312 549.324219 C 835.820312 547.449219 835.144531 545.125 834.992188 542.949219 C 834.84375 540.847656 835.292969 538.375 836.195312 536.425781 C 837.09375 534.472656 838.59375 532.523438 840.242188 531.25 C 841.96875 529.898438 844.21875 528.847656 846.316406 528.472656 C 848.417969 528.097656 850.894531 528.25 852.992188 528.925781 C 855.015625 529.523438 858.617188 532.300781 858.617188 532.300781 " clip-rule="nonzero"/></clipPath></defs><g clip-path="url(#1085e797d0)"><path fill="#000000" d="M 933.53125 140.832031 C 579.5625 140.832031 293.824219 426.566406 293.824219 780.539062 C 293.824219 1134.507812 579.5625 1420.246094 933.53125 1420.246094 C 1287.503906 1420.246094 1573.238281 1134.507812 1573.238281 780.539062 C 1573.238281 426.566406 1287.503906 140.832031 933.53125 140.832031 Z M 933.53125 1363.382812 C 612.257812 1363.382812 350.6875 1101.8125 350.6875 780.539062 C 350.6875 459.261719 612.257812 197.691406 933.53125 197.691406 C 1254.808594 197.691406 1516.375 459.261719 1516.375 780.539062 C 1516.375 1101.8125 1254.808594 1363.382812 933.53125 1363.382812 Z M 933.53125 1363.382812 " fill-opacity="1" fill-rule="nonzero"/></g><path fill="#231f20" d="M 1126.207031 332.597656 C 1134.894531 289.53125 1098.210938 279.441406 1058.4375 306.902344 L 953.433594 297.574219 C 914.367188 271.136719 876.5625 274.246094 840.023438 306.902344 C 802.878906 314.714844 779.457031 331.25 769.75 356.519531 L 733.6875 373.75 C 740.113281 363.070312 742.125 356.167969 739.730469 353.035156 C 742.695312 342.089844 748.445312 336.335938 756.992188 335.769531 C 744.441406 332.824219 736.960938 336.566406 734.550781 346.992188 C 728.875 345.984375 723.40625 350.011719 718.148438 359.078125 C 721.042969 348.78125 721.90625 342.164062 720.742188 339.222656 C 720.957031 329.828125 726.996094 325.511719 738.863281 326.277344 C 726.375 321.78125 717.457031 323.503906 712.105469 331.460938 C 707.171875 328.332031 706.011719 335.457031 703.476562 350.445312 C 703.054688 340.640625 701.902344 335.171875 700.023438 334.046875 C 694.792969 326.085938 696.519531 319.183594 705.199219 313.332031 C 695.074219 315.003906 689.03125 321.335938 687.078125 332.324219 C 681.3125 334.140625 674.410156 346.511719 666.359375 369.429688 C 654.277344 424.671875 485.09375 473 585.21875 528.238281 C 498.789062 657.355469 500.175781 793.621094 589.378906 937.015625 C 483.21875 889.722656 442.375 943.96875 560.335938 1041.625 C 559.023438 1060.378906 539.9375 1076.199219 503.078125 1089.09375 C 484.402344 1090.5 476.203125 1100.949219 478.476562 1120.449219 C 482.703125 1107.300781 491.574219 1101.117188 505.089844 1101.894531 C 512.320312 1099.585938 515.582031 1100.832031 514.867188 1105.632812 C 498.53125 1110.5625 490.667969 1120.101562 491.277344 1134.261719 C 497.3125 1123.796875 506.515625 1117.949219 518.902344 1116.714844 C 525.582031 1116.976562 528.167969 1120.574219 526.667969 1127.5 C 512.394531 1133.523438 505.542969 1143.734375 506.101562 1158.144531 C 512.574219 1146.992188 522.121094 1140.039062 534.726562 1137.277344 C 543.453125 1136.355469 548.0625 1138.703125 548.539062 1144.332031 C 540.1875 1154.382812 538.167969 1166.847656 542.492188 1181.730469 C 549.199219 1167.949219 557.734375 1157.738281 568.101562 1151.085938 C 619.796875 1132.101562 638.324219 1123.9375 622.335938 1056.4375 C 675.210938 1089.714844 721.117188 1106.339844 760.050781 1106.316406 C 1074.40625 1395.238281 1455.953125 1233.8125 1233.914062 769.664062 C 1262.605469 1037.273438 1116.636719 1181.660156 964.125 1005.492188 L 971.507812 983.105469 C 991.285156 998.140625 1031.285156 996.753906 1091.515625 978.945312 C 1104.257812 975.828125 1116.683594 977.578125 1128.785156 984.179688 C 1121.320312 973.597656 1110.683594 967.921875 1096.871094 967.148438 C 1088.492188 963.84375 1087.777344 960.308594 1094.730469 956.558594 C 1108.546875 948.28125 1119.542969 949.347656 1127.710938 959.773438 C 1126.421875 944.234375 1116.859375 938.5625 1099.019531 942.75 C 1088.277344 938.097656 1087.917969 933.496094 1097.945312 928.941406 C 1104.84375 919.824219 1115.121094 918.078125 1128.785156 923.710938 C 1119.789062 911.191406 1108.4375 908.328125 1094.730469 915.128906 C 1082.742188 912.125 1080.640625 907.164062 1088.421875 900.253906 C 1094.863281 892.125 1106.167969 889.667969 1122.355469 892.871094 C 1107.6875 881.738281 1091.058594 881.382812 1072.46875 891.804688 C 1057.632812 892.914062 1033.542969 902.117188 1000.195312 919.417969 C 986.796875 730.316406 919.726562 717.347656 881.609375 878.90625 C 867.402344 747.101562 845.234375 664.839844 815.117188 632.136719 C 863.667969 629.757812 896.667969 624.972656 914.125 617.757812 C 931.644531 631.367188 952.019531 638.078125 975.253906 637.882812 C 985.3125 639.375 989.34375 640.835938 996.988281 657.042969 C 994.757812 636.613281 992.832031 633.402344 981.570312 632.636719 L 970.972656 620.433594 C 981.191406 622.359375 987.402344 621.648438 989.601562 618.292969 C 1001.167969 618.589844 1009.300781 621.941406 1014.007812 628.355469 C 1014.019531 618.761719 1008.34375 613.269531 996.988281 611.871094 L 981.035156 604.484375 C 993.1875 601.484375 999.929688 598.273438 1001.269531 594.84375 C 1011.105469 589.449219 1018.703125 589.628906 1024.070312 595.386719 C 1021.6875 585.039062 1015.511719 581.503906 1005.554688 584.789062 L 982.109375 584.789062 C 990.335938 580.683594 994.585938 575.1875 994.847656 568.300781 C 998.765625 561.800781 1007.472656 560.054688 1020.972656 563.054688 C 1017.542969 555.730469 1008.152344 553.769531 992.816406 557.171875 L 969.898438 565.199219 L 974.1875 555.5625 C 976.839844 550.675781 982.875 547.683594 992.28125 546.570312 C 985.226562 543.167969 977.769531 543.882812 969.898438 548.710938 C 961.964844 544.886719 946.585938 552.308594 923.757812 570.972656 C 904.023438 572.234375 883.285156 568.164062 861.554688 558.773438 C 874.996094 543.296875 882.277344 527.34375 883.398438 510.925781 C 893.6875 506.839844 899.679688 494.992188 901.382812 475.382812 C 948.460938 474.9375 986.714844 466.621094 1016.148438 450.445312 C 1042.527344 460.566406 1068.359375 463.207031 1093.664062 458.359375 C 1117.828125 466.378906 1130.386719 448.839844 1114.433594 432.886719 L 1094.734375 434.496094 L 1095.269531 419.078125 L 1086.816406 435.5625 L 1076.210938 433.953125 L 1068.722656 416.402344 L 1067.113281 431.28125 L 1055.441406 429.671875 L 1051.160156 413.832031 L 1046.988281 429.140625 L 1039.492188 426.035156 L 1039.492188 413.296875 L 1033.710938 423.359375 L 1021.507812 418.003906 L 1020.972656 404.734375 L 1014.546875 418.542969 L 1007.160156 414.796875 L 1006.628906 400.984375 L 999.128906 409.550781 L 994.847656 405.265625 L 994.847656 391.992188 L 987.460938 403.660156 L 981.035156 398.414062 L 980.070312 384.070312 L 975.253906 395.207031 L 966.265625 390.921875 L 967.222656 381.394531 L 957.695312 388.78125 L 956.085938 377.113281 L 949.238281 383.960938 C 925.683594 377.503906 905.128906 375.929688 887.570312 379.253906 C 886.902344 362.683594 943.882812 366.519531 984.25 359.132812 L 999.664062 371.335938 L 994.3125 354.851562 L 1001.269531 350.035156 L 1015.617188 364.371094 L 1009.191406 347.351562 L 1022.46875 345.746094 L 1029.960938 356.457031 L 1034.785156 345.746094 L 1039.492188 345.320312 L 1044.3125 357.523438 L 1047.523438 345.746094 L 1054.375 348.425781 L 1058.117188 360.628906 L 1063.363281 343.714844 L 1073.003906 358.058594 L 1076.210938 344.253906 L 1085.207031 342.113281 L 1089.492188 360.089844 L 1094.195312 342.113281 L 1101.160156 341.039062 L 1112.289062 358.058594 L 1112.289062 338.898438 L 1126.207031 332.597656 " fill-opacity="1" fill-rule="evenodd"/><path fill="#ffffff" d="M 925.546875 326.335938 C 904.875 308.414062 890.070312 309.40625 881.140625 329.3125 C 895.503906 336.664062 910.304688 335.671875 925.546875 326.335938 " fill-opacity="1" fill-rule="evenodd"/><path fill="#231f20" d="M 891.382812 323.367188 C 891.382812 318.695312 895.804688 314.910156 901.257812 314.910156 C 906.714844 314.910156 911.140625 318.695312 911.140625 323.367188 C 911.140625 328.03125 906.714844 331.820312 901.257812 331.820312 C 895.804688 331.820312 891.382812 328.03125 891.382812 323.367188 " fill-opacity="1" fill-rule="nonzero"/><path fill="#ffffff" d="M 900.429688 315.503906 L 904.597656 322.09375 L 901.863281 330.5625 L 897.765625 324.011719 L 900.429688 315.503906 " fill-opacity="1" fill-rule="evenodd"/><path fill="#ffffff" d="M 1085.921875 312.53125 C 1096.558594 302.4375 1102.546875 303.625 1103.894531 316.101562 C 1098.976562 310.207031 1092.988281 309.015625 1085.921875 312.53125 " fill-opacity="1" fill-rule="evenodd"/><path fill="#ffffff" d="M 1114.136719 315.503906 C 1125.117188 329.445312 1092.300781 335.882812 1015.675781 334.789062 C 1066.230469 331.703125 1099.054688 325.273438 1114.136719 315.503906 " fill-opacity="1" fill-rule="evenodd"/><path fill="#ffffff" d="M 992.816406 345.03125 C 918.40625 357.523438 876.382812 336.578125 867.328125 383.953125 C 888.40625 341.933594 946.621094 365.386719 992.816406 345.03125 " fill-opacity="1" fill-rule="evenodd"/><path fill="#ffffff" d="M 912.453125 434.902344 C 948.410156 436.328125 971.824219 433.949219 982.699219 427.765625 C 1022.105469 439.042969 1057.300781 447.0625 1088.300781 451.808594 C 1063.644531 455.03125 1029.433594 449.835938 985.679688 436.21875 C 961.625 441.574219 943.425781 437.921875 912.453125 434.902344 " fill-opacity="1" fill-rule="evenodd"/><path fill="#ffffff" d="M 991.625 445.265625 C 982.792969 456.375 964.578125 459.351562 936.976562 454.195312 C 925.179688 459.074219 907.996094 462.289062 885.429688 463.835938 L 858.402344 442.886719 L 881.140625 472.882812 L 879.351562 506.449219 L 891.382812 468.59375 C 918.867188 469.078125 933.472656 465.3125 935.191406 457.292969 C 963.46875 464.605469 982.28125 460.59375 991.625 445.265625 " fill-opacity="1" fill-rule="evenodd"/><path fill="#ffffff" d="M 840.304688 398.355469 C 840.070312 421.753906 855.507812 432.984375 886.617188 432.050781 C 863.539062 426.371094 848.097656 415.136719 840.304688 398.355469 " fill-opacity="1" fill-rule="evenodd"/><path fill="#ffffff" d="M 867.328125 395.386719 C 899.699219 383.039062 935.933594 387.042969 976.027344 407.410156 L 947.8125 421.21875 L 954.484375 407.410156 L 939.355469 419.429688 L 941.265625 405.03125 L 925.671875 420.621094 L 925.671875 403.839844 L 911.140625 412.167969 L 914.242188 400.144531 L 899.835938 409.789062 L 902.21875 401.460938 L 887.808594 408.007812 L 891.382812 395.976562 L 877.570312 409.789062 L 878.164062 397.765625 L 870.425781 405.621094 L 867.328125 395.386719 " fill-opacity="1" fill-rule="evenodd"/><path fill="#ffffff" d="M 863.160156 509.433594 C 860.8125 529.910156 852.375 550.121094 837.835938 570.058594 C 848.21875 567.75 874.308594 570.554688 916.109375 578.484375 L 867.757812 598.4375 L 873.144531 587.695312 L 849.351562 595.375 L 856.246094 583.101562 L 834.011719 592.285156 L 841.667969 579.25 L 814.050781 582.335938 L 826.328125 566.203125 L 790.28125 566.203125 L 829.417969 553.949219 L 805.625 547.800781 L 836.304688 546.265625 L 824.03125 529.394531 L 839.367188 529.394531 L 833.246094 517.117188 L 847.816406 523.242188 L 863.160156 509.433594 " fill-opacity="1" fill-rule="evenodd"/><path fill="#ffffff" d="M 830.175781 446.539062 C 850.039062 446.164062 864.617188 467.390625 873.910156 510.199219 C 864.949219 480.617188 850.371094 459.398438 830.175781 446.539062 " fill-opacity="1" fill-rule="evenodd"/><path fill="#ffffff" d="M 778 538.585938 C 729.777344 592.296875 745.121094 618.898438 824.03125 618.375 C 763.503906 609.589844 748.160156 582.992188 778 538.585938 " fill-opacity="1" fill-rule="evenodd"/><path fill="#ffffff" d="M 931.453125 599.96875 C 901.085938 612.742188 879.851562 617.859375 867.757812 615.3125 L 931.453125 599.96875 " fill-opacity="1" fill-rule="evenodd"/><path fill="#ffffff" d="M 797.175781 642.164062 C 833.984375 699.308594 857.769531 776.800781 868.523438 874.625 L 814.050781 830.128906 L 842.457031 835.492188 L 810.984375 810.933594 L 838.601562 815.554688 L 796.40625 784.085938 L 828.648438 787.941406 L 789.515625 761.085938 L 826.328125 766.449219 L 787.214844 737.296875 L 820.199219 741.125 L 778 708.144531 L 811.75 716.570312 L 777.234375 691.269531 L 801.792969 691.269531 L 775.703125 670.550781 L 798.707031 672.847656 L 780.296875 654.441406 L 796.40625 661.335938 L 797.175781 642.164062 " fill-opacity="1" fill-rule="evenodd"/><path fill="#ffffff" d="M 764.1875 432.730469 L 725.820312 445.773438 L 732.734375 465.710938 L 697.433594 489.496094 L 710.476562 502.539062 L 682.09375 519.414062 L 698.96875 536.289062 L 665.214844 570.035156 L 687.453125 578.484375 L 655.234375 614.546875 L 678.261719 626.058594 L 655.234375 666.722656 L 685.15625 679.765625 L 678.261719 717.335938 L 699.734375 719.65625 L 695.136719 757.234375 L 716.601562 764.914062 L 710.476562 801.75 L 731.96875 802.515625 L 725.820312 835.492188 L 744.992188 840.851562 L 742.695312 871.558594 L 764.1875 874.625 L 758.039062 903.773438 L 784.894531 903.773438 L 781.066406 932.921875 L 804.089844 929.097656 L 794.875 915.285156 L 792.578125 896.09375 L 772.613281 896.09375 L 772.613281 860.8125 L 750.378906 860.8125 L 750.378906 823.214844 L 738.097656 823.214844 L 745.78125 784.085938 L 720.460938 789.472656 L 726.585938 754.167969 L 703.5625 752.636719 L 708.183594 708.910156 L 688.21875 706.613281 L 695.136719 665.953125 L 668.28125 660.570312 L 690.542969 621.460938 L 672.109375 613.777344 L 702.03125 579.25 L 685.921875 566.992188 L 711.246094 535.519531 L 698.96875 523.242188 L 734.269531 504.835938 L 714.304688 491.027344 L 747.3125 477.21875 L 736.566406 471.863281 L 756.503906 456.519531 L 740.394531 449.605469 L 764.1875 432.730469 " fill-opacity="1" fill-rule="evenodd"/><path fill="#ffffff" d="M 716.632812 439.625 L 692.839844 459.585938 L 701.265625 474.925781 L 665.980469 496.390625 L 679.792969 510.199219 L 641.421875 533.988281 L 659.832031 556.246094 L 641.421875 586.160156 L 651.40625 596.140625 L 634.507812 628.355469 L 642.957031 636.804688 L 629.144531 674.378906 L 656 688.957031 L 637.59375 724.253906 L 660.597656 735.765625 L 649.871094 767.214844 L 679.792969 780.257812 L 671.34375 806.34375 L 702.796875 821.679688 L 686.6875 853.898438 L 721.226562 867.707031 L 705.882812 889.964844 L 739.628906 912.222656 L 728.117188 928.332031 L 764.1875 949.792969 L 728.117188 949.792969 L 731.179688 938.28125 L 709.714844 926.792969 L 722.761719 913.753906 L 687.453125 878.453125 L 695.136719 870.769531 L 668.28125 850.066406 L 683.625 825.511719 L 649.871094 809.410156 L 665.214844 790.238281 L 632.972656 771.042969 L 646.785156 740.359375 L 621.460938 730.378906 L 640.65625 685.125 L 616.863281 669.019531 L 633.738281 647.527344 L 626.078125 624.523438 L 639.890625 598.4375 L 627.613281 583.867188 L 645.253906 560.078125 L 629.910156 531.691406 L 658.300781 509.433594 L 650.640625 491.027344 L 684.390625 469.542969 L 675.941406 458.050781 L 716.632812 439.625 " fill-opacity="1" fill-rule="evenodd"/><path fill="#ffffff" d="M 641.421875 492.558594 L 613.035156 527.097656 L 621.484375 543.203125 L 599.988281 564.695312 L 614.566406 588.457031 L 590.011719 619.90625 L 608.4375 632.949219 L 584.652344 662.101562 L 601.527344 674.378906 L 583.886719 709.675781 L 604.585938 724.253906 L 590.777344 745.746094 L 611.503906 758.765625 L 601.527344 788.707031 L 618.394531 805.578125 L 609.96875 820.148438 L 636.828125 840.851562 L 617.628906 860.046875 L 654.46875 879.21875 L 640.65625 897.625 L 675.175781 918.351562 L 649.871094 925.242188 L 692.839844 947.496094 L 632.972656 924.476562 L 645.253906 912.199219 L 616.863281 896.09375 L 627.613281 879.21875 L 595.398438 862.34375 L 606.882812 842.382812 L 582.351562 827.808594 L 599.988281 810.167969 L 576.96875 788.707031 L 593.078125 768.746094 L 576.203125 746.511719 L 584.652344 727.316406 L 572.371094 703.527344 L 584.652344 674.378906 L 570.839844 660.570312 L 589.246094 636.804688 L 576.96875 615.3125 L 599.988281 582.335938 L 586.183594 553.949219 L 606.117188 541.671875 L 599.988281 520.945312 L 641.421875 492.558594 " fill-opacity="1" fill-rule="evenodd"/><path fill="#ffffff" d="M 642.1875 474.925781 C 578.4375 520.144531 555.164062 518.867188 572.371094 471.097656 C 567.171875 496.355469 590.441406 497.632812 642.1875 474.925781 " fill-opacity="1" fill-rule="evenodd"/><path fill="#ffffff" d="M 774.171875 371.339844 C 691.996094 388.980469 647.75 414.300781 641.421875 447.304688 C 668.890625 420.789062 713.144531 395.472656 774.171875 371.339844 " fill-opacity="1" fill-rule="evenodd"/><path fill="#ffffff" d="M 802.558594 379.789062 C 790.808594 392.9375 799.246094 408.277344 827.859375 425.8125 C 811.628906 410.496094 803.191406 395.160156 802.558594 379.789062 " fill-opacity="1" fill-rule="evenodd"/><path fill="#ffffff" d="M 944.242188 312.085938 C 904.675781 280.253906 873.492188 284.414062 850.691406 324.554688 C 875.355469 296.808594 906.539062 292.652344 944.242188 312.085938 " fill-opacity="1" fill-rule="evenodd"/><path fill="#ffffff" d="M 855.152344 334.332031 C 849.035156 353.214844 840.722656 358.414062 830.1875 349.941406 C 837.550781 350.445312 845.875 345.242188 855.152344 334.332031 " fill-opacity="1" fill-rule="evenodd"/><path fill="#ffffff" d="M 1051.605469 312.085938 L 982.554688 315.203125 L 1064.972656 317.863281 Z M 1051.605469 312.085938 " fill-opacity="1" fill-rule="evenodd"/><path fill="#ffffff" d="M 1278.570312 1011.777344 L 1254.183594 1019.332031 L 1260.441406 1056.4375 L 1232.816406 1056.4375 L 1232.816406 1094.628906 L 1207.351562 1094.628906 L 1201.097656 1137.136719 L 1186.207031 1114.914062 L 1153.191406 1147.929688 L 1140.460938 1135.199219 L 1109.597656 1175.324219 L 1104.421875 1146.632812 L 1061.914062 1175.324219 L 1057.597656 1144.691406 L 1024.578125 1170.148438 L 1024.578125 1133.902344 L 985.300781 1155.265625 L 974.726562 1124.40625 L 946.03125 1140.375 L 938.695312 1097.867188 L 884.308594 1111.675781 C 1072.238281 1257.789062 1203.660156 1224.488281 1278.570312 1011.777344 " fill-opacity="1" fill-rule="evenodd"/><path fill="#ffffff" d="M 1260.441406 864.191406 L 1270.152344 970.347656 L 1278.570312 967.109375 Z M 1260.441406 864.191406 " fill-opacity="1" fill-rule="evenodd"/><path fill="#ffffff" d="M 965.234375 1065.078125 L 982.0625 1062.914062 L 982.0625 1082.976562 L 1015.082031 1075.644531 L 1018.320312 1098.945312 L 1052.199219 1091.390625 L 1052.199219 1109.519531 L 1083.054688 1098.945312 L 1090.609375 1114.914062 L 1118.234375 1100.027344 L 1132.902344 1103.261719 L 1146.714844 1081.898438 L 1160.527344 1090.53125 L 1173.480469 1064.851562 L 1186.207031 1071.328125 L 1200.015625 1040.476562 L 1205.195312 1040.476562 L 1222.242188 989.550781 C 1223.324219 1154.1875 996.953125 1142.535156 965.234375 1065.078125 " fill-opacity="1" fill-rule="evenodd"/><path fill="#ffffff" d="M 943.871094 859.875 C 964.84375 947.570312 963.40625 997.484375 939.546875 1009.617188 C 949.160156 978.695312 950.597656 928.785156 943.871094 859.875 " fill-opacity="1" fill-rule="evenodd"/><path fill="#ffffff" d="M 706.929688 1015.871094 C 604.960938 945.066406 536.265625 917.515625 500.84375 933.234375 L 531.703125 972.503906 L 537.101562 948.980469 L 557.167969 974.664062 L 560.40625 955.457031 L 577.457031 980.917969 L 583.710938 961.710938 L 607.230469 995.808594 L 612.40625 976.601562 L 641.109375 1010.695312 L 647.585938 988.472656 L 670.890625 1011.777344 L 671.972656 1001.203125 L 689.019531 1016.09375 L 706.929688 1015.871094 " fill-opacity="1" fill-rule="evenodd"/><path fill="#ffffff" d="M 572.058594 1011.777344 C 618.363281 1083.773438 620.878906 1120.960938 579.613281 1123.328125 C 610.445312 1111.21875 607.925781 1074.035156 572.058594 1011.777344 " fill-opacity="1" fill-rule="evenodd"/><path fill="#ffffff" d="M 738.863281 985.457031 C 719.621094 1004.164062 738.394531 1017.902344 795.1875 1026.664062 C 755.960938 1014.246094 737.1875 1000.511719 738.863281 985.457031 " fill-opacity="1" fill-rule="evenodd"/><path fill="#ffffff" d="M 807.921875 951.582031 C 788.671875 970.292969 807.445312 984.027344 864.242188 992.789062 C 825.015625 980.375 806.238281 966.640625 807.921875 951.582031 " fill-opacity="1" fill-rule="evenodd"/><path fill="#ffffff" d="M 783.535156 972.726562 C 764.289062 991.4375 783.066406 1005.171875 839.863281 1013.933594 C 800.632812 1001.515625 781.859375 987.78125 783.535156 972.726562 " fill-opacity="1" fill-rule="evenodd"/><path fill="#ffffff" d="M 1070.324219 973.585938 L 981.929688 979.902344 L 994.160156 958.984375 L 994.160156 972.796875 L 1005.222656 958.195312 L 1004.433594 974.375 L 1016.660156 957.40625 L 1016.660156 970.425781 L 1031.261719 955.828125 L 1031.261719 962.148438 L 1044.285156 949.125 L 1044.285156 965.304688 L 1058.882812 950.707031 L 1051.777344 969.636719 L 1067.164062 947.546875 L 1070.324219 973.585938 " fill-opacity="1" fill-rule="evenodd"/><path fill="#ffffff" d="M 947.609375 846.144531 L 970.492188 925.457031 L 978.390625 898.222656 L 972.859375 898.222656 L 975.230469 873.765625 L 964.578125 884.410156 L 968.90625 846.144531 L 958.257812 861.53125 L 963 828.382812 L 952.34375 847.722656 L 946.820312 807.878906 L 947.609375 846.144531 " fill-opacity="1" fill-rule="evenodd"/><path fill="#ffffff" d="M 810.289062 1035.164062 C 791.039062 1053.871094 809.820312 1067.613281 866.613281 1076.371094 C 827.386719 1063.957031 808.613281 1050.222656 810.289062 1035.164062 " fill-opacity="1" fill-rule="evenodd"/><path fill="#ffffff" d="M 879.347656 1001.292969 C 860.097656 1020 878.871094 1033.738281 935.667969 1042.5 C 896.4375 1030.082031 877.664062 1016.347656 879.347656 1001.292969 " fill-opacity="1" fill-rule="evenodd"/><path fill="#ffffff" d="M 854.960938 1022.433594 C 835.710938 1041.140625 854.484375 1054.882812 911.28125 1063.636719 C 872.058594 1051.226562 853.277344 1037.492188 854.960938 1022.433594 " fill-opacity="1" fill-rule="evenodd"/><path fill="#ffffff" d="M 954.359375 319.859375 C 944.863281 327.617188 932.226562 334.308594 916.453125 339.925781 L 959.835938 339.925781 L 942.507812 334.449219 L 964.140625 332.492188 L 948.769531 328.859375 L 971.304688 327.292969 L 953.96875 324.945312 L 973.257812 321.03125 L 954.359375 319.859375 " fill-opacity="1" fill-rule="evenodd"/><path stroke-linecap="butt" transform="matrix(0.74995, 0, 0, 0.74995, 1014.802091, 525.646639)" fill="none" stroke-linejoin="miter" d="M 11.775087 178.847762 C 11.775087 148.26758 20.197529 125.083729 37.047621 109.301417 C 53.934173 93.477436 77.930579 85.565445 109.026421 85.565445 C 140.122263 85.565445 164.134295 93.519105 181.067725 109.431634 C 198.048034 125.297285 206.53298 148.434258 206.53298 178.847762 C 206.53298 199.109542 202.715015 216.194024 195.079085 230.10121 C 187.490032 243.961517 176.442414 254.477849 161.93623 261.63979 L 203.079623 303.356137 L 134.168737 303.356137 L 106.401244 272.135287 C 75.98774 271.624836 52.616376 263.452412 36.276735 247.62843 C 19.942303 231.804449 11.775087 208.875824 11.775087 178.847762 Z M 147.284203 170.46699 C 147.284203 157.716132 144.002732 147.585242 137.434582 140.07432 C 130.908101 132.568607 121.438714 128.813146 109.026421 128.813146 C 96.614128 128.813146 87.165575 132.568607 80.680764 140.07432 C 74.242831 147.585242 71.018656 157.716132 71.018656 170.46699 L 71.018656 187.228534 C 71.018656 199.9846 74.242831 210.11549 80.680764 217.621204 C 87.165575 225.132125 96.614128 228.882378 109.026421 228.882378 C 121.438714 228.882378 130.908101 225.132125 137.434582 217.621204 C 144.002732 210.11549 147.284203 199.9846 147.284203 187.228534 Z M 336.750073 134.829176 L 336.750073 268.99966 L 278.850345 268.99966 L 278.850345 134.829176 L 219.601567 134.829176 L 219.601567 88.701073 L 395.743625 88.701073 L 395.743625 134.829176 Z M 466.493175 127.474514 C 485.004837 127.474514 500.682975 131.099758 513.522381 138.350246 C 526.356577 145.600734 532.778884 156.820239 532.778884 172.003552 L 484.28083 172.003552 C 484.28083 166.971963 482.020262 163.409223 477.499124 161.320541 C 474.342662 159.570424 470.415314 158.695365 465.727499 158.695365 C 453.143319 158.695365 446.851229 161.659106 446.851229 167.586588 C 446.851229 170.914937 449.028459 173.284888 453.37771 174.691232 C 457.726961 176.055907 464.89411 177.524756 474.873948 179.102987 C 487.114354 180.853105 497.333792 182.920953 505.521843 185.311738 C 513.756771 187.655646 520.918712 191.838219 527.01808 197.854249 C 533.117449 203.86507 536.169738 212.29272 536.169738 223.126782 C 536.169738 240.78422 529.580753 253.3684 516.397574 260.874113 C 503.219604 268.379826 485.963235 272.135287 464.638884 272.135287 C 452.393269 272.135287 440.856034 270.426839 430.021972 267.015151 C 419.229579 263.603463 410.421695 258.337484 403.59832 251.212005 C 396.774944 244.044856 393.363256 234.940077 393.363256 223.892459 L 441.86131 223.892459 L 441.86131 224.981074 C 442.033197 230.908556 444.502113 235.070294 449.283684 237.455871 C 454.101717 239.804987 459.221853 240.976941 464.638884 240.976941 C 479.13986 240.976941 486.390347 237.565253 486.390347 230.736669 C 486.390347 227.241642 484.108944 224.705013 479.546137 223.126782 C 475.024999 221.548551 467.602625 219.881772 457.279014 218.136863 C 444.90839 216.042972 434.735831 213.782404 426.761336 211.349948 C 418.828511 208.922702 411.874918 204.781798 405.900558 198.937655 C 399.973076 193.051842 397.009335 184.863792 397.009335 174.368294 C 397.009335 157.434863 403.426433 145.387178 416.265838 138.220029 C 429.146913 131.05288 445.892831 127.474514 466.493175 127.474514 Z M 466.493175 127.474514 " stroke="#0d0d0e" stroke-width="4.58633" stroke-opacity="1" stroke-miterlimit="4"/><g fill="#000000" fill-opacity="1"><g transform="translate(1014.802091, 727.383068)"><g><path d="M 8.84375 -67.609375 C 8.84375 -90.535156 15.164062 -107.925781 27.8125 -119.78125 C 40.457031 -131.644531 58.441406 -137.578125 81.765625 -137.578125 C 105.085938 -137.578125 123.101562 -131.613281 135.8125 -119.6875 C 148.519531 -107.769531 154.875 -90.410156 154.875 -67.609375 C 154.875 -52.410156 152.023438 -39.601562 146.328125 -29.1875 C 140.628906 -18.769531 132.34375 -10.875 121.46875 -5.5 L 152.328125 25.75 L 100.625 25.75 L 79.796875 2.359375 C 56.992188 1.960938 39.46875 -4.160156 27.21875 -16.015625 C 14.96875 -27.878906 8.84375 -45.078125 8.84375 -67.609375 Z M 110.453125 -73.90625 C 110.453125 -83.46875 107.992188 -91.066406 103.078125 -96.703125 C 98.171875 -102.335938 91.066406 -105.15625 81.765625 -105.15625 C 72.460938 -105.15625 65.382812 -102.335938 60.53125 -96.703125 C 55.6875 -91.066406 53.265625 -83.46875 53.265625 -73.90625 L 53.265625 -61.328125 C 53.265625 -51.753906 55.6875 -44.148438 60.53125 -38.515625 C 65.382812 -32.890625 72.460938 -30.078125 81.765625 -30.078125 C 91.066406 -30.078125 98.171875 -32.890625 103.078125 -38.515625 C 107.992188 -44.148438 110.453125 -51.753906 110.453125 -61.328125 Z M 110.453125 -73.90625 "/></g></g></g><g fill="#000000" fill-opacity="1"><g transform="translate(1174.981318, 727.383068)"><g><path d="M 92.375 -100.625 L 92.375 0 L 48.9375 0 L 48.9375 -100.625 L 4.515625 -100.625 L 4.515625 -135.21875 L 136.59375 -135.21875 L 136.59375 -100.625 Z M 92.375 -100.625 "/></g></g></g><g fill="#000000" fill-opacity="1"><g transform="translate(1303.517743, 727.383068)"><g><path d="M 61.125 -106.140625 C 75.007812 -106.140625 86.769531 -103.421875 96.40625 -97.984375 C 106.039062 -92.546875 110.859375 -84.125 110.859375 -72.71875 L 74.484375 -72.71875 C 74.484375 -76.519531 72.78125 -79.207031 69.375 -80.78125 C 67.019531 -82.09375 64.070312 -82.75 60.53125 -82.75 C 51.101562 -82.75 46.390625 -80.519531 46.390625 -76.0625 C 46.390625 -73.570312 48.023438 -71.800781 51.296875 -70.75 C 54.578125 -69.707031 59.953125 -68.597656 67.421875 -67.421875 C 76.585938 -66.109375 84.25 -64.566406 90.40625 -62.796875 C 96.570312 -61.023438 101.945312 -57.878906 106.53125 -53.359375 C 111.113281 -48.835938 113.40625 -42.515625 113.40625 -34.390625 C 113.40625 -21.160156 108.457031 -11.726562 98.5625 -6.09375 C 88.675781 -0.457031 75.738281 2.359375 59.75 2.359375 C 50.570312 2.359375 41.921875 1.082031 33.796875 -1.46875 C 25.679688 -4.03125 19.066406 -7.992188 13.953125 -13.359375 C 8.847656 -18.734375 6.296875 -25.550781 6.296875 -33.8125 L 42.65625 -33.8125 L 42.65625 -33.015625 C 42.78125 -28.566406 44.644531 -25.457031 48.25 -23.6875 C 51.851562 -21.914062 55.6875 -21.03125 59.75 -21.03125 C 70.625 -21.03125 76.0625 -23.585938 76.0625 -28.703125 C 76.0625 -31.316406 74.359375 -33.210938 70.953125 -34.390625 C 67.546875 -35.578125 61.976562 -36.820312 54.25 -38.125 C 44.945312 -39.695312 37.3125 -41.398438 31.34375 -43.234375 C 25.382812 -45.066406 20.175781 -48.175781 15.71875 -52.5625 C 11.269531 -56.957031 9.046875 -63.085938 9.046875 -70.953125 C 9.046875 -83.660156 13.859375 -92.703125 23.484375 -98.078125 C 33.117188 -103.453125 45.664062 -106.140625 61.125 -106.140625 Z M 61.125 -106.140625 "/></g></g></g><g clip-path="url(#2a555ae82d)"><g clip-path="url(#4430458dcc)"><path fill="#1e1e1e" d="M 659.207031 637.441406 L 827.644531 637.441406 L 827.644531 944.054688 L 659.207031 944.054688 Z M 659.207031 637.441406 " fill-opacity="1" fill-rule="nonzero"/></g></g><g clip-path="url(#715ca87426)"><g clip-path="url(#1916ffb1a5)"><path fill="#1e1e1e" d="M 553.988281 416.582031 L 781.726562 416.582031 L 781.726562 974.695312 L 553.988281 974.695312 Z M 553.988281 416.582031 " fill-opacity="1" fill-rule="nonzero"/></g></g><g clip-path="url(#eb2ddaf3a0)"><g clip-path="url(#689fbc3ebe)"><path fill="#1e1e1e" d="M 743.273438 635.566406 L 891.164062 635.566406 L 891.164062 894.953125 L 743.273438 894.953125 Z M 743.273438 635.566406 " fill-opacity="1" fill-rule="nonzero"/></g></g><g clip-path="url(#365d1a01d5)"><g clip-path="url(#cd6b5bbab2)"><path fill="#1e1e1e" d="M 709.226562 899.550781 L 1302.695312 899.550781 L 1302.695312 1222.101562 L 709.226562 1222.101562 Z M 709.226562 899.550781 " fill-opacity="1" fill-rule="nonzero"/></g></g><g clip-path="url(#716f6d3c3d)"><g clip-path="url(#2124566dc7)"><path fill="#1e1e1e" d="M 813.921875 493.078125 L 868.964844 493.078125 L 868.964844 548.125 L 813.921875 548.125 Z M 813.921875 493.078125 " fill-opacity="1" fill-rule="nonzero"/></g></g><g clip-path="url(#39ce8d9246)"><g clip-path="url(#b1c71eb6fd)"><path fill="#1e1e1e" d="M 799.671875 518.949219 L 854.71875 518.949219 L 854.71875 573.996094 L 799.671875 573.996094 Z M 799.671875 518.949219 " fill-opacity="1" fill-rule="nonzero"/></g></g><g clip-path="url(#7b31bb6022)"><g clip-path="url(#cf78dfc7da)"><path fill="#1e1e1e" d="M 787.222656 534.097656 L 842.269531 534.097656 L 842.269531 589.144531 L 787.222656 589.144531 Z M 787.222656 534.097656 " fill-opacity="1" fill-rule="nonzero"/></g></g><g clip-path="url(#fbea5ec492)"><g clip-path="url(#7055e16f04)"><path fill="#1e1e1e" d="M 818.34375 555.472656 L 873.390625 555.472656 L 873.390625 610.519531 L 818.34375 610.519531 Z M 818.34375 555.472656 " fill-opacity="1" fill-rule="nonzero"/></g></g><g clip-path="url(#8862745ef9)"><g clip-path="url(#3fd39908e5)"><path fill="#1e1e1e" d="M 826.371094 557.199219 L 881.414062 557.199219 L 881.414062 612.242188 L 826.371094 612.242188 Z M 826.371094 557.199219 " fill-opacity="1" fill-rule="nonzero"/></g></g><g clip-path="url(#eb76e75205)"><g clip-path="url(#d5255a3f3f)"><path fill="#1e1e1e" d="M 1104.152344 1120.859375 L 1159.195312 1120.859375 L 1159.195312 1175.90625 L 1104.152344 1175.90625 Z M 1104.152344 1120.859375 " fill-opacity="1" fill-rule="nonzero"/></g></g><g clip-path="url(#d834116777)"><g clip-path="url(#2b97f072f1)"><path fill="#1e1e1e" d="M 659.429688 489.402344 L 714.476562 489.402344 L 714.476562 544.449219 L 659.429688 544.449219 Z M 659.429688 489.402344 " fill-opacity="1" fill-rule="nonzero"/></g></g><g clip-path="url(#c85b708901)"><g clip-path="url(#f11f8bbd26)"><path fill="#1e1e1e" d="M 847.066406 379.835938 L 981.285156 379.835938 L 981.285156 427.757812 L 847.066406 427.757812 Z M 847.066406 379.835938 " fill-opacity="1" fill-rule="nonzero"/></g></g><g clip-path="url(#fd51542af9)"><g clip-path="url(#742ab0e850)"><path fill="#1e1e1e" d="M 944.261719 307.238281 L 977.785156 307.238281 L 977.785156 340.761719 L 944.261719 340.761719 Z M 944.261719 307.238281 " fill-opacity="1" fill-rule="nonzero"/></g></g><g clip-path="url(#49ef70fba4)"><g clip-path="url(#fb0b9de692)"><path fill="#1e1e1e" d="M 938.1875 313.3125 L 971.710938 313.3125 L 971.710938 346.835938 L 938.1875 346.835938 Z M 938.1875 313.3125 " fill-opacity="1" fill-rule="nonzero"/></g></g><g clip-path="url(#4f211695db)"><g clip-path="url(#30c5d39396)"><path fill="#1e1e1e" d="M 971.484375 940.046875 L 1082.039062 940.046875 L 1082.039062 992.167969 L 971.484375 992.167969 Z M 971.484375 940.046875 " fill-opacity="1" fill-rule="nonzero"/></g></g><g clip-path="url(#ea5ba845c3)"><g clip-path="url(#6983acb383)"><path fill="#1e1e1e" d="M 695.652344 512.949219 L 729.175781 512.949219 L 729.175781 546.472656 L 695.652344 546.472656 Z M 695.652344 512.949219 " fill-opacity="1" fill-rule="nonzero"/></g></g><g clip-path="url(#7ca8f456a3)"><g clip-path="url(#7e4e3f1adc)"><path fill="#1e1e1e" d="M 831.992188 525.476562 L 865.515625 525.476562 L 865.515625 558.996094 L 831.992188 558.996094 Z M 831.992188 525.476562 " fill-opacity="1" fill-rule="nonzero"/></g></g></svg>